<svg width="203" height="66" viewBox="0 0 203 66" fill="none" xmlns="http://www.w3.org/2000/svg">
<g filter="url(#filter0_d_51_19)">
<path d="M25.375 3H203V59H7L25.375 3Z" fill="#1F1F1F"/>
<path d="M84.8477 20.6816V22H79.0117V20.875L81.7715 17.916C82.0488 17.6074 82.2676 17.3359 82.4277 17.1016C82.5879 16.8633 82.7031 16.6504 82.7734 16.4629C82.8477 16.2715 82.8848 16.0898 82.8848 15.918C82.8848 15.6602 82.8418 15.4395 82.7559 15.2559C82.6699 15.0684 82.543 14.9238 82.375 14.8223C82.2109 14.7207 82.0078 14.6699 81.7656 14.6699C81.5078 14.6699 81.2852 14.7324 81.0977 14.8574C80.9141 14.9824 80.7734 15.1562 80.6758 15.3789C80.582 15.6016 80.5352 15.8535 80.5352 16.1348H78.8418C78.8418 15.627 78.9629 15.1621 79.2051 14.7402C79.4473 14.3145 79.7891 13.9766 80.2305 13.7266C80.6719 13.4727 81.1953 13.3457 81.8008 13.3457C82.3984 13.3457 82.9023 13.4434 83.3125 13.6387C83.7266 13.8301 84.0391 14.1074 84.25 14.4707C84.4648 14.8301 84.5723 15.2598 84.5723 15.7598C84.5723 16.041 84.5273 16.3164 84.4375 16.5859C84.3477 16.8516 84.2188 17.1172 84.0508 17.3828C83.8867 17.6445 83.6875 17.9102 83.4531 18.1797C83.2188 18.4492 82.959 18.7285 82.6738 19.0176L81.1914 20.6816H84.8477ZM91.6445 16.9844V18.4609C91.6445 19.1016 91.5762 19.6543 91.4395 20.1191C91.3027 20.5801 91.1055 20.959 90.8477 21.2559C90.5938 21.5488 90.291 21.7656 89.9395 21.9062C89.5879 22.0469 89.1973 22.1172 88.7676 22.1172C88.4238 22.1172 88.1035 22.0742 87.8066 21.9883C87.5098 21.8984 87.2422 21.7598 87.0039 21.5723C86.7695 21.3848 86.5664 21.1484 86.3945 20.8633C86.2266 20.5742 86.0977 20.2305 86.0078 19.832C85.918 19.4336 85.873 18.9766 85.873 18.4609V16.9844C85.873 16.3438 85.9414 15.7949 86.0781 15.3379C86.2188 14.877 86.416 14.5 86.6699 14.207C86.9277 13.9141 87.2324 13.6992 87.584 13.5625C87.9355 13.4219 88.3262 13.3516 88.7559 13.3516C89.0996 13.3516 89.418 13.3965 89.7109 13.4863C90.0078 13.5723 90.2754 13.707 90.5137 13.8906C90.752 14.0742 90.9551 14.3105 91.123 14.5996C91.291 14.8848 91.4199 15.2266 91.5098 15.625C91.5996 16.0195 91.6445 16.4727 91.6445 16.9844ZM89.9512 18.6836V16.7559C89.9512 16.4473 89.9336 16.1777 89.8984 15.9473C89.8672 15.7168 89.8184 15.5215 89.752 15.3613C89.6855 15.1973 89.6035 15.0645 89.5059 14.9629C89.4082 14.8613 89.2969 14.7871 89.1719 14.7402C89.0469 14.6934 88.9082 14.6699 88.7559 14.6699C88.5645 14.6699 88.3945 14.707 88.2461 14.7812C88.1016 14.8555 87.9785 14.9746 87.877 15.1387C87.7754 15.2988 87.6973 15.5137 87.6426 15.7832C87.5918 16.0488 87.5664 16.373 87.5664 16.7559V18.6836C87.5664 18.9922 87.582 19.2637 87.6133 19.498C87.6484 19.7324 87.6992 19.9336 87.7656 20.1016C87.8359 20.2656 87.918 20.4004 88.0117 20.5059C88.1094 20.6074 88.2207 20.6816 88.3457 20.7285C88.4746 20.7754 88.6152 20.7988 88.7676 20.7988C88.9551 20.7988 89.1211 20.7617 89.2656 20.6875C89.4141 20.6094 89.5391 20.4883 89.6406 20.3242C89.7461 20.1562 89.8242 19.9375 89.875 19.668C89.9258 19.3984 89.9512 19.0703 89.9512 18.6836ZM92.7695 15.5605V15.1094C92.7695 14.7852 92.8398 14.4902 92.9805 14.2246C93.1211 13.959 93.3281 13.7461 93.6016 13.5859C93.875 13.4258 94.2109 13.3457 94.6094 13.3457C95.0195 13.3457 95.3613 13.4258 95.6348 13.5859C95.9121 13.7461 96.1191 13.959 96.2559 14.2246C96.3965 14.4902 96.4668 14.7852 96.4668 15.1094V15.5605C96.4668 15.877 96.3965 16.168 96.2559 16.4336C96.1191 16.6992 95.9141 16.9121 95.6406 17.0723C95.3672 17.2324 95.0293 17.3125 94.627 17.3125C94.2207 17.3125 93.8789 17.2324 93.6016 17.0723C93.3281 16.9121 93.1211 16.6992 92.9805 16.4336C92.8398 16.168 92.7695 15.877 92.7695 15.5605ZM93.8887 15.1094V15.5605C93.8887 15.6973 93.9141 15.8281 93.9648 15.9531C94.0195 16.0742 94.1016 16.1738 94.2109 16.252C94.3242 16.3262 94.4609 16.3633 94.6211 16.3633C94.7891 16.3633 94.9258 16.3262 95.0312 16.252C95.1367 16.1738 95.2148 16.0742 95.2656 15.9531C95.3164 15.8281 95.3418 15.6973 95.3418 15.5605V15.1094C95.3418 14.9648 95.3145 14.832 95.2598 14.7109C95.209 14.5859 95.1289 14.4863 95.0195 14.4121C94.9141 14.334 94.7773 14.2949 94.6094 14.2949C94.4531 14.2949 94.3203 14.334 94.2109 14.4121C94.1016 14.4863 94.0195 14.5859 93.9648 14.7109C93.9141 14.832 93.8887 14.9648 93.8887 15.1094ZM96.8477 20.3594V19.9082C96.8477 19.5879 96.918 19.2949 97.0586 19.0293C97.2031 18.7637 97.4121 18.5508 97.6855 18.3906C97.9629 18.2305 98.3027 18.1504 98.7051 18.1504C99.1113 18.1504 99.4512 18.2305 99.7246 18.3906C99.998 18.5508 100.205 18.7637 100.346 19.0293C100.486 19.2949 100.557 19.5879 100.557 19.9082V20.3594C100.557 20.6797 100.486 20.9727 100.346 21.2383C100.209 21.5039 100.004 21.7168 99.7305 21.877C99.457 22.0371 99.1191 22.1172 98.7168 22.1172C98.3105 22.1172 97.9688 22.0371 97.6914 21.877C97.4141 21.7168 97.2031 21.5039 97.0586 21.2383C96.918 20.9727 96.8477 20.6797 96.8477 20.3594ZM97.9727 19.9082V20.3594C97.9727 20.5 98.0039 20.6328 98.0664 20.7578C98.1289 20.8828 98.2148 20.9824 98.3242 21.0566C98.4375 21.1309 98.5684 21.168 98.7168 21.168C98.9043 21.168 99.0508 21.1309 99.1562 21.0566C99.2617 20.9824 99.334 20.8828 99.373 20.7578C99.416 20.6328 99.4375 20.5 99.4375 20.3594V19.9082C99.4375 19.7676 99.4102 19.6367 99.3555 19.5156C99.3008 19.3906 99.2188 19.291 99.1094 19.2168C99.0039 19.1387 98.8691 19.0996 98.7051 19.0996C98.541 19.0996 98.4043 19.1387 98.2949 19.2168C98.1895 19.291 98.1094 19.3906 98.0547 19.5156C98 19.6367 97.9727 19.7676 97.9727 19.9082ZM99.1211 14.6875L94.9551 21.3555L94.1348 20.9219L98.3008 14.2539L99.1211 14.6875Z" fill="#FF5E0E"/>
<path d="M107.412 22H105.59L105.602 20.834H107.412C107.939 20.834 108.381 20.7188 108.736 20.4883C109.096 20.2578 109.365 19.9277 109.545 19.498C109.729 19.0684 109.82 18.5566 109.82 17.9629V17.5C109.82 17.0391 109.768 16.6309 109.662 16.2754C109.561 15.9199 109.408 15.6211 109.205 15.3789C109.006 15.1367 108.76 14.9531 108.467 14.8281C108.178 14.7031 107.844 14.6406 107.465 14.6406H105.555V13.4688H107.465C108.031 13.4688 108.549 13.5645 109.018 13.7559C109.486 13.9434 109.891 14.2148 110.23 14.5703C110.574 14.9258 110.838 15.3516 111.021 15.8477C111.205 16.3438 111.297 16.8984 111.297 17.5117V17.9629C111.297 18.5762 111.205 19.1309 111.021 19.627C110.838 20.123 110.574 20.5488 110.23 20.9043C109.887 21.2559 109.477 21.5273 109 21.7188C108.527 21.9062 107.998 22 107.412 22ZM106.404 13.4688V22H104.934V13.4688H106.404ZM114.145 15.6602V22H112.727V15.6602H114.145ZM112.633 13.9961C112.633 13.7812 112.703 13.6035 112.844 13.4629C112.988 13.3184 113.188 13.2461 113.441 13.2461C113.691 13.2461 113.889 13.3184 114.033 13.4629C114.178 13.6035 114.25 13.7812 114.25 13.9961C114.25 14.207 114.178 14.3828 114.033 14.5234C113.889 14.6641 113.691 14.7344 113.441 14.7344C113.188 14.7344 112.988 14.6641 112.844 14.5234C112.703 14.3828 112.633 14.207 112.633 13.9961ZM119.248 20.2832C119.248 20.1426 119.213 20.0156 119.143 19.9023C119.072 19.7852 118.938 19.6797 118.738 19.5859C118.543 19.4922 118.254 19.4062 117.871 19.3281C117.535 19.2539 117.227 19.166 116.945 19.0645C116.668 18.959 116.43 18.832 116.23 18.6836C116.031 18.5352 115.877 18.3594 115.768 18.1562C115.658 17.9531 115.604 17.7188 115.604 17.4531C115.604 17.1953 115.66 16.9512 115.773 16.7207C115.887 16.4902 116.049 16.2871 116.26 16.1113C116.471 15.9355 116.727 15.7969 117.027 15.6953C117.332 15.5938 117.672 15.543 118.047 15.543C118.578 15.543 119.033 15.6328 119.412 15.8125C119.795 15.9883 120.088 16.2285 120.291 16.5332C120.494 16.834 120.596 17.1738 120.596 17.5527H119.184C119.184 17.3848 119.141 17.2285 119.055 17.084C118.973 16.9355 118.848 16.8164 118.68 16.7266C118.512 16.6328 118.301 16.5859 118.047 16.5859C117.805 16.5859 117.604 16.625 117.443 16.7031C117.287 16.7773 117.17 16.875 117.092 16.9961C117.018 17.1172 116.98 17.25 116.98 17.3945C116.98 17.5 117 17.5957 117.039 17.6816C117.082 17.7637 117.152 17.8398 117.25 17.9102C117.348 17.9766 117.48 18.0391 117.648 18.0977C117.82 18.1562 118.035 18.2129 118.293 18.2676C118.777 18.3691 119.193 18.5 119.541 18.6602C119.893 18.8164 120.162 19.0195 120.35 19.2695C120.537 19.5156 120.631 19.8281 120.631 20.207C120.631 20.4883 120.57 20.7461 120.449 20.9805C120.332 21.2109 120.16 21.4121 119.934 21.584C119.707 21.752 119.436 21.8828 119.119 21.9766C118.807 22.0703 118.455 22.1172 118.064 22.1172C117.49 22.1172 117.004 22.0156 116.605 21.8125C116.207 21.6055 115.904 21.3418 115.697 21.0215C115.494 20.6973 115.393 20.3613 115.393 20.0137H116.758C116.773 20.2754 116.846 20.4844 116.975 20.6406C117.107 20.793 117.271 20.9043 117.467 20.9746C117.666 21.041 117.871 21.0742 118.082 21.0742C118.336 21.0742 118.549 21.041 118.721 20.9746C118.893 20.9043 119.023 20.8105 119.113 20.6934C119.203 20.5723 119.248 20.4355 119.248 20.2832ZM124.457 20.9922C124.688 20.9922 124.895 20.9473 125.078 20.8574C125.266 20.7637 125.416 20.6348 125.529 20.4707C125.646 20.3066 125.711 20.1172 125.723 19.9023H127.053C127.045 20.3125 126.924 20.6855 126.689 21.0215C126.455 21.3574 126.145 21.625 125.758 21.8242C125.371 22.0195 124.943 22.1172 124.475 22.1172C123.99 22.1172 123.568 22.0352 123.209 21.8711C122.85 21.7031 122.551 21.4727 122.312 21.1797C122.074 20.8867 121.895 20.5488 121.773 20.166C121.656 19.7832 121.598 19.373 121.598 18.9355V18.7305C121.598 18.293 121.656 17.8828 121.773 17.5C121.895 17.1133 122.074 16.7734 122.312 16.4805C122.551 16.1875 122.85 15.959 123.209 15.7949C123.568 15.627 123.988 15.543 124.469 15.543C124.977 15.543 125.422 15.6445 125.805 15.8477C126.188 16.0469 126.488 16.3262 126.707 16.6855C126.93 17.041 127.045 17.4551 127.053 17.9277H125.723C125.711 17.6934 125.652 17.4824 125.547 17.2949C125.445 17.1035 125.301 16.9512 125.113 16.8379C124.93 16.7246 124.709 16.668 124.451 16.668C124.166 16.668 123.93 16.7266 123.742 16.8438C123.555 16.957 123.408 17.1133 123.303 17.3125C123.197 17.5078 123.121 17.7285 123.074 17.9746C123.031 18.2168 123.01 18.4688 123.01 18.7305V18.9355C123.01 19.1973 123.031 19.4512 123.074 19.6973C123.117 19.9434 123.191 20.1641 123.297 20.3594C123.406 20.5508 123.555 20.7051 123.742 20.8223C123.93 20.9355 124.168 20.9922 124.457 20.9922ZM127.867 18.9004V18.7656C127.867 18.3086 127.934 17.8848 128.066 17.4941C128.199 17.0996 128.391 16.7578 128.641 16.4688C128.895 16.1758 129.203 15.9492 129.566 15.7891C129.934 15.625 130.348 15.543 130.809 15.543C131.273 15.543 131.688 15.625 132.051 15.7891C132.418 15.9492 132.729 16.1758 132.982 16.4688C133.236 16.7578 133.43 17.0996 133.562 17.4941C133.695 17.8848 133.762 18.3086 133.762 18.7656V18.9004C133.762 19.3574 133.695 19.7812 133.562 20.1719C133.43 20.5625 133.236 20.9043 132.982 21.1973C132.729 21.4863 132.42 21.7129 132.057 21.877C131.693 22.0371 131.281 22.1172 130.82 22.1172C130.355 22.1172 129.939 22.0371 129.572 21.877C129.209 21.7129 128.9 21.4863 128.646 21.1973C128.393 20.9043 128.199 20.5625 128.066 20.1719C127.934 19.7812 127.867 19.3574 127.867 18.9004ZM129.279 18.7656V18.9004C129.279 19.1855 129.309 19.4551 129.367 19.709C129.426 19.9629 129.518 20.1855 129.643 20.377C129.768 20.5684 129.928 20.7188 130.123 20.8281C130.318 20.9375 130.551 20.9922 130.82 20.9922C131.082 20.9922 131.309 20.9375 131.5 20.8281C131.695 20.7188 131.855 20.5684 131.98 20.377C132.105 20.1855 132.197 19.9629 132.256 19.709C132.318 19.4551 132.35 19.1855 132.35 18.9004V18.7656C132.35 18.4844 132.318 18.2188 132.256 17.9688C132.197 17.7148 132.104 17.4902 131.975 17.2949C131.85 17.0996 131.689 16.9473 131.494 16.8379C131.303 16.7246 131.074 16.668 130.809 16.668C130.543 16.668 130.312 16.7246 130.117 16.8379C129.926 16.9473 129.768 17.0996 129.643 17.2949C129.518 17.4902 129.426 17.7148 129.367 17.9688C129.309 18.2188 129.279 18.4844 129.279 18.7656ZM138.76 20.5059V15.6602H140.178V22H138.842L138.76 20.5059ZM138.959 19.1875L139.434 19.1758C139.434 19.6016 139.387 19.9941 139.293 20.3535C139.199 20.709 139.055 21.0195 138.859 21.2852C138.664 21.5469 138.414 21.752 138.109 21.9004C137.805 22.0449 137.439 22.1172 137.014 22.1172C136.705 22.1172 136.422 22.0723 136.164 21.9824C135.906 21.8926 135.684 21.7539 135.496 21.5664C135.312 21.3789 135.17 21.1348 135.068 20.834C134.967 20.5332 134.916 20.1738 134.916 19.7559V15.6602H136.328V19.7676C136.328 19.998 136.355 20.1914 136.41 20.3477C136.465 20.5 136.539 20.623 136.633 20.7168C136.727 20.8105 136.836 20.877 136.961 20.916C137.086 20.9551 137.219 20.9746 137.359 20.9746C137.762 20.9746 138.078 20.8965 138.309 20.7402C138.543 20.5801 138.709 20.3652 138.807 20.0957C138.908 19.8262 138.959 19.5234 138.959 19.1875ZM143.025 17.0137V22H141.613V15.6602H142.943L143.025 17.0137ZM142.773 18.5957L142.316 18.5898C142.32 18.1406 142.383 17.7285 142.504 17.3535C142.629 16.9785 142.801 16.6562 143.02 16.3867C143.242 16.1172 143.508 15.9102 143.816 15.7656C144.125 15.6172 144.469 15.543 144.848 15.543C145.152 15.543 145.428 15.5859 145.674 15.6719C145.924 15.7539 146.137 15.8887 146.312 16.0762C146.492 16.2637 146.629 16.5078 146.723 16.8086C146.816 17.1055 146.863 17.4707 146.863 17.9043V22H145.445V17.8984C145.445 17.5938 145.4 17.3535 145.311 17.1777C145.225 16.998 145.098 16.8711 144.93 16.7969C144.766 16.7188 144.561 16.6797 144.314 16.6797C144.072 16.6797 143.855 16.7305 143.664 16.832C143.473 16.9336 143.311 17.0723 143.178 17.248C143.049 17.4238 142.949 17.627 142.879 17.8574C142.809 18.0879 142.773 18.334 142.773 18.5957ZM151.211 15.6602V16.6914H147.637V15.6602H151.211ZM148.668 14.1074H150.08V20.248C150.08 20.4434 150.107 20.5938 150.162 20.6992C150.221 20.8008 150.301 20.8691 150.402 20.9043C150.504 20.9395 150.623 20.957 150.76 20.957C150.857 20.957 150.951 20.9512 151.041 20.9395C151.131 20.9277 151.203 20.916 151.258 20.9043L151.264 21.9824C151.146 22.0176 151.01 22.0488 150.854 22.0762C150.701 22.1035 150.525 22.1172 150.326 22.1172C150.002 22.1172 149.715 22.0605 149.465 21.9473C149.215 21.8301 149.02 21.6406 148.879 21.3789C148.738 21.1172 148.668 20.7695 148.668 20.3359V14.1074Z" fill="#FBFBFB"/>
<path d="M77.3203 45.2266H79.6562C79.6094 45.9922 79.3984 46.6719 79.0234 47.2656C78.6536 47.8594 78.1354 48.3229 77.4688 48.6562C76.8073 48.9896 76.0104 49.1562 75.0781 49.1562C74.349 49.1562 73.6953 49.0312 73.1172 48.7812C72.5391 48.526 72.0443 48.1615 71.6328 47.6875C71.2266 47.2135 70.9167 46.6406 70.7031 45.9688C70.4896 45.2969 70.3828 44.5443 70.3828 43.7109V42.9219C70.3828 42.0885 70.4922 41.3359 70.7109 40.6641C70.9349 39.987 71.2526 39.4115 71.6641 38.9375C72.0807 38.4635 72.5781 38.099 73.1562 37.8438C73.7344 37.5885 74.3802 37.4609 75.0938 37.4609C76.0417 37.4609 76.8411 37.6328 77.4922 37.9766C78.1484 38.3203 78.6562 38.7943 79.0156 39.3984C79.3802 40.0026 79.599 40.6901 79.6719 41.4609H77.3281C77.3021 41.0026 77.2109 40.6146 77.0547 40.2969C76.8984 39.974 76.6615 39.7318 76.3438 39.5703C76.0312 39.4036 75.6146 39.3203 75.0938 39.3203C74.7031 39.3203 74.362 39.3932 74.0703 39.5391C73.7786 39.6849 73.5339 39.9062 73.3359 40.2031C73.138 40.5 72.9896 40.875 72.8906 41.3281C72.7969 41.776 72.75 42.3021 72.75 42.9062V43.7109C72.75 44.2995 72.7943 44.8177 72.8828 45.2656C72.9714 45.7083 73.1068 46.0833 73.2891 46.3906C73.4766 46.6927 73.7161 46.9219 74.0078 47.0781C74.3047 47.2292 74.6615 47.3047 75.0781 47.3047C75.5677 47.3047 75.9714 47.2266 76.2891 47.0703C76.6068 46.9141 76.849 46.6823 77.0156 46.375C77.1875 46.0677 77.2891 45.6849 77.3203 45.2266ZM83.4297 37V49H81.1719V37H83.4297ZM87.6641 40.5469V49H85.4062V40.5469H87.6641ZM85.2656 38.3438C85.2656 38.0156 85.3802 37.7448 85.6094 37.5312C85.8385 37.3177 86.1458 37.2109 86.5312 37.2109C86.9115 37.2109 87.2161 37.3177 87.4453 37.5312C87.6797 37.7448 87.7969 38.0156 87.7969 38.3438C87.7969 38.6719 87.6797 38.9427 87.4453 39.1562C87.2161 39.3698 86.9115 39.4766 86.5312 39.4766C86.1458 39.4766 85.8385 39.3698 85.6094 39.1562C85.3802 38.9427 85.2656 38.6719 85.2656 38.3438ZM93.0156 47.3984C93.2917 47.3984 93.5365 47.3464 93.75 47.2422C93.9635 47.1328 94.1302 46.9818 94.25 46.7891C94.375 46.5911 94.4401 46.3594 94.4453 46.0938H96.5625C96.5573 46.6875 96.3984 47.2161 96.0859 47.6797C95.7734 48.138 95.3542 48.5 94.8281 48.7656C94.3021 49.026 93.7135 49.1562 93.0625 49.1562C92.4062 49.1562 91.8333 49.0469 91.3438 48.8281C90.8594 48.6094 90.4557 48.3073 90.1328 47.9219C89.8099 47.5312 89.5677 47.0781 89.4062 46.5625C89.2448 46.0417 89.1641 45.4844 89.1641 44.8906V44.6641C89.1641 44.0651 89.2448 43.5078 89.4062 42.9922C89.5677 42.4714 89.8099 42.0182 90.1328 41.6328C90.4557 41.2422 90.8594 40.9375 91.3438 40.7188C91.8281 40.5 92.3958 40.3906 93.0469 40.3906C93.7396 40.3906 94.3464 40.5234 94.8672 40.7891C95.3932 41.0547 95.8047 41.4349 96.1016 41.9297C96.4036 42.4193 96.5573 43 96.5625 43.6719H94.4453C94.4401 43.3906 94.3802 43.1354 94.2656 42.9062C94.1562 42.6771 93.9948 42.4948 93.7812 42.3594C93.5729 42.2188 93.3151 42.1484 93.0078 42.1484C92.6797 42.1484 92.4115 42.2188 92.2031 42.3594C91.9948 42.4948 91.8333 42.6823 91.7188 42.9219C91.6042 43.1562 91.5234 43.4245 91.4766 43.7266C91.4349 44.0234 91.4141 44.3359 91.4141 44.6641V44.8906C91.4141 45.2188 91.4349 45.5339 91.4766 45.8359C91.5182 46.138 91.5964 46.4062 91.7109 46.6406C91.8307 46.875 91.9948 47.0599 92.2031 47.1953C92.4115 47.3307 92.6823 47.3984 93.0156 47.3984ZM100.117 36.9922V49H97.8672V36.9922H100.117ZM105.445 40.5469L101.773 44.7344L99.8047 46.7266L98.9844 45.1016L100.547 43.1172L102.742 40.5469H105.445ZM103.109 49L100.609 45.0938L102.164 43.7344L105.703 49H103.109ZM115.203 37.625V49H112.867V37.625H115.203ZM118.703 37.625V39.4609H109.422V37.625H118.703ZM118.18 44.8594V44.6953C118.18 44.0755 118.268 43.5052 118.445 42.9844C118.622 42.4583 118.88 42.0026 119.219 41.6172C119.557 41.2318 119.974 40.9323 120.469 40.7188C120.964 40.5 121.531 40.3906 122.172 40.3906C122.812 40.3906 123.383 40.5 123.883 40.7188C124.383 40.9323 124.802 41.2318 125.141 41.6172C125.484 42.0026 125.745 42.4583 125.922 42.9844C126.099 43.5052 126.188 44.0755 126.188 44.6953V44.8594C126.188 45.474 126.099 46.0443 125.922 46.5703C125.745 47.0911 125.484 47.5469 125.141 47.9375C124.802 48.3229 124.385 48.6224 123.891 48.8359C123.396 49.0495 122.828 49.1562 122.188 49.1562C121.547 49.1562 120.977 49.0495 120.477 48.8359C119.982 48.6224 119.562 48.3229 119.219 47.9375C118.88 47.5469 118.622 47.0911 118.445 46.5703C118.268 46.0443 118.18 45.474 118.18 44.8594ZM120.43 44.6953V44.8594C120.43 45.2135 120.461 45.5443 120.523 45.8516C120.586 46.1589 120.685 46.4297 120.82 46.6641C120.961 46.8932 121.143 47.0729 121.367 47.2031C121.591 47.3333 121.865 47.3984 122.188 47.3984C122.5 47.3984 122.768 47.3333 122.992 47.2031C123.216 47.0729 123.396 46.8932 123.531 46.6641C123.667 46.4297 123.766 46.1589 123.828 45.8516C123.896 45.5443 123.93 45.2135 123.93 44.8594V44.6953C123.93 44.3516 123.896 44.0286 123.828 43.7266C123.766 43.4193 123.664 43.1484 123.523 42.9141C123.388 42.6745 123.208 42.487 122.984 42.3516C122.76 42.2161 122.49 42.1484 122.172 42.1484C121.854 42.1484 121.583 42.2161 121.359 42.3516C121.141 42.487 120.961 42.6745 120.82 42.9141C120.685 43.1484 120.586 43.4193 120.523 43.7266C120.461 44.0286 120.43 44.3516 120.43 44.6953ZM140.711 43.0547V47.5625C140.534 47.776 140.26 48.0078 139.891 48.2578C139.521 48.5026 139.044 48.7135 138.461 48.8906C137.878 49.0677 137.172 49.1562 136.344 49.1562C135.609 49.1562 134.94 49.0365 134.336 48.7969C133.732 48.5521 133.211 48.1953 132.773 47.7266C132.341 47.2578 132.008 46.6849 131.773 46.0078C131.539 45.3255 131.422 44.5469 131.422 43.6719V42.9609C131.422 42.0859 131.534 41.3073 131.758 40.625C131.987 39.9427 132.312 39.3672 132.734 38.8984C133.156 38.4297 133.659 38.0729 134.242 37.8281C134.826 37.5833 135.474 37.4609 136.188 37.4609C137.177 37.4609 137.99 37.6224 138.625 37.9453C139.26 38.263 139.745 38.7057 140.078 39.2734C140.417 39.8359 140.625 40.4818 140.703 41.2109H138.43C138.372 40.8255 138.263 40.4896 138.102 40.2031C137.94 39.9167 137.708 39.6927 137.406 39.5312C137.109 39.3698 136.724 39.2891 136.25 39.2891C135.859 39.2891 135.51 39.3698 135.203 39.5312C134.901 39.6875 134.646 39.9193 134.438 40.2266C134.229 40.5339 134.07 40.9141 133.961 41.3672C133.852 41.8203 133.797 42.3464 133.797 42.9453V43.6719C133.797 44.2656 133.854 44.7917 133.969 45.25C134.083 45.7031 134.253 46.0859 134.477 46.3984C134.706 46.7057 134.987 46.9375 135.32 47.0938C135.654 47.25 136.042 47.3281 136.484 47.3281C136.854 47.3281 137.161 47.2969 137.406 47.2344C137.656 47.1719 137.857 47.0964 138.008 47.0078C138.164 46.9141 138.284 46.8255 138.367 46.7422V44.7266H136.227V43.0547H140.711ZM146.352 49.1562C145.695 49.1562 145.107 49.0521 144.586 48.8438C144.065 48.6302 143.622 48.3359 143.258 47.9609C142.898 47.5859 142.622 47.151 142.43 46.6562C142.237 46.1562 142.141 45.625 142.141 45.0625V44.75C142.141 44.1094 142.232 43.5234 142.414 42.9922C142.596 42.4609 142.857 42 143.195 41.6094C143.539 41.2188 143.956 40.9193 144.445 40.7109C144.935 40.4974 145.487 40.3906 146.102 40.3906C146.701 40.3906 147.232 40.4896 147.695 40.6875C148.159 40.8854 148.547 41.1667 148.859 41.5312C149.177 41.8958 149.417 42.3333 149.578 42.8438C149.74 43.349 149.82 43.9115 149.82 44.5312V45.4688H143.102V43.9688H147.609V43.7969C147.609 43.4844 147.552 43.2057 147.438 42.9609C147.328 42.7109 147.161 42.513 146.938 42.3672C146.714 42.2214 146.427 42.1484 146.078 42.1484C145.781 42.1484 145.526 42.2135 145.312 42.3438C145.099 42.474 144.924 42.6562 144.789 42.8906C144.659 43.125 144.56 43.401 144.492 43.7188C144.43 44.0312 144.398 44.375 144.398 44.75V45.0625C144.398 45.401 144.445 45.7135 144.539 46C144.638 46.2865 144.776 46.5339 144.953 46.7422C145.135 46.9505 145.354 47.112 145.609 47.2266C145.87 47.3411 146.164 47.3984 146.492 47.3984C146.898 47.3984 147.276 47.3203 147.625 47.1641C147.979 47.0026 148.284 46.7604 148.539 46.4375L149.633 47.625C149.456 47.8802 149.214 48.125 148.906 48.3594C148.604 48.5938 148.24 48.7865 147.812 48.9375C147.385 49.0833 146.898 49.1562 146.352 49.1562ZM155.242 40.5469V42.1406H150.32V40.5469H155.242ZM151.539 38.4609H153.789V46.4531C153.789 46.6979 153.82 46.8854 153.883 47.0156C153.951 47.1458 154.049 47.237 154.18 47.2891C154.31 47.3359 154.474 47.3594 154.672 47.3594C154.812 47.3594 154.938 47.3542 155.047 47.3438C155.161 47.3281 155.258 47.3125 155.336 47.2969L155.344 48.9531C155.151 49.0156 154.943 49.0651 154.719 49.1016C154.495 49.138 154.247 49.1562 153.977 49.1562C153.482 49.1562 153.049 49.0755 152.68 48.9141C152.315 48.7474 152.034 48.4818 151.836 48.1172C151.638 47.7526 151.539 47.2734 151.539 46.6797V38.4609ZM156.633 47.9141C156.633 47.5807 156.747 47.3021 156.977 47.0781C157.211 46.8542 157.521 46.7422 157.906 46.7422C158.292 46.7422 158.599 46.8542 158.828 47.0781C159.062 47.3021 159.18 47.5807 159.18 47.9141C159.18 48.2474 159.062 48.526 158.828 48.75C158.599 48.974 158.292 49.0859 157.906 49.0859C157.521 49.0859 157.211 48.974 156.977 48.75C156.747 48.526 156.633 48.2474 156.633 47.9141Z" fill="#FF5E0E"/>
</g>
<defs>
<filter id="filter0_d_51_19" x="0" y="0" width="206" height="66" filterUnits="userSpaceOnUse" color-interpolation-filters="sRGB">
<feFlood flood-opacity="0" result="BackgroundImageFix"/>
<feColorMatrix in="SourceAlpha" type="matrix" values="0 0 0 0 0 0 0 0 0 0 0 0 0 0 0 0 0 0 127 0" result="hardAlpha"/>
<feOffset dx="-2" dy="2"/>
<feGaussianBlur stdDeviation="2.5"/>
<feComposite in2="hardAlpha" operator="out"/>
<feColorMatrix type="matrix" values="0 0 0 0 0 0 0 0 0 0 0 0 0 0 0 0 0 0 0.5 0"/>
<feBlend mode="normal" in2="BackgroundImageFix" result="effect1_dropShadow_51_19"/>
<feBlend mode="normal" in="SourceGraphic" in2="effect1_dropShadow_51_19" result="shape"/>
</filter>
</defs>
</svg>
