<svg width="1443" height="207" viewBox="0 0 1443 207" fill="none" xmlns="http://www.w3.org/2000/svg">
<path d="M0 0H1443V207H0V0Z" fill="url(#paint0_linear_71_104)"/>
<rect x="739.537" y="103" width="300.625" height="64" fill="#FBFBFB"/>
<path d="M849.827 127.781H851.037V137.771C851.037 139.119 850.647 140.193 849.866 140.994C849.091 141.795 848.049 142.195 846.741 142.195C845.36 142.195 844.299 141.834 843.557 141.111C842.815 140.389 842.444 139.38 842.444 138.084H843.645C843.645 139.113 843.915 139.887 844.455 140.408C844.996 140.923 845.758 141.18 846.741 141.18C847.646 141.18 848.381 140.88 848.948 140.281C849.521 139.682 849.814 138.868 849.827 137.84V127.781ZM865.071 135.662C865.071 136.971 864.843 138.12 864.387 139.109C863.938 140.099 863.293 140.861 862.453 141.395C861.614 141.928 860.644 142.195 859.543 142.195C857.883 142.195 856.542 141.603 855.52 140.418C854.498 139.227 853.987 137.622 853.987 135.604V134.139C853.987 132.843 854.215 131.697 854.67 130.701C855.133 129.699 855.784 128.93 856.623 128.396C857.463 127.856 858.43 127.586 859.524 127.586C860.618 127.586 861.581 127.85 862.414 128.377C863.254 128.904 863.902 129.65 864.358 130.613C864.814 131.577 865.051 132.693 865.071 133.963V135.662ZM863.87 134.119C863.87 132.407 863.482 131.066 862.707 130.096C861.933 129.126 860.871 128.641 859.524 128.641C858.202 128.641 857.148 129.129 856.36 130.105C855.578 131.076 855.188 132.433 855.188 134.178V135.662C855.188 137.348 855.578 138.686 856.36 139.676C857.141 140.659 858.202 141.15 859.543 141.15C860.904 141.15 861.965 140.665 862.727 139.695C863.489 138.719 863.87 137.361 863.87 135.623V134.119ZM869.563 142H868.362V127.781H869.563V142ZM884.016 142H882.815L874.641 129.832V142H873.43V127.781H874.641L882.825 139.959V127.781H884.016V142ZM903.078 142H901.877L893.703 129.832V142H892.493V127.781H893.703L901.887 139.959V127.781H903.078V142ZM917.2 135.662C917.2 136.971 916.972 138.12 916.516 139.109C916.067 140.099 915.422 140.861 914.582 141.395C913.743 141.928 912.773 142.195 911.672 142.195C910.012 142.195 908.671 141.603 907.649 140.418C906.627 139.227 906.116 137.622 906.116 135.604V134.139C906.116 132.843 906.343 131.697 906.799 130.701C907.261 129.699 907.912 128.93 908.752 128.396C909.592 127.856 910.559 127.586 911.653 127.586C912.746 127.586 913.71 127.85 914.543 128.377C915.383 128.904 916.031 129.65 916.487 130.613C916.942 131.577 917.18 132.693 917.2 133.963V135.662ZM915.998 134.119C915.998 132.407 915.611 131.066 914.836 130.096C914.062 129.126 913 128.641 911.653 128.641C910.331 128.641 909.276 129.129 908.489 130.105C907.707 131.076 907.317 132.433 907.317 134.178V135.662C907.317 137.348 907.707 138.686 908.489 139.676C909.27 140.659 910.331 141.15 911.672 141.15C913.033 141.15 914.094 140.665 914.856 139.695C915.618 138.719 915.998 137.361 915.998 135.623V134.119ZM922.854 138.162L923.293 140.369L923.83 138.26L926.916 127.781H928L931.047 138.26L931.575 140.389L932.043 138.162L934.612 127.781H935.842L932.2 142H931.047L927.825 130.877L927.463 129.471L927.112 130.877L923.811 142H922.659L919.026 127.781H920.256L922.854 138.162Z" fill="#FF5E0E"/>
<rect x="386.804" y="103" width="300.625" height="64" fill="#FBFBFB"/>
<path d="M483.006 140.984H490.028V142H481.795V127.781H483.006V140.984ZM502.205 135.662C502.205 136.971 501.978 138.12 501.522 139.109C501.073 140.099 500.428 140.861 499.588 141.395C498.748 141.928 497.778 142.195 496.678 142.195C495.018 142.195 493.677 141.603 492.655 140.418C491.633 139.227 491.121 137.622 491.121 135.604V134.139C491.121 132.843 491.349 131.697 491.805 130.701C492.267 129.699 492.918 128.93 493.758 128.396C494.598 127.856 495.565 127.586 496.659 127.586C497.752 127.586 498.716 127.85 499.549 128.377C500.389 128.904 501.037 129.65 501.493 130.613C501.948 131.577 502.186 132.693 502.205 133.963V135.662ZM501.004 134.119C501.004 132.407 500.617 131.066 499.842 130.096C499.067 129.126 498.006 128.641 496.659 128.641C495.337 128.641 494.282 129.129 493.495 130.105C492.713 131.076 492.323 132.433 492.323 134.178V135.662C492.323 137.348 492.713 138.686 493.495 139.676C494.276 140.659 495.337 141.15 496.678 141.15C498.039 141.15 499.1 140.665 499.862 139.695C500.623 138.719 501.004 137.361 501.004 135.623V134.119ZM515.301 137.566C515.138 139.064 514.601 140.21 513.69 141.004C512.785 141.798 511.577 142.195 510.067 142.195C509.012 142.195 508.078 141.932 507.264 141.404C506.457 140.877 505.832 140.132 505.389 139.168C504.946 138.198 504.722 137.091 504.715 135.848V134.002C504.715 132.739 504.937 131.619 505.379 130.643C505.822 129.666 506.457 128.914 507.284 128.387C508.117 127.853 509.074 127.586 510.155 127.586C511.678 127.586 512.879 127.999 513.758 128.826C514.644 129.646 515.158 130.783 515.301 132.234H514.09C513.791 129.819 512.479 128.611 510.155 128.611C508.866 128.611 507.837 129.093 507.069 130.057C506.307 131.02 505.926 132.352 505.926 134.051V135.789C505.926 137.43 506.297 138.738 507.039 139.715C507.788 140.691 508.797 141.18 510.067 141.18C511.323 141.18 512.271 140.88 512.909 140.281C513.547 139.676 513.94 138.771 514.09 137.566H515.301ZM525.897 138.016H519.442L517.977 142H516.717L522.098 127.781H523.241L528.621 142H527.371L525.897 138.016ZM519.813 136.99H525.516L522.664 129.246L519.813 136.99ZM539.1 128.807H534.227V142H533.026V128.807H528.162V127.781H539.1V128.807ZM542.87 142H541.668V127.781H542.87V142ZM557.245 135.662C557.245 136.971 557.017 138.12 556.561 139.109C556.112 140.099 555.467 140.861 554.627 141.395C553.787 141.928 552.817 142.195 551.717 142.195C550.057 142.195 548.716 141.603 547.694 140.418C546.672 139.227 546.161 137.622 546.161 135.604V134.139C546.161 132.843 546.388 131.697 546.844 130.701C547.306 129.699 547.957 128.93 548.797 128.396C549.637 127.856 550.604 127.586 551.698 127.586C552.791 127.586 553.755 127.85 554.588 128.377C555.428 128.904 556.076 129.65 556.532 130.613C556.987 131.577 557.225 132.693 557.245 133.963V135.662ZM556.043 134.119C556.043 132.407 555.656 131.066 554.881 130.096C554.106 129.126 553.045 128.641 551.698 128.641C550.376 128.641 549.321 129.129 548.534 130.105C547.752 131.076 547.362 132.433 547.362 134.178V135.662C547.362 137.348 547.752 138.686 548.534 139.676C549.315 140.659 550.376 141.15 551.717 141.15C553.078 141.15 554.139 140.665 554.901 139.695C555.662 138.719 556.043 137.361 556.043 135.623V134.119ZM570.858 142H569.657L561.483 129.832V142H560.272V127.781H561.483L569.666 139.959V127.781H570.858V142ZM582.518 138.504C582.518 137.716 582.241 137.094 581.688 136.639C581.134 136.176 580.122 135.74 578.651 135.33C577.179 134.913 576.105 134.461 575.428 133.973C574.465 133.283 573.983 132.378 573.983 131.258C573.983 130.171 574.429 129.288 575.321 128.611C576.219 127.928 577.365 127.586 578.758 127.586C579.702 127.586 580.545 127.768 581.287 128.133C582.036 128.497 582.616 129.005 583.026 129.656C583.436 130.307 583.641 131.033 583.641 131.834H582.43C582.43 130.864 582.098 130.086 581.434 129.5C580.77 128.908 579.878 128.611 578.758 128.611C577.671 128.611 576.805 128.855 576.161 129.344C575.516 129.826 575.194 130.457 575.194 131.238C575.194 131.961 575.483 132.55 576.063 133.006C576.642 133.462 577.57 133.865 578.846 134.217C580.122 134.562 581.089 134.923 581.746 135.301C582.404 135.672 582.899 136.118 583.231 136.639C583.563 137.16 583.729 137.775 583.729 138.484C583.729 139.604 583.28 140.503 582.381 141.18C581.489 141.857 580.311 142.195 578.846 142.195C577.843 142.195 576.922 142.016 576.082 141.658C575.249 141.3 574.614 140.799 574.178 140.154C573.748 139.51 573.534 138.771 573.534 137.938H574.735C574.735 138.94 575.109 139.731 575.858 140.311C576.606 140.89 577.603 141.18 578.846 141.18C579.953 141.18 580.842 140.936 581.512 140.447C582.183 139.959 582.518 139.311 582.518 138.504Z" fill="#FF5E0E"/>
<path d="M667.203 21.2969C667.088 22.5104 666.64 23.4583 665.859 24.1406C665.078 24.8177 664.039 25.1562 662.742 25.1562C661.835 25.1562 661.036 24.9427 660.343 24.5156C659.656 24.0833 659.124 23.4714 658.749 22.6797C658.374 21.888 658.179 20.9688 658.164 19.9219V18.8594C658.164 17.7865 658.354 16.8411 658.734 16.0234C659.114 15.2057 659.658 14.5755 660.367 14.1328C661.08 13.6901 661.903 13.4688 662.835 13.4688C664.091 13.4688 665.101 13.8099 665.867 14.4922C666.632 15.1745 667.078 16.138 667.203 17.3828H665.234C665.14 16.5651 664.9 15.9766 664.515 15.6172C664.135 15.2526 663.575 15.0703 662.835 15.0703C661.976 15.0703 661.315 15.3854 660.851 16.0156C660.393 16.6406 660.158 17.5599 660.148 18.7734V19.7812C660.148 21.0104 660.367 21.9479 660.804 22.5938C661.247 23.2396 661.893 23.5625 662.742 23.5625C663.518 23.5625 664.101 23.388 664.492 23.0391C664.882 22.6901 665.13 22.1094 665.234 21.2969H667.203ZM670.953 23.4219H676.117V25H668.976V13.625H670.953V23.4219ZM686.21 19.6094C686.21 20.724 686.018 21.7031 685.632 22.5469C685.247 23.3854 684.695 24.0312 683.976 24.4844C683.262 24.9323 682.44 25.1562 681.507 25.1562C680.585 25.1562 679.762 24.9323 679.039 24.4844C678.32 24.0312 677.762 23.388 677.367 22.5547C676.976 21.7214 676.778 20.7604 676.773 19.6719V19.0312C676.773 17.9219 676.968 16.9427 677.359 16.0938C677.755 15.2448 678.309 14.5964 679.023 14.1484C679.742 13.6953 680.565 13.4688 681.492 13.4688C682.419 13.4688 683.239 13.6927 683.953 14.1406C684.671 14.5833 685.226 15.224 685.617 16.0625C686.007 16.8958 686.205 17.8672 686.21 18.9766V19.6094ZM684.234 19.0156C684.234 17.7552 683.994 16.7891 683.515 16.1172C683.041 15.4453 682.367 15.1094 681.492 15.1094C680.637 15.1094 679.968 15.4453 679.484 16.1172C679.005 16.7839 678.76 17.7292 678.749 18.9531V19.6094C678.749 20.8594 678.992 21.8255 679.476 22.5078C679.966 23.1901 680.643 23.5312 681.507 23.5312C682.382 23.5312 683.054 23.1979 683.523 22.5312C683.997 21.8646 684.234 20.8906 684.234 19.6094V19.0156ZM694.124 22.0703C694.124 21.5703 693.947 21.1849 693.593 20.9141C693.244 20.6432 692.611 20.3698 691.695 20.0938C690.778 19.8177 690.049 19.5104 689.507 19.1719C688.471 18.5208 687.953 17.6719 687.953 16.625C687.953 15.7083 688.325 14.9531 689.07 14.3594C689.82 13.7656 690.791 13.4688 691.984 13.4688C692.775 13.4688 693.481 13.6146 694.101 13.9062C694.721 14.1979 695.208 14.6146 695.562 15.1562C695.916 15.6927 696.093 16.2891 696.093 16.9453H694.124C694.124 16.3516 693.937 15.888 693.562 15.5547C693.192 15.2161 692.661 15.0469 691.968 15.0469C691.322 15.0469 690.82 15.1849 690.46 15.4609C690.106 15.737 689.929 16.1224 689.929 16.6172C689.929 17.0339 690.122 17.3828 690.507 17.6641C690.893 17.9401 691.528 18.2109 692.414 18.4766C693.299 18.737 694.01 19.0365 694.546 19.375C695.083 19.7083 695.476 20.0938 695.726 20.5312C695.976 20.9635 696.101 21.4714 696.101 22.0547C696.101 23.0026 695.736 23.7578 695.007 24.3203C694.283 24.8776 693.299 25.1562 692.054 25.1562C691.231 25.1562 690.473 25.0052 689.781 24.7031C689.093 24.3958 688.557 23.974 688.171 23.4375C687.791 22.901 687.601 22.276 687.601 21.5625H689.578C689.578 22.2083 689.791 22.7083 690.218 23.0625C690.645 23.4167 691.257 23.5938 692.054 23.5938C692.742 23.5938 693.257 23.4557 693.601 23.1797C693.95 22.8984 694.124 22.5286 694.124 22.0703ZM704.484 19.9219H699.812V23.4219H705.273V25H697.835V13.625H705.218V15.2188H699.812V18.3594H704.484V19.9219ZM712.828 22.0703C712.828 21.5703 712.65 21.1849 712.296 20.9141C711.947 20.6432 711.315 20.3698 710.398 20.0938C709.481 19.8177 708.752 19.5104 708.21 19.1719C707.174 18.5208 706.656 17.6719 706.656 16.625C706.656 15.7083 707.028 14.9531 707.773 14.3594C708.523 13.7656 709.494 13.4688 710.687 13.4688C711.479 13.4688 712.184 13.6146 712.804 13.9062C713.424 14.1979 713.911 14.6146 714.265 15.1562C714.619 15.6927 714.796 16.2891 714.796 16.9453H712.828C712.828 16.3516 712.64 15.888 712.265 15.5547C711.895 15.2161 711.364 15.0469 710.671 15.0469C710.025 15.0469 709.523 15.1849 709.164 15.4609C708.809 15.737 708.632 16.1224 708.632 16.6172C708.632 17.0339 708.825 17.3828 709.21 17.6641C709.596 17.9401 710.231 18.2109 711.117 18.4766C712.002 18.737 712.713 19.0365 713.249 19.375C713.786 19.7083 714.179 20.0938 714.429 20.5312C714.679 20.9635 714.804 21.4714 714.804 22.0547C714.804 23.0026 714.44 23.7578 713.71 24.3203C712.986 24.8776 712.002 25.1562 710.757 25.1562C709.934 25.1562 709.177 25.0052 708.484 24.7031C707.796 24.3958 707.26 23.974 706.874 23.4375C706.494 22.901 706.304 22.276 706.304 21.5625H708.281C708.281 22.2083 708.494 22.7083 708.921 23.0625C709.348 23.4167 709.96 23.5938 710.757 23.5938C711.445 23.5938 711.96 23.4557 712.304 23.1797C712.653 22.8984 712.828 22.5286 712.828 22.0703ZM724.757 15.2188H721.21V25H719.249V15.2188H715.734V13.625H724.757V15.2188ZM738.453 21.2969C738.338 22.5104 737.89 23.4583 737.109 24.1406C736.328 24.8177 735.289 25.1562 733.992 25.1562C733.085 25.1562 732.286 24.9427 731.593 24.5156C730.906 24.0833 730.374 23.4714 729.999 22.6797C729.624 21.888 729.429 20.9688 729.414 19.9219V18.8594C729.414 17.7865 729.604 16.8411 729.984 16.0234C730.364 15.2057 730.908 14.5755 731.617 14.1328C732.33 13.6901 733.153 13.4688 734.085 13.4688C735.341 13.4688 736.351 13.8099 737.117 14.4922C737.882 15.1745 738.328 16.138 738.453 17.3828H736.484C736.39 16.5651 736.15 15.9766 735.765 15.6172C735.385 15.2526 734.825 15.0703 734.085 15.0703C733.226 15.0703 732.565 15.3854 732.101 16.0156C731.643 16.6406 731.408 17.5599 731.398 18.7734V19.7812C731.398 21.0104 731.617 21.9479 732.054 22.5938C732.497 23.2396 733.143 23.5625 733.992 23.5625C734.768 23.5625 735.351 23.388 735.742 23.0391C736.132 22.6901 736.38 22.1094 736.484 21.2969H738.453ZM742.203 23.4219H747.367V25H740.226V13.625H742.203V23.4219ZM757.015 13.625V21.2266C757.015 22.4349 756.627 23.3932 755.851 24.1016C755.08 24.8047 754.052 25.1562 752.765 25.1562C751.463 25.1562 750.429 24.8099 749.664 24.1172C748.898 23.4193 748.515 22.4531 748.515 21.2188V13.625H750.484V21.2344C750.484 21.9948 750.677 22.5755 751.062 22.9766C751.447 23.3776 752.015 23.5781 752.765 23.5781C754.286 23.5781 755.046 22.776 755.046 21.1719V13.625H757.015ZM759.132 25V13.625H763.031C764.317 13.625 765.296 13.8828 765.968 14.3984C766.64 14.9141 766.976 15.6823 766.976 16.7031C766.976 17.224 766.835 17.6927 766.554 18.1094C766.273 18.526 765.861 18.849 765.32 19.0781C765.934 19.2448 766.408 19.5599 766.742 20.0234C767.08 20.4818 767.249 21.0339 767.249 21.6797C767.249 22.7474 766.906 23.5677 766.218 24.1406C765.536 24.7135 764.557 25 763.281 25H759.132ZM761.109 19.8672V23.4219H763.304C763.924 23.4219 764.408 23.2682 764.757 22.9609C765.106 22.6536 765.281 22.2266 765.281 21.6797C765.281 20.4974 764.677 19.8932 763.468 19.8672H761.109ZM761.109 18.4141H763.046C763.661 18.4141 764.14 18.276 764.484 18C764.833 17.7188 765.007 17.3229 765.007 16.8125C765.007 16.25 764.846 15.8438 764.523 15.5938C764.205 15.3438 763.708 15.2188 763.031 15.2188H761.109V18.4141Z" fill="#FBFBFB"/>
<path d="M541.294 62.5039L545.747 53.9375H548.302L542.419 64.6367V71H540.169V64.6367L534.286 53.9375H536.864L541.294 62.5039ZM563.278 63.0195C563.278 64.6914 562.997 66.1523 562.435 67.4023C561.872 68.6445 561.075 69.5938 560.044 70.25C559.013 70.9062 557.81 71.2344 556.435 71.2344C555.091 71.2344 553.899 70.9062 552.86 70.25C551.821 69.5859 551.013 68.6445 550.435 67.4258C549.864 66.1992 549.571 64.7812 549.556 63.1719V61.9414C549.556 60.3008 549.841 58.8516 550.411 57.5938C550.982 56.3359 551.786 55.375 552.825 54.7109C553.872 54.0391 555.067 53.7031 556.411 53.7031C557.778 53.7031 558.982 54.0352 560.021 54.6992C561.067 55.3555 561.872 56.3125 562.435 57.5703C562.997 58.8203 563.278 60.2773 563.278 61.9414V63.0195ZM561.04 61.918C561.04 59.8945 560.634 58.3438 559.821 57.2656C559.009 56.1797 557.872 55.6367 556.411 55.6367C554.989 55.6367 553.868 56.1797 553.048 57.2656C552.235 58.3438 551.817 59.8438 551.794 61.7656V63.0195C551.794 64.9805 552.204 66.5234 553.024 67.6484C553.853 68.7656 554.989 69.3242 556.435 69.3242C557.888 69.3242 559.013 68.7969 559.81 67.7422C560.607 66.6797 561.017 65.1602 561.04 63.1836V61.918ZM578.665 53.9375V65.5391C578.657 67.1484 578.149 68.4648 577.142 69.4883C576.142 70.5117 574.782 71.0859 573.064 71.2109L572.466 71.2344C570.599 71.2344 569.11 70.7305 568.001 69.7227C566.892 68.7148 566.329 67.3281 566.314 65.5625V53.9375H568.54V65.4922C568.54 66.7266 568.88 67.6875 569.56 68.375C570.239 69.0547 571.208 69.3945 572.466 69.3945C573.739 69.3945 574.712 69.0547 575.384 68.375C576.064 67.6953 576.403 66.7383 576.403 65.5039V53.9375H578.665ZM588.474 64.0977H584.466V71H582.204V53.9375H587.853C589.774 53.9375 591.251 54.375 592.282 55.25C593.321 56.125 593.841 57.3984 593.841 59.0703C593.841 60.1328 593.552 61.0586 592.974 61.8477C592.403 62.6367 591.607 63.2266 590.583 63.6172L594.591 70.8594V71H592.177L588.474 64.0977ZM584.466 62.2578H587.923C589.04 62.2578 589.927 61.9688 590.583 61.3906C591.247 60.8125 591.579 60.0391 591.579 59.0703C591.579 58.0156 591.263 57.207 590.63 56.6445C590.005 56.082 589.099 55.7969 587.911 55.7891H584.466V62.2578ZM605.22 69.1602H613.306V71H602.958V53.9375H605.22V69.1602ZM628.224 63.0195C628.224 64.6914 627.942 66.1523 627.38 67.4023C626.817 68.6445 626.021 69.5938 624.989 70.25C623.958 70.9062 622.755 71.2344 621.38 71.2344C620.036 71.2344 618.845 70.9062 617.806 70.25C616.767 69.5859 615.958 68.6445 615.38 67.4258C614.81 66.1992 614.517 64.7812 614.501 63.1719V61.9414C614.501 60.3008 614.786 58.8516 615.357 57.5938C615.927 56.3359 616.732 55.375 617.771 54.7109C618.817 54.0391 620.013 53.7031 621.357 53.7031C622.724 53.7031 623.927 54.0352 624.966 54.6992C626.013 55.3555 626.817 56.3125 627.38 57.5703C627.942 58.8203 628.224 60.2773 628.224 61.9414V63.0195ZM625.985 61.918C625.985 59.8945 625.579 58.3438 624.767 57.2656C623.954 56.1797 622.817 55.6367 621.357 55.6367C619.935 55.6367 618.814 56.1797 617.993 57.2656C617.181 58.3438 616.763 59.8438 616.739 61.7656V63.0195C616.739 64.9805 617.149 66.5234 617.97 67.6484C618.798 68.7656 619.935 69.3242 621.38 69.3242C622.833 69.3242 623.958 68.7969 624.755 67.7422C625.552 66.6797 625.962 65.1602 625.985 63.1836V61.918ZM644.149 65.5859C643.939 67.3906 643.271 68.7852 642.146 69.7695C641.028 70.7461 639.54 71.2344 637.681 71.2344C635.665 71.2344 634.048 70.5117 632.829 69.0664C631.618 67.6211 631.013 65.6875 631.013 63.2656V61.625C631.013 60.0391 631.294 58.6445 631.857 57.4414C632.427 56.2383 633.232 55.3164 634.271 54.6758C635.31 54.0273 636.513 53.7031 637.88 53.7031C639.692 53.7031 641.146 54.2109 642.239 55.2266C643.333 56.2344 643.97 57.6328 644.149 59.4219H641.888C641.692 58.0625 641.267 57.0781 640.61 56.4688C639.962 55.8594 639.052 55.5547 637.88 55.5547C636.442 55.5547 635.314 56.0859 634.493 57.1484C633.681 58.2109 633.274 59.7227 633.274 61.6836V63.3359C633.274 65.1875 633.661 66.6602 634.435 67.7539C635.208 68.8477 636.29 69.3945 637.681 69.3945C638.931 69.3945 639.888 69.1133 640.552 68.5508C641.224 67.9805 641.669 66.9922 641.888 65.5859H644.149ZM656.653 66.5469H649.505L647.899 71H645.579L652.095 53.9375H654.064L660.591 71H658.282L656.653 66.5469ZM650.185 64.6953H655.985L653.079 56.7148L650.185 64.6953ZM665.149 69.1602H673.235V71H662.888V53.9375H665.149V69.1602ZM694.353 68.7617C693.774 69.5898 692.966 70.2109 691.927 70.625C690.896 71.0312 689.692 71.2344 688.317 71.2344C686.927 71.2344 685.692 70.9102 684.614 70.2617C683.536 69.6055 682.7 68.6758 682.107 67.4727C681.521 66.2695 681.22 64.875 681.204 63.2891V61.8008C681.204 59.2305 681.802 57.2383 682.997 55.8242C684.2 54.4102 685.888 53.7031 688.06 53.7031C689.841 53.7031 691.274 54.1602 692.36 55.0742C693.446 55.9805 694.11 57.2695 694.353 58.9414H692.103C691.681 56.6836 690.337 55.5547 688.071 55.5547C686.564 55.5547 685.419 56.0859 684.638 57.1484C683.864 58.2031 683.474 59.7344 683.466 61.7422V63.1367C683.466 65.0508 683.903 66.5742 684.778 67.707C685.653 68.832 686.837 69.3945 688.329 69.3945C689.173 69.3945 689.911 69.3008 690.544 69.1133C691.177 68.9258 691.7 68.6094 692.114 68.1641V64.332H688.165V62.5039H694.353V68.7617ZM703.317 62.5039L707.771 53.9375H710.325L704.442 64.6367V71H702.192V64.6367L696.31 53.9375H698.888L703.317 62.5039ZM715.435 53.9375L721.013 67.8594L726.591 53.9375H729.509V71H727.259V64.3555L727.47 57.1836L721.868 71H720.146L714.556 57.2188L714.778 64.3555V71H712.528V53.9375H715.435Z" fill="#FBFBFB"/>
<path d="M784.454 64.7539H781.653V71H778.138V53.9375H784.478C786.493 53.9375 788.048 54.3867 789.142 55.2852C790.235 56.1836 790.782 57.4531 790.782 59.0938C790.782 60.2578 790.528 61.2305 790.02 62.0117C789.52 62.7852 788.759 63.4023 787.735 63.8633L791.427 70.8359V71H787.653L784.454 64.7539ZM781.653 61.9062H784.489C785.372 61.9062 786.056 61.6836 786.54 61.2383C787.024 60.7852 787.267 60.1641 787.267 59.375C787.267 58.5703 787.036 57.9375 786.575 57.4766C786.122 57.0156 785.423 56.7852 784.478 56.7852H781.653V61.9062ZM803.099 67.4844H796.935L795.763 71H792.024L798.376 53.9375H801.634L808.02 71H804.282L803.099 67.4844ZM797.884 64.6367H802.149L800.005 58.25L797.884 64.6367ZM809.614 71V53.9375H815.591C817.661 53.9375 819.231 54.3359 820.302 55.1328C821.372 55.9219 821.907 57.082 821.907 58.6133C821.907 59.4492 821.692 60.1875 821.263 60.8281C820.833 61.4609 820.235 61.9258 819.47 62.2227C820.345 62.4414 821.032 62.8828 821.532 63.5469C822.04 64.2109 822.294 65.0234 822.294 65.9844C822.294 67.625 821.77 68.8672 820.724 69.7109C819.677 70.5547 818.185 70.9844 816.247 71H809.614ZM813.13 63.5703V68.1758H816.142C816.97 68.1758 817.614 67.9805 818.075 67.5898C818.544 67.1914 818.778 66.6445 818.778 65.9492C818.778 64.3867 817.97 63.5938 816.353 63.5703H813.13ZM813.13 61.0859H815.731C817.505 61.0547 818.392 60.3477 818.392 58.9648C818.392 58.1914 818.165 57.6367 817.712 57.3008C817.267 56.957 816.56 56.7852 815.591 56.7852H813.13V61.0859ZM834.575 67.4844H828.411L827.239 71H823.501L829.853 53.9375H833.11L839.497 71H835.759L834.575 67.4844ZM829.36 64.6367H833.626L831.481 58.25L829.36 64.6367ZM852.528 56.7852H847.302V71H843.786V56.7852H838.63V53.9375H852.528V56.7852Z" fill="#FBFBFB"/>
<path d="M758.577 48C752.76 48 748.055 52.695 748.055 58.5C748.055 66.375 758.577 78 758.577 78C758.577 78 769.099 66.375 769.099 58.5C769.099 52.695 764.394 48 758.577 48ZM758.577 62.25C756.503 62.25 754.819 60.57 754.819 58.5C754.819 56.43 756.503 54.75 758.577 54.75C760.651 54.75 762.335 56.43 762.335 58.5C762.335 60.57 760.651 62.25 758.577 62.25Z" fill="#FBFBFB"/>
<path d="M868.669 66.6865H864.731V69.3525H869.352V71H862.68V61.0469H869.339V62.708H864.731V65.0801H868.669V66.6865ZM870.555 71V61.0469H873.618C874.493 61.0469 875.274 61.2451 875.963 61.6416C876.655 62.0335 877.195 62.5941 877.583 63.3232C877.97 64.0479 878.164 64.8727 878.164 65.7979V66.2559C878.164 67.181 877.972 68.0036 877.59 68.7236C877.211 69.4437 876.676 70.002 875.983 70.3984C875.29 70.7949 874.509 70.9954 873.638 71H870.555ZM872.606 62.708V69.3525H873.597C874.399 69.3525 875.012 69.0905 875.436 68.5664C875.86 68.0423 876.077 67.2926 876.086 66.3174V65.791C876.086 64.7793 875.876 64.0137 875.457 63.4941C875.037 62.9701 874.425 62.708 873.618 62.708H872.606ZM881.842 71H879.791V61.0469H881.842V71ZM891.036 62.708H887.987V71H885.936V62.708H882.928V61.0469H891.036V62.708Z" fill="#FBFBFB"/>
<defs>
<linearGradient id="paint0_linear_71_104" x1="721.5" y1="103" x2="1443" y2="103" gradientUnits="userSpaceOnUse">
<stop stop-color="#FF5E0E"/>
<stop offset="1" stop-color="#FEB700"/>
</linearGradient>
</defs>
</svg>
