<svg width="100" height="100" viewBox="0 0 100 100" fill="none" xmlns="http://www.w3.org/2000/svg">
<rect width="100" height="100" fill="#FBFBFB"/>
<path d="M11 35H88V41L11 39V35Z" fill="#FF5E0E"/>
<path d="M11 45L88 47.5V52.5V54.5L11 52V45Z" fill="#FF5E0E"/>
<path d="M11 58L88 59.5V65H49.5H11V58Z" fill="#FF5E0E"/>
<path d="M22.1562 54.4844H15.9922L14.8203 58H11.082L17.4336 40.9375H20.6914L27.0781 58H23.3398L22.1562 54.4844ZM16.9414 51.6367H21.207L19.0625 45.25L16.9414 51.6367ZM32.0234 58H28.625V40H32.0234V58ZM38.8789 42.2031V45.3203H41.0469V47.8047H38.8789V54.1328C38.8789 54.6016 38.9688 54.9375 39.1484 55.1406C39.3281 55.3438 39.6719 55.4453 40.1797 55.4453C40.5547 55.4453 40.8867 55.418 41.1758 55.3633V57.9297C40.5117 58.1328 39.8281 58.2344 39.125 58.2344C36.75 58.2344 35.5391 57.0352 35.4922 54.6367V47.8047H33.6406V45.3203H35.4922V42.2031H38.8789ZM46.5898 58H43.2031V45.3203H46.5898V58ZM45.5938 40.1758H49.2852L46.0391 43.8086H43.2852L45.5938 40.1758ZM56.6445 48.4961C56.1836 48.4336 55.7773 48.4023 55.4258 48.4023C54.1445 48.4023 53.3047 48.8359 52.9062 49.7031V58H49.5195V45.3203H52.7188L52.8125 46.832C53.4922 45.668 54.4336 45.0859 55.6367 45.0859C56.0117 45.0859 56.3633 45.1367 56.6914 45.2383L56.6445 48.4961ZM65.2812 58C65.125 57.6953 65.0117 57.3164 64.9414 56.8633C64.1211 57.7773 63.0547 58.2344 61.7422 58.2344C60.5 58.2344 59.4688 57.875 58.6484 57.1562C57.8359 56.4375 57.4297 55.5312 57.4297 54.4375C57.4297 53.0938 57.9258 52.0625 58.918 51.3438C59.918 50.625 61.3594 50.2617 63.2422 50.2539H64.8008V49.5273C64.8008 48.9414 64.6484 48.4727 64.3438 48.1211C64.0469 47.7695 63.5742 47.5938 62.9258 47.5938C62.3555 47.5938 61.9062 47.7305 61.5781 48.0039C61.2578 48.2773 61.0977 48.6523 61.0977 49.1289H57.7109C57.7109 48.3945 57.9375 47.7148 58.3906 47.0898C58.8438 46.4648 59.4844 45.9766 60.3125 45.625C61.1406 45.2656 62.0703 45.0859 63.1016 45.0859C64.6641 45.0859 65.9023 45.4805 66.8164 46.2695C67.7383 47.0508 68.1992 48.1523 68.1992 49.5742V55.0703C68.207 56.2734 68.375 57.1836 68.7031 57.8008V58H65.2812ZM62.4805 55.6445C62.9805 55.6445 63.4414 55.5352 63.8633 55.3164C64.2852 55.0898 64.5977 54.7891 64.8008 54.4141V52.2344H63.5352C61.8398 52.2344 60.9375 52.8203 60.8281 53.9922L60.8164 54.1914C60.8164 54.6133 60.9648 54.9609 61.2617 55.2344C61.5586 55.5078 61.9648 55.6445 62.4805 55.6445ZM74.375 58H70.9766V40H74.375V58ZM77.3516 56.3359C77.3516 55.7969 77.5312 55.3594 77.8906 55.0234C78.2578 54.6875 78.7148 54.5195 79.2617 54.5195C79.8164 54.5195 80.2734 54.6875 80.6328 55.0234C81 55.3594 81.1836 55.7969 81.1836 56.3359C81.1836 56.8672 81.0039 57.3008 80.6445 57.6367C80.2852 57.9648 79.8242 58.1289 79.2617 58.1289C78.707 58.1289 78.25 57.9648 77.8906 57.6367C77.5312 57.3008 77.3516 56.8672 77.3516 56.3359Z" fill="#1F1F1F"/>
<path d="M32 45.5L71 47V54L32 52.5092V45.5Z" fill="#FF5E0E"/>
<path d="M11.8894 86.8343C12.6897 84.265 14.7632 82.1355 16.2469 79.9446C17.0238 78.7975 17.7993 77.6565 18.6212 76.541C18.7541 76.3607 19.2536 75.3301 19.4516 75.9371C20.5585 79.3316 20.9045 82.9978 21.771 86.4637" stroke="#FBFBFB" stroke-width="3" stroke-linecap="round"/>
<path d="M11.7659 80.7818C15.606 80.8227 19.5134 81.3626 23.2807 82.0856C23.6235 82.1514 24.0245 82.2641 24.3649 82.2641" stroke="#FBFBFB" stroke-width="3" stroke-linecap="round"/>
<path d="M30.5408 75.347C30.5408 78.0225 30.2356 80.585 29.7997 83.2248C29.6053 84.4018 29.3549 85.5654 29.1409 86.7382C29.0872 87.0329 28.9969 87.4387 29.0654 87.747C29.1109 87.9514 30.4752 87.8225 30.5957 87.8225C32.2655 87.8225 33.9353 87.8225 35.6051 87.8225" stroke="#FBFBFB" stroke-width="3" stroke-linecap="round"/>
<path d="M40.1754 87.3284C40.7785 85.2979 42.1386 83.5182 42.5703 81.4612C42.9094 79.8454 43.2831 78.1799 43.483 76.541C43.6244 75.3812 43.634 76.6312 43.634 77.1174C43.634 79.4231 43.634 81.7288 43.634 84.0345C43.634 84.5781 43.7021 85.0175 43.8192 85.5511C43.8869 85.8593 44.584 87.4765 44.0183 87.3009C43.8427 87.2464 44.9908 86.8623 44.9927 86.8617C45.6908 86.657 46.4262 86.4907 47.0513 86.1C47.5031 85.8177 47.3396 85.1987 47.3396 84.7344" stroke="#FBFBFB" stroke-width="3" stroke-linecap="round"/>
<path d="M44.0045 79.6701C46.971 79.3234 49.5011 77.56 52.4039 77.0762" stroke="#FBFBFB" stroke-width="3" stroke-linecap="round"/>
<path d="M56.3564 85.2285C56.2427 86.2524 56.2329 89.3467 56.2329 88.3165" stroke="#FBFBFB" stroke-width="3" stroke-linecap="round"/>
<path d="M57.0976 79.2996C57.0976 79.6867 57.3449 82.4976 56.4663 81.619C56.2099 81.3626 54.9482 79.6332 55.6154 79.2996" stroke="#FBFBFB" stroke-width="3" stroke-linecap="round"/>
<path d="M62.5325 88.6871C63.4789 87.198 64.6345 85.5487 65.044 83.8012C65.0868 83.6187 64.9942 82.2662 65.1538 82.168C65.2978 82.0794 65.9631 82.3875 66.0596 82.415C66.7308 82.6061 67.4118 82.7658 68.1046 82.8542C68.8982 82.9555 68.9022 83.241 68.8114 84.0276C68.6659 85.2882 67.6926 86.4792 68.1526 87.7058C68.5199 88.6851 68.8818 89.0078 69.5731 88.3165" stroke="#FBFBFB" stroke-width="3" stroke-linecap="round"/>
<path d="M77.4784 81.5229C79.2482 82.7482 79.984 84.6371 80.8752 86.5186C80.9994 86.7808 80.9515 87.5472 81.1566 87.3421C81.4145 87.0842 80.363 85.8998 80.2233 85.654C80.0572 85.3618 79.88 85.1673 79.5302 85.2697C78.7729 85.4914 77.3253 85.7343 76.8059 86.402C76.2851 87.0716 76.4655 87.8973 76.9912 88.5018C77.7578 89.3834 79.811 89.763 80.786 89.0577C81.2191 88.7444 80.9033 87.5541 81.2595 88.3852C81.8133 89.6775 83.1668 89.9158 84.1485 88.9341" stroke="#FBFBFB" stroke-width="3" stroke-linecap="round"/>
<path d="M89.4598 76.9527C89.4598 79.7044 89.4598 82.4562 89.4598 85.2079C89.4598 86.7451 89.4598 88.2822 89.4598 89.8193C89.4598 90.265 89.2126 91.3224 89.9128 91.2741C91.6593 91.1537 93.3897 90.7869 95.1418 90.7869" stroke="#FBFBFB" stroke-width="3" stroke-linecap="round"/>
</svg>
