<svg width="558" height="122" viewBox="0 0 558 122" fill="none" xmlns="http://www.w3.org/2000/svg">
<path d="M147.469 62.2188C147.469 64.4479 147.083 66.4062 146.312 68.0938C145.542 69.7708 144.438 71.0625 143 71.9688C141.573 72.8646 139.927 73.3125 138.062 73.3125C136.219 73.3125 134.573 72.8646 133.125 71.9688C131.688 71.0625 130.573 69.776 129.781 68.1094C129 66.4427 128.604 64.5208 128.594 62.3438V61.0625C128.594 58.8438 128.984 56.8854 129.766 55.1875C130.557 53.4896 131.667 52.1927 133.094 51.2969C134.531 50.3906 136.177 49.9375 138.031 49.9375C139.885 49.9375 141.526 50.3854 142.953 51.2812C144.391 52.1667 145.5 53.4479 146.281 55.125C147.062 56.7917 147.458 58.7344 147.469 60.9531V62.2188ZM143.516 61.0312C143.516 58.5104 143.036 56.5781 142.078 55.2344C141.13 53.8906 139.781 53.2188 138.031 53.2188C136.323 53.2188 134.984 53.8906 134.016 55.2344C133.057 56.5677 132.568 58.4583 132.547 60.9062V62.2188C132.547 64.7188 133.031 66.651 134 68.0156C134.979 69.3802 136.333 70.0625 138.062 70.0625C139.812 70.0625 141.156 69.3958 142.094 68.0625C143.042 66.7292 143.516 64.7812 143.516 62.2188V61.0312ZM161.281 71.3438C160.167 72.6562 158.583 73.3125 156.531 73.3125C154.698 73.3125 153.307 72.776 152.359 71.7031C151.422 70.6302 150.953 69.0781 150.953 67.0469V56.0938H154.75V67C154.75 69.1458 155.641 70.2188 157.422 70.2188C159.266 70.2188 160.51 69.5573 161.156 68.2344V56.0938H164.953V73H161.375L161.281 71.3438ZM177.672 59.5625C177.172 59.4792 176.656 59.4375 176.125 59.4375C174.385 59.4375 173.214 60.1042 172.609 61.4375V73H168.812V56.0938H172.438L172.531 57.9844C173.448 56.5156 174.719 55.7812 176.344 55.7812C176.885 55.7812 177.333 55.8542 177.688 56L177.672 59.5625ZM205.844 70.0469C205.021 71.1198 203.88 71.9323 202.422 72.4844C200.964 73.0365 199.307 73.3125 197.453 73.3125C195.547 73.3125 193.859 72.8802 192.391 72.0156C190.922 71.151 189.786 69.9167 188.984 68.3125C188.193 66.6979 187.781 64.8177 187.75 62.6719V60.8906C187.75 57.4531 188.573 54.7708 190.219 52.8438C191.865 50.9062 194.161 49.9375 197.109 49.9375C199.641 49.9375 201.651 50.5625 203.141 51.8125C204.63 53.0625 205.526 54.8646 205.828 57.2188H201.953C201.516 54.4792 199.927 53.1094 197.188 53.1094C195.417 53.1094 194.068 53.75 193.141 55.0312C192.224 56.3021 191.75 58.1719 191.719 60.6406V62.3906C191.719 64.849 192.234 66.7604 193.266 68.125C194.307 69.4792 195.75 70.1562 197.594 70.1562C199.615 70.1562 201.052 69.6979 201.906 68.7812V64.3281H197.219V61.3281H205.844V70.0469ZM215.734 67.5625L219.172 56.0938H223.219L216.5 75.5625C215.469 78.4062 213.719 79.8281 211.25 79.8281C210.698 79.8281 210.089 79.7344 209.422 79.5469V76.6094L210.141 76.6562C211.099 76.6562 211.818 76.4792 212.297 76.125C212.786 75.7812 213.172 75.1979 213.453 74.375L214 72.9219L208.062 56.0938H212.156L215.734 67.5625ZM228.984 56.0938L229.094 57.8594C230.281 56.474 231.906 55.7812 233.969 55.7812C236.229 55.7812 237.776 56.6458 238.609 58.375C239.839 56.6458 241.568 55.7812 243.797 55.7812C245.661 55.7812 247.047 56.2969 247.953 57.3281C248.87 58.3594 249.339 59.8802 249.359 61.8906V73H245.562V62C245.562 60.9271 245.328 60.1406 244.859 59.6406C244.391 59.1406 243.615 58.8906 242.531 58.8906C241.667 58.8906 240.958 59.125 240.406 59.5938C239.865 60.0521 239.484 60.6562 239.266 61.4062L239.281 73H235.484V61.875C235.432 59.8854 234.417 58.8906 232.438 58.8906C230.917 58.8906 229.839 59.5104 229.203 60.75V73H225.406V56.0938H228.984ZM265.266 73H261.469V56.0938H265.266V73ZM261.234 51.7031C261.234 51.1198 261.417 50.6354 261.781 50.25C262.156 49.8646 262.688 49.6719 263.375 49.6719C264.062 49.6719 264.594 49.8646 264.969 50.25C265.344 50.6354 265.531 51.1198 265.531 51.7031C265.531 52.276 265.344 52.7552 264.969 53.1406C264.594 53.5156 264.062 53.7031 263.375 53.7031C262.688 53.7031 262.156 53.5156 261.781 53.1406C261.417 52.7552 261.234 52.276 261.234 51.7031ZM278.891 68.4062C278.891 67.7292 278.609 67.2135 278.047 66.8594C277.495 66.5052 276.573 66.1927 275.281 65.9219C273.99 65.651 272.911 65.3073 272.047 64.8906C270.151 63.974 269.203 62.6458 269.203 60.9062C269.203 59.4479 269.818 58.2292 271.047 57.25C272.276 56.2708 273.839 55.7812 275.734 55.7812C277.755 55.7812 279.385 56.2812 280.625 57.2812C281.875 58.2812 282.5 59.5781 282.5 61.1719H278.703C278.703 60.4427 278.432 59.8385 277.891 59.3594C277.349 58.8698 276.63 58.625 275.734 58.625C274.901 58.625 274.219 58.8177 273.688 59.2031C273.167 59.5885 272.906 60.1042 272.906 60.75C272.906 61.3333 273.151 61.7865 273.641 62.1094C274.13 62.4323 275.12 62.7604 276.609 63.0938C278.099 63.4167 279.266 63.8073 280.109 64.2656C280.964 64.7135 281.594 65.2552 282 65.8906C282.417 66.526 282.625 67.2969 282.625 68.2031C282.625 69.724 281.995 70.9583 280.734 71.9062C279.474 72.8438 277.823 73.3125 275.781 73.3125C274.396 73.3125 273.161 73.0625 272.078 72.5625C270.995 72.0625 270.151 71.375 269.547 70.5C268.943 69.625 268.641 68.6823 268.641 67.6719H272.328C272.38 68.5677 272.719 69.2604 273.344 69.75C273.969 70.2292 274.797 70.4688 275.828 70.4688C276.828 70.4688 277.589 70.2812 278.109 69.9062C278.63 69.5208 278.891 69.0208 278.891 68.4062ZM301.703 61.0312L306.938 50.25H311.312L303.688 64.625V73H299.719V64.625L292.078 50.25H296.469L301.703 61.0312ZM311.672 64.3906C311.672 62.7344 312 61.2448 312.656 59.9219C313.312 58.5885 314.234 57.5677 315.422 56.8594C316.609 56.1406 317.974 55.7812 319.516 55.7812C321.797 55.7812 323.646 56.5156 325.062 57.9844C326.49 59.4531 327.26 61.401 327.375 63.8281L327.391 64.7188C327.391 66.3854 327.068 67.875 326.422 69.1875C325.786 70.5 324.87 71.5156 323.672 72.2344C322.484 72.9531 321.109 73.3125 319.547 73.3125C317.161 73.3125 315.25 72.5208 313.812 70.9375C312.385 69.3438 311.672 67.224 311.672 64.5781V64.3906ZM315.469 64.7188C315.469 66.4583 315.828 67.8229 316.547 68.8125C317.266 69.7917 318.266 70.2812 319.547 70.2812C320.828 70.2812 321.823 69.7812 322.531 68.7812C323.25 67.7812 323.609 66.3177 323.609 64.3906C323.609 62.6823 323.24 61.3281 322.5 60.3281C321.771 59.3281 320.776 58.8281 319.516 58.8281C318.276 58.8281 317.292 59.3229 316.562 60.3125C315.833 61.2917 315.469 62.7604 315.469 64.7188ZM340.844 71.3438C339.729 72.6562 338.146 73.3125 336.094 73.3125C334.26 73.3125 332.87 72.776 331.922 71.7031C330.984 70.6302 330.516 69.0781 330.516 67.0469V56.0938H334.312V67C334.312 69.1458 335.203 70.2188 336.984 70.2188C338.828 70.2188 340.073 69.5573 340.719 68.2344V56.0938H344.516V73H340.938L340.844 71.3438ZM357.234 59.5625C356.734 59.4792 356.219 59.4375 355.688 59.4375C353.948 59.4375 352.776 60.1042 352.172 61.4375V73H348.375V56.0938H352L352.094 57.9844C353.01 56.5156 354.281 55.7812 355.906 55.7812C356.448 55.7812 356.896 55.8542 357.25 56L357.234 59.5625ZM385.406 70.0469C384.583 71.1198 383.443 71.9323 381.984 72.4844C380.526 73.0365 378.87 73.3125 377.016 73.3125C375.109 73.3125 373.422 72.8802 371.953 72.0156C370.484 71.151 369.349 69.9167 368.547 68.3125C367.755 66.6979 367.344 64.8177 367.312 62.6719V60.8906C367.312 57.4531 368.135 54.7708 369.781 52.8438C371.427 50.9062 373.724 49.9375 376.672 49.9375C379.203 49.9375 381.214 50.5625 382.703 51.8125C384.193 53.0625 385.089 54.8646 385.391 57.2188H381.516C381.078 54.4792 379.49 53.1094 376.75 53.1094C374.979 53.1094 373.63 53.75 372.703 55.0312C371.786 56.3021 371.312 58.1719 371.281 60.6406V62.3906C371.281 64.849 371.797 66.7604 372.828 68.125C373.87 69.4792 375.312 70.1562 377.156 70.1562C379.177 70.1562 380.615 69.6979 381.469 68.7812V64.3281H376.781V61.3281H385.406V70.0469ZM395.297 67.5625L398.734 56.0938H402.781L396.062 75.5625C395.031 78.4062 393.281 79.8281 390.812 79.8281C390.26 79.8281 389.651 79.7344 388.984 79.5469V76.6094L389.703 76.6562C390.661 76.6562 391.38 76.4792 391.859 76.125C392.349 75.7812 392.734 75.1979 393.016 74.375L393.562 72.9219L387.625 56.0938H391.719L395.297 67.5625ZM408.547 56.0938L408.656 57.8594C409.844 56.474 411.469 55.7812 413.531 55.7812C415.792 55.7812 417.339 56.6458 418.172 58.375C419.401 56.6458 421.13 55.7812 423.359 55.7812C425.224 55.7812 426.609 56.2969 427.516 57.3281C428.432 58.3594 428.901 59.8802 428.922 61.8906V73H425.125V62C425.125 60.9271 424.891 60.1406 424.422 59.6406C423.953 59.1406 423.177 58.8906 422.094 58.8906C421.229 58.8906 420.521 59.125 419.969 59.5938C419.427 60.0521 419.047 60.6562 418.828 61.4062L418.844 73H415.047V61.875C414.995 59.8854 413.979 58.8906 412 58.8906C410.479 58.8906 409.401 59.5104 408.766 60.75V73H404.969V56.0938H408.547Z" fill="#1F1F1F"/>
<path d="M4.42188 113.086L3.13281 114.453V118H1.15625V106.625H3.13281V111.961L4.22656 110.609L7.55469 106.625H9.94531L5.71875 111.664L10.1875 118H7.84375L4.42188 113.086ZM13.0859 118H11.1875V109.547H13.0859V118ZM11.0703 107.352C11.0703 107.06 11.1615 106.818 11.3438 106.625C11.5312 106.432 11.7969 106.336 12.1406 106.336C12.4844 106.336 12.75 106.432 12.9375 106.625C13.125 106.818 13.2188 107.06 13.2188 107.352C13.2188 107.638 13.125 107.878 12.9375 108.07C12.75 108.258 12.4844 108.352 12.1406 108.352C11.7969 108.352 11.5312 108.258 11.3438 108.07C11.1615 107.878 11.0703 107.638 11.0703 107.352ZM18.6328 116.641C19.1068 116.641 19.5 116.503 19.8125 116.227C20.125 115.951 20.2917 115.609 20.3125 115.203H22.1016C22.0807 115.729 21.9167 116.221 21.6094 116.68C21.3021 117.133 20.8854 117.492 20.3594 117.758C19.8333 118.023 19.2656 118.156 18.6562 118.156C17.474 118.156 16.5365 117.773 15.8438 117.008C15.151 116.242 14.8047 115.185 14.8047 113.836V113.641C14.8047 112.354 15.1484 111.326 15.8359 110.555C16.5234 109.779 17.4609 109.391 18.6484 109.391C19.6536 109.391 20.4714 109.685 21.1016 110.273C21.737 110.857 22.0703 111.625 22.1016 112.578H20.3125C20.2917 112.094 20.125 111.695 19.8125 111.383C19.5052 111.07 19.112 110.914 18.6328 110.914C18.0182 110.914 17.5443 111.138 17.2109 111.586C16.8776 112.029 16.7083 112.703 16.7031 113.609V113.914C16.7031 114.831 16.8672 115.516 17.1953 115.969C17.5286 116.417 18.0078 116.641 18.6328 116.641ZM26.2812 114.375L25.4375 115.242V118H23.5391V106H25.4375V112.922L26.0312 112.18L28.3672 109.547H30.6484L27.5078 113.07L30.9844 118H28.7891L26.2812 114.375ZM38.8359 115.281L40.5547 109.547H42.5781L39.2188 119.281C38.7031 120.703 37.8281 121.414 36.5938 121.414C36.3177 121.414 36.013 121.367 35.6797 121.273V119.805L36.0391 119.828C36.5182 119.828 36.8776 119.74 37.1172 119.562C37.362 119.391 37.5547 119.099 37.6953 118.688L37.9688 117.961L35 109.547H37.0469L38.8359 115.281ZM43.1953 113.695C43.1953 112.867 43.3594 112.122 43.6875 111.461C44.0156 110.794 44.4766 110.284 45.0703 109.93C45.6641 109.57 46.3464 109.391 47.1172 109.391C48.2578 109.391 49.1823 109.758 49.8906 110.492C50.6042 111.227 50.9896 112.201 51.0469 113.414L51.0547 113.859C51.0547 114.693 50.8932 115.438 50.5703 116.094C50.2526 116.75 49.7943 117.258 49.1953 117.617C48.6016 117.977 47.9141 118.156 47.1328 118.156C45.9401 118.156 44.9844 117.76 44.2656 116.969C43.5521 116.172 43.1953 115.112 43.1953 113.789V113.695ZM45.0938 113.859C45.0938 114.729 45.2734 115.411 45.6328 115.906C45.9922 116.396 46.4922 116.641 47.1328 116.641C47.7734 116.641 48.2708 116.391 48.625 115.891C48.9844 115.391 49.1641 114.659 49.1641 113.695C49.1641 112.841 48.9792 112.164 48.6094 111.664C48.2448 111.164 47.7474 110.914 47.1172 110.914C46.4974 110.914 46.0052 111.161 45.6406 111.656C45.276 112.146 45.0938 112.88 45.0938 113.859ZM57.7812 117.172C57.224 117.828 56.4323 118.156 55.4062 118.156C54.4896 118.156 53.7943 117.888 53.3203 117.352C52.8516 116.815 52.6172 116.039 52.6172 115.023V109.547H54.5156V115C54.5156 116.073 54.9609 116.609 55.8516 116.609C56.7734 116.609 57.3958 116.279 57.7188 115.617V109.547H59.6172V118H57.8281L57.7812 117.172ZM65.9766 111.281C65.7266 111.24 65.4688 111.219 65.2031 111.219C64.3333 111.219 63.7474 111.552 63.4453 112.219V118H61.5469V109.547H63.3594L63.4062 110.492C63.8646 109.758 64.5 109.391 65.3125 109.391C65.5833 109.391 65.8073 109.427 65.9844 109.5L65.9766 111.281ZM71.8281 118V110.953H70.5391V109.547H71.8281V108.773C71.8281 107.836 72.0885 107.112 72.6094 106.602C73.1302 106.091 73.8594 105.836 74.7969 105.836C75.1302 105.836 75.4844 105.883 75.8594 105.977L75.8125 107.461C75.6042 107.419 75.362 107.398 75.0859 107.398C74.1797 107.398 73.7266 107.865 73.7266 108.797V109.547H75.4453V110.953H73.7266V118H71.8281ZM80.3672 118.156C79.1641 118.156 78.1875 117.779 77.4375 117.023C76.6927 116.263 76.3203 115.253 76.3203 113.992V113.758C76.3203 112.914 76.4818 112.161 76.8047 111.5C77.1328 110.833 77.5911 110.315 78.1797 109.945C78.7682 109.576 79.4245 109.391 80.1484 109.391C81.2995 109.391 82.1875 109.758 82.8125 110.492C83.4427 111.227 83.7578 112.266 83.7578 113.609V114.375H78.2344C78.2917 115.073 78.5234 115.625 78.9297 116.031C79.3411 116.438 79.8568 116.641 80.4766 116.641C81.3464 116.641 82.0547 116.289 82.6016 115.586L83.625 116.562C83.2865 117.068 82.8333 117.461 82.2656 117.742C81.7031 118.018 81.0703 118.156 80.3672 118.156ZM80.1406 110.914C79.6198 110.914 79.1979 111.096 78.875 111.461C78.5573 111.826 78.3542 112.333 78.2656 112.984H81.8828V112.844C81.8411 112.208 81.6719 111.729 81.375 111.406C81.0781 111.078 80.6667 110.914 80.1406 110.914ZM88.9609 118.156C87.7578 118.156 86.7812 117.779 86.0312 117.023C85.2865 116.263 84.9141 115.253 84.9141 113.992V113.758C84.9141 112.914 85.0755 112.161 85.3984 111.5C85.7266 110.833 86.1849 110.315 86.7734 109.945C87.362 109.576 88.0182 109.391 88.7422 109.391C89.8932 109.391 90.7812 109.758 91.4062 110.492C92.0365 111.227 92.3516 112.266 92.3516 113.609V114.375H86.8281C86.8854 115.073 87.1172 115.625 87.5234 116.031C87.9349 116.438 88.4505 116.641 89.0703 116.641C89.9401 116.641 90.6484 116.289 91.1953 115.586L92.2188 116.562C91.8802 117.068 91.4271 117.461 90.8594 117.742C90.2969 118.018 89.6641 118.156 88.9609 118.156ZM88.7344 110.914C88.2135 110.914 87.7917 111.096 87.4688 111.461C87.151 111.826 86.9479 112.333 86.8594 112.984H90.4766V112.844C90.4349 112.208 90.2656 111.729 89.9688 111.406C89.6719 111.078 89.2604 110.914 88.7344 110.914ZM96.2109 107.492V109.547H97.7031V110.953H96.2109V115.672C96.2109 115.995 96.2734 116.229 96.3984 116.375C96.5286 116.516 96.7578 116.586 97.0859 116.586C97.3047 116.586 97.526 116.56 97.75 116.508V117.977C97.3177 118.096 96.901 118.156 96.5 118.156C95.0417 118.156 94.3125 117.352 94.3125 115.742V110.953H92.9219V109.547H94.3125V107.492H96.2109ZM108.266 117.172C107.708 117.828 106.917 118.156 105.891 118.156C104.974 118.156 104.279 117.888 103.805 117.352C103.336 116.815 103.102 116.039 103.102 115.023V109.547H105V115C105 116.073 105.445 116.609 106.336 116.609C107.258 116.609 107.88 116.279 108.203 115.617V109.547H110.102V118H108.312L108.266 117.172ZM119.438 113.859C119.438 115.167 119.141 116.211 118.547 116.992C117.953 117.768 117.156 118.156 116.156 118.156C115.229 118.156 114.487 117.852 113.93 117.242V121.25H112.031V109.547H113.781L113.859 110.406C114.417 109.729 115.174 109.391 116.133 109.391C117.164 109.391 117.971 109.776 118.555 110.547C119.143 111.312 119.438 112.378 119.438 113.742V113.859ZM117.547 113.695C117.547 112.852 117.378 112.182 117.039 111.688C116.706 111.193 116.227 110.945 115.602 110.945C114.826 110.945 114.268 111.266 113.93 111.906V115.656C114.273 116.312 114.836 116.641 115.617 116.641C116.221 116.641 116.693 116.398 117.031 115.914C117.375 115.424 117.547 114.685 117.547 113.695ZM123.062 114.648H121.43L121.25 106.625H123.25L123.062 114.648ZM121.195 117.102C121.195 116.805 121.292 116.56 121.484 116.367C121.677 116.169 121.94 116.07 122.273 116.07C122.607 116.07 122.87 116.169 123.062 116.367C123.255 116.56 123.352 116.805 123.352 117.102C123.352 117.388 123.258 117.628 123.07 117.82C122.883 118.013 122.617 118.109 122.273 118.109C121.93 118.109 121.664 118.013 121.477 117.82C121.289 117.628 121.195 117.388 121.195 117.102ZM138.438 115.188L140.188 106.625H142.148L139.523 118H137.633L135.469 109.695L133.258 118H131.359L128.734 106.625H130.695L132.461 115.172L134.633 106.625H136.289L138.438 115.188ZM145.43 118H143.531V109.547H145.43V118ZM143.414 107.352C143.414 107.06 143.505 106.818 143.688 106.625C143.875 106.432 144.141 106.336 144.484 106.336C144.828 106.336 145.094 106.432 145.281 106.625C145.469 106.818 145.562 107.06 145.562 107.352C145.562 107.638 145.469 107.878 145.281 108.07C145.094 108.258 144.828 108.352 144.484 108.352C144.141 108.352 143.875 108.258 143.688 108.07C143.505 107.878 143.414 107.638 143.414 107.352ZM149.883 107.492V109.547H151.375V110.953H149.883V115.672C149.883 115.995 149.945 116.229 150.07 116.375C150.201 116.516 150.43 116.586 150.758 116.586C150.977 116.586 151.198 116.56 151.422 116.508V117.977C150.99 118.096 150.573 118.156 150.172 118.156C148.714 118.156 147.984 117.352 147.984 115.742V110.953H146.594V109.547H147.984V107.492H149.883ZM154.703 110.469C155.323 109.75 156.107 109.391 157.055 109.391C158.857 109.391 159.771 110.419 159.797 112.477V118H157.898V112.547C157.898 111.964 157.771 111.552 157.516 111.312C157.266 111.068 156.896 110.945 156.406 110.945C155.646 110.945 155.078 111.284 154.703 111.961V118H152.805V106H154.703V110.469ZM170.758 118C170.674 117.839 170.602 117.576 170.539 117.211C169.935 117.841 169.195 118.156 168.32 118.156C167.471 118.156 166.779 117.914 166.242 117.43C165.706 116.945 165.438 116.346 165.438 115.633C165.438 114.732 165.771 114.042 166.438 113.562C167.109 113.078 168.068 112.836 169.312 112.836H170.477V112.281C170.477 111.844 170.354 111.495 170.109 111.234C169.865 110.969 169.492 110.836 168.992 110.836C168.56 110.836 168.206 110.945 167.93 111.164C167.654 111.378 167.516 111.651 167.516 111.984H165.617C165.617 111.521 165.771 111.089 166.078 110.688C166.385 110.281 166.802 109.964 167.328 109.734C167.859 109.505 168.451 109.391 169.102 109.391C170.091 109.391 170.88 109.641 171.469 110.141C172.057 110.635 172.359 111.333 172.375 112.234V116.047C172.375 116.807 172.482 117.414 172.695 117.867V118H170.758ZM168.672 116.633C169.047 116.633 169.398 116.542 169.727 116.359C170.06 116.177 170.31 115.932 170.477 115.625V114.031H169.453C168.75 114.031 168.221 114.154 167.867 114.398C167.513 114.643 167.336 114.99 167.336 115.438C167.336 115.802 167.456 116.094 167.695 116.312C167.94 116.526 168.266 116.633 168.672 116.633ZM178.016 113.711C178.016 112.398 178.323 111.352 178.938 110.57C179.557 109.784 180.378 109.391 181.398 109.391C182.362 109.391 183.12 109.727 183.672 110.398L183.758 109.547H185.469V117.742C185.469 118.852 185.122 119.727 184.43 120.367C183.742 121.008 182.812 121.328 181.641 121.328C181.021 121.328 180.414 121.198 179.82 120.938C179.232 120.682 178.784 120.346 178.477 119.93L179.375 118.789C179.958 119.482 180.677 119.828 181.531 119.828C182.161 119.828 182.659 119.656 183.023 119.312C183.388 118.974 183.57 118.474 183.57 117.812V117.242C183.023 117.852 182.294 118.156 181.383 118.156C180.393 118.156 179.583 117.763 178.953 116.977C178.328 116.19 178.016 115.102 178.016 113.711ZM179.906 113.875C179.906 114.724 180.078 115.393 180.422 115.883C180.771 116.367 181.253 116.609 181.867 116.609C182.633 116.609 183.201 116.281 183.57 115.625V111.906C183.211 111.266 182.648 110.945 181.883 110.945C181.258 110.945 180.771 111.193 180.422 111.688C180.078 112.182 179.906 112.911 179.906 113.875ZM190.383 115.281L192.102 109.547H194.125L190.766 119.281C190.25 120.703 189.375 121.414 188.141 121.414C187.865 121.414 187.56 121.367 187.227 121.273V119.805L187.586 119.828C188.065 119.828 188.424 119.74 188.664 119.562C188.909 119.391 189.102 119.099 189.242 118.688L189.516 117.961L186.547 109.547H188.594L190.383 115.281ZM197.008 109.547L197.062 110.43C197.656 109.737 198.469 109.391 199.5 109.391C200.63 109.391 201.404 109.823 201.82 110.688C202.435 109.823 203.299 109.391 204.414 109.391C205.346 109.391 206.039 109.648 206.492 110.164C206.951 110.68 207.185 111.44 207.195 112.445V118H205.297V112.5C205.297 111.964 205.18 111.57 204.945 111.32C204.711 111.07 204.323 110.945 203.781 110.945C203.349 110.945 202.995 111.062 202.719 111.297C202.448 111.526 202.258 111.828 202.148 112.203L202.156 118H200.258V112.438C200.232 111.443 199.724 110.945 198.734 110.945C197.974 110.945 197.435 111.255 197.117 111.875V118H195.219V109.547H197.008ZM212.773 113.711C212.773 112.409 213.076 111.365 213.68 110.578C214.284 109.786 215.094 109.391 216.109 109.391C217.005 109.391 217.729 109.703 218.281 110.328V106H220.18V118H218.461L218.367 117.125C217.799 117.812 217.042 118.156 216.094 118.156C215.104 118.156 214.302 117.758 213.688 116.961C213.078 116.164 212.773 115.081 212.773 113.711ZM214.672 113.875C214.672 114.734 214.836 115.406 215.164 115.891C215.497 116.37 215.969 116.609 216.578 116.609C217.354 116.609 217.922 116.263 218.281 115.57V111.961C217.932 111.284 217.37 110.945 216.594 110.945C215.979 110.945 215.505 111.19 215.172 111.68C214.839 112.164 214.672 112.896 214.672 113.875ZM225.883 118.156C224.68 118.156 223.703 117.779 222.953 117.023C222.208 116.263 221.836 115.253 221.836 113.992V113.758C221.836 112.914 221.997 112.161 222.32 111.5C222.648 110.833 223.107 110.315 223.695 109.945C224.284 109.576 224.94 109.391 225.664 109.391C226.815 109.391 227.703 109.758 228.328 110.492C228.958 111.227 229.273 112.266 229.273 113.609V114.375H223.75C223.807 115.073 224.039 115.625 224.445 116.031C224.857 116.438 225.372 116.641 225.992 116.641C226.862 116.641 227.57 116.289 228.117 115.586L229.141 116.562C228.802 117.068 228.349 117.461 227.781 117.742C227.219 118.018 226.586 118.156 225.883 118.156ZM225.656 110.914C225.135 110.914 224.714 111.096 224.391 111.461C224.073 111.826 223.87 112.333 223.781 112.984H227.398V112.844C227.357 112.208 227.188 111.729 226.891 111.406C226.594 111.078 226.182 110.914 225.656 110.914ZM235.492 115.703C235.492 115.365 235.352 115.107 235.07 114.93C234.794 114.753 234.333 114.596 233.688 114.461C233.042 114.326 232.503 114.154 232.07 113.945C231.122 113.487 230.648 112.823 230.648 111.953C230.648 111.224 230.956 110.615 231.57 110.125C232.185 109.635 232.966 109.391 233.914 109.391C234.924 109.391 235.74 109.641 236.359 110.141C236.984 110.641 237.297 111.289 237.297 112.086H235.398C235.398 111.721 235.263 111.419 234.992 111.18C234.721 110.935 234.362 110.812 233.914 110.812C233.497 110.812 233.156 110.909 232.891 111.102C232.63 111.294 232.5 111.552 232.5 111.875C232.5 112.167 232.622 112.393 232.867 112.555C233.112 112.716 233.607 112.88 234.352 113.047C235.096 113.208 235.68 113.404 236.102 113.633C236.529 113.857 236.844 114.128 237.047 114.445C237.255 114.763 237.359 115.148 237.359 115.602C237.359 116.362 237.044 116.979 236.414 117.453C235.784 117.922 234.958 118.156 233.938 118.156C233.245 118.156 232.628 118.031 232.086 117.781C231.544 117.531 231.122 117.188 230.82 116.75C230.518 116.312 230.367 115.841 230.367 115.336H232.211C232.237 115.784 232.406 116.13 232.719 116.375C233.031 116.615 233.445 116.734 233.961 116.734C234.461 116.734 234.841 116.641 235.102 116.453C235.362 116.26 235.492 116.01 235.492 115.703ZM241.039 118H239.141V109.547H241.039V118ZM239.023 107.352C239.023 107.06 239.115 106.818 239.297 106.625C239.484 106.432 239.75 106.336 240.094 106.336C240.438 106.336 240.703 106.432 240.891 106.625C241.078 106.818 241.172 107.06 241.172 107.352C241.172 107.638 241.078 107.878 240.891 108.07C240.703 108.258 240.438 108.352 240.094 108.352C239.75 108.352 239.484 108.258 239.297 108.07C239.115 107.878 239.023 107.638 239.023 107.352ZM242.781 113.711C242.781 112.398 243.089 111.352 243.703 110.57C244.323 109.784 245.143 109.391 246.164 109.391C247.128 109.391 247.885 109.727 248.438 110.398L248.523 109.547H250.234V117.742C250.234 118.852 249.888 119.727 249.195 120.367C248.508 121.008 247.578 121.328 246.406 121.328C245.786 121.328 245.18 121.198 244.586 120.938C243.997 120.682 243.549 120.346 243.242 119.93L244.141 118.789C244.724 119.482 245.443 119.828 246.297 119.828C246.927 119.828 247.424 119.656 247.789 119.312C248.154 118.974 248.336 118.474 248.336 117.812V117.242C247.789 117.852 247.06 118.156 246.148 118.156C245.159 118.156 244.349 117.763 243.719 116.977C243.094 116.19 242.781 115.102 242.781 113.711ZM244.672 113.875C244.672 114.724 244.844 115.393 245.188 115.883C245.536 116.367 246.018 116.609 246.633 116.609C247.398 116.609 247.966 116.281 248.336 115.625V111.906C247.977 111.266 247.414 110.945 246.648 110.945C246.023 110.945 245.536 111.193 245.188 111.688C244.844 112.182 244.672 112.911 244.672 113.875ZM253.953 109.547L254.008 110.523C254.633 109.768 255.453 109.391 256.469 109.391C258.229 109.391 259.125 110.398 259.156 112.414V118H257.258V112.523C257.258 111.987 257.141 111.591 256.906 111.336C256.677 111.076 256.299 110.945 255.773 110.945C255.008 110.945 254.438 111.292 254.062 111.984V118H252.164V109.547H253.953ZM264.82 118.156C263.617 118.156 262.641 117.779 261.891 117.023C261.146 116.263 260.773 115.253 260.773 113.992V113.758C260.773 112.914 260.935 112.161 261.258 111.5C261.586 110.833 262.044 110.315 262.633 109.945C263.221 109.576 263.878 109.391 264.602 109.391C265.753 109.391 266.641 109.758 267.266 110.492C267.896 111.227 268.211 112.266 268.211 113.609V114.375H262.688C262.745 115.073 262.977 115.625 263.383 116.031C263.794 116.438 264.31 116.641 264.93 116.641C265.799 116.641 266.508 116.289 267.055 115.586L268.078 116.562C267.74 117.068 267.286 117.461 266.719 117.742C266.156 118.018 265.523 118.156 264.82 118.156ZM264.594 110.914C264.073 110.914 263.651 111.096 263.328 111.461C263.01 111.826 262.807 112.333 262.719 112.984H266.336V112.844C266.294 112.208 266.125 111.729 265.828 111.406C265.531 111.078 265.12 110.914 264.594 110.914ZM269.336 113.711C269.336 112.409 269.638 111.365 270.242 110.578C270.846 109.786 271.656 109.391 272.672 109.391C273.568 109.391 274.292 109.703 274.844 110.328V106H276.742V118H275.023L274.93 117.125C274.362 117.812 273.604 118.156 272.656 118.156C271.667 118.156 270.865 117.758 270.25 116.961C269.641 116.164 269.336 115.081 269.336 113.711ZM271.234 113.875C271.234 114.734 271.398 115.406 271.727 115.891C272.06 116.37 272.531 116.609 273.141 116.609C273.917 116.609 274.484 116.263 274.844 115.57V111.961C274.495 111.284 273.932 110.945 273.156 110.945C272.542 110.945 272.068 111.19 271.734 111.68C271.401 112.164 271.234 112.896 271.234 113.875ZM287.758 118C287.674 117.839 287.602 117.576 287.539 117.211C286.935 117.841 286.195 118.156 285.32 118.156C284.471 118.156 283.779 117.914 283.242 117.43C282.706 116.945 282.438 116.346 282.438 115.633C282.438 114.732 282.771 114.042 283.438 113.562C284.109 113.078 285.068 112.836 286.312 112.836H287.477V112.281C287.477 111.844 287.354 111.495 287.109 111.234C286.865 110.969 286.492 110.836 285.992 110.836C285.56 110.836 285.206 110.945 284.93 111.164C284.654 111.378 284.516 111.651 284.516 111.984H282.617C282.617 111.521 282.771 111.089 283.078 110.688C283.385 110.281 283.802 109.964 284.328 109.734C284.859 109.505 285.451 109.391 286.102 109.391C287.091 109.391 287.88 109.641 288.469 110.141C289.057 110.635 289.359 111.333 289.375 112.234V116.047C289.375 116.807 289.482 117.414 289.695 117.867V118H287.758ZM285.672 116.633C286.047 116.633 286.398 116.542 286.727 116.359C287.06 116.177 287.31 115.932 287.477 115.625V114.031H286.453C285.75 114.031 285.221 114.154 284.867 114.398C284.513 114.643 284.336 114.99 284.336 115.438C284.336 115.802 284.456 116.094 284.695 116.312C284.94 116.526 285.266 116.633 285.672 116.633ZM295.789 111.281C295.539 111.24 295.281 111.219 295.016 111.219C294.146 111.219 293.56 111.552 293.258 112.219V118H291.359V109.547H293.172L293.219 110.492C293.677 109.758 294.312 109.391 295.125 109.391C295.396 109.391 295.62 109.427 295.797 109.5L295.789 111.281ZM296.352 113.695C296.352 112.867 296.516 112.122 296.844 111.461C297.172 110.794 297.633 110.284 298.227 109.93C298.82 109.57 299.503 109.391 300.273 109.391C301.414 109.391 302.339 109.758 303.047 110.492C303.76 111.227 304.146 112.201 304.203 113.414L304.211 113.859C304.211 114.693 304.049 115.438 303.727 116.094C303.409 116.75 302.951 117.258 302.352 117.617C301.758 117.977 301.07 118.156 300.289 118.156C299.096 118.156 298.141 117.76 297.422 116.969C296.708 116.172 296.352 115.112 296.352 113.789V113.695ZM298.25 113.859C298.25 114.729 298.43 115.411 298.789 115.906C299.148 116.396 299.648 116.641 300.289 116.641C300.93 116.641 301.427 116.391 301.781 115.891C302.141 115.391 302.32 114.659 302.32 113.695C302.32 112.841 302.135 112.164 301.766 111.664C301.401 111.164 300.904 110.914 300.273 110.914C299.654 110.914 299.161 111.161 298.797 111.656C298.432 112.146 298.25 112.88 298.25 113.859ZM310.938 117.172C310.38 117.828 309.589 118.156 308.562 118.156C307.646 118.156 306.951 117.888 306.477 117.352C306.008 116.815 305.773 116.039 305.773 115.023V109.547H307.672V115C307.672 116.073 308.117 116.609 309.008 116.609C309.93 116.609 310.552 116.279 310.875 115.617V109.547H312.773V118H310.984L310.938 117.172ZM316.469 109.547L316.523 110.523C317.148 109.768 317.969 109.391 318.984 109.391C320.745 109.391 321.641 110.398 321.672 112.414V118H319.773V112.523C319.773 111.987 319.656 111.591 319.422 111.336C319.193 111.076 318.815 110.945 318.289 110.945C317.523 110.945 316.953 111.292 316.578 111.984V118H314.68V109.547H316.469ZM323.258 113.711C323.258 112.409 323.56 111.365 324.164 110.578C324.768 109.786 325.578 109.391 326.594 109.391C327.49 109.391 328.214 109.703 328.766 110.328V106H330.664V118H328.945L328.852 117.125C328.284 117.812 327.526 118.156 326.578 118.156C325.589 118.156 324.786 117.758 324.172 116.961C323.562 116.164 323.258 115.081 323.258 113.711ZM325.156 113.875C325.156 114.734 325.32 115.406 325.648 115.891C325.982 116.37 326.453 116.609 327.062 116.609C327.839 116.609 328.406 116.263 328.766 115.57V111.961C328.417 111.284 327.854 110.945 327.078 110.945C326.464 110.945 325.99 111.19 325.656 111.68C325.323 112.164 325.156 112.896 325.156 113.875ZM339.586 115.281L341.305 109.547H343.328L339.969 119.281C339.453 120.703 338.578 121.414 337.344 121.414C337.068 121.414 336.763 121.367 336.43 121.273V119.805L336.789 119.828C337.268 119.828 337.628 119.74 337.867 119.562C338.112 119.391 338.305 119.099 338.445 118.688L338.719 117.961L335.75 109.547H337.797L339.586 115.281ZM343.945 113.695C343.945 112.867 344.109 112.122 344.438 111.461C344.766 110.794 345.227 110.284 345.82 109.93C346.414 109.57 347.096 109.391 347.867 109.391C349.008 109.391 349.932 109.758 350.641 110.492C351.354 111.227 351.74 112.201 351.797 113.414L351.805 113.859C351.805 114.693 351.643 115.438 351.32 116.094C351.003 116.75 350.544 117.258 349.945 117.617C349.352 117.977 348.664 118.156 347.883 118.156C346.69 118.156 345.734 117.76 345.016 116.969C344.302 116.172 343.945 115.112 343.945 113.789V113.695ZM345.844 113.859C345.844 114.729 346.023 115.411 346.383 115.906C346.742 116.396 347.242 116.641 347.883 116.641C348.523 116.641 349.021 116.391 349.375 115.891C349.734 115.391 349.914 114.659 349.914 113.695C349.914 112.841 349.729 112.164 349.359 111.664C348.995 111.164 348.497 110.914 347.867 110.914C347.247 110.914 346.755 111.161 346.391 111.656C346.026 112.146 345.844 112.88 345.844 113.859ZM358.531 117.172C357.974 117.828 357.182 118.156 356.156 118.156C355.24 118.156 354.544 117.888 354.07 117.352C353.602 116.815 353.367 116.039 353.367 115.023V109.547H355.266V115C355.266 116.073 355.711 116.609 356.602 116.609C357.523 116.609 358.146 116.279 358.469 115.617V109.547H360.367V118H358.578L358.531 117.172ZM362.57 120.562L361.547 119.953C361.849 119.479 362.055 119.065 362.164 118.711C362.279 118.362 362.339 118.005 362.344 117.641V116.164H364.055L364.047 117.531C364.042 118.083 363.901 118.635 363.625 119.188C363.354 119.745 363.003 120.203 362.57 120.562ZM377.227 115.383L378.57 109.547H380.422L378.117 118H376.555L374.742 112.195L372.961 118H371.398L369.086 109.547H370.938L372.305 115.32L374.039 109.547H375.469L377.227 115.383ZM385.414 118.156C384.211 118.156 383.234 117.779 382.484 117.023C381.74 116.263 381.367 115.253 381.367 113.992V113.758C381.367 112.914 381.529 112.161 381.852 111.5C382.18 110.833 382.638 110.315 383.227 109.945C383.815 109.576 384.471 109.391 385.195 109.391C386.346 109.391 387.234 109.758 387.859 110.492C388.49 111.227 388.805 112.266 388.805 113.609V114.375H383.281C383.339 115.073 383.57 115.625 383.977 116.031C384.388 116.438 384.904 116.641 385.523 116.641C386.393 116.641 387.102 116.289 387.648 115.586L388.672 116.562C388.333 117.068 387.88 117.461 387.312 117.742C386.75 118.018 386.117 118.156 385.414 118.156ZM385.188 110.914C384.667 110.914 384.245 111.096 383.922 111.461C383.604 111.826 383.401 112.333 383.312 112.984H386.93V112.844C386.888 112.208 386.719 111.729 386.422 111.406C386.125 111.078 385.714 110.914 385.188 110.914ZM396.648 107.492V109.547H398.141V110.953H396.648V115.672C396.648 115.995 396.711 116.229 396.836 116.375C396.966 116.516 397.195 116.586 397.523 116.586C397.742 116.586 397.964 116.56 398.188 116.508V117.977C397.755 118.096 397.339 118.156 396.938 118.156C395.479 118.156 394.75 117.352 394.75 115.742V110.953H393.359V109.547H394.75V107.492H396.648ZM401.469 110.469C402.089 109.75 402.872 109.391 403.82 109.391C405.622 109.391 406.536 110.419 406.562 112.477V118H404.664V112.547C404.664 111.964 404.536 111.552 404.281 111.312C404.031 111.068 403.661 110.945 403.172 110.945C402.411 110.945 401.844 111.284 401.469 111.961V118H399.57V106H401.469V110.469ZM410.508 118H408.609V109.547H410.508V118ZM408.492 107.352C408.492 107.06 408.583 106.818 408.766 106.625C408.953 106.432 409.219 106.336 409.562 106.336C409.906 106.336 410.172 106.432 410.359 106.625C410.547 106.818 410.641 107.06 410.641 107.352C410.641 107.638 410.547 107.878 410.359 108.07C410.172 108.258 409.906 108.352 409.562 108.352C409.219 108.352 408.953 108.258 408.766 108.07C408.583 107.878 408.492 107.638 408.492 107.352ZM414.344 109.547L414.398 110.523C415.023 109.768 415.844 109.391 416.859 109.391C418.62 109.391 419.516 110.398 419.547 112.414V118H417.648V112.523C417.648 111.987 417.531 111.591 417.297 111.336C417.068 111.076 416.69 110.945 416.164 110.945C415.398 110.945 414.828 111.292 414.453 111.984V118H412.555V109.547H414.344ZM424.234 114.375L423.391 115.242V118H421.492V106H423.391V112.922L423.984 112.18L426.32 109.547H428.602L425.461 113.07L428.938 118H426.742L424.234 114.375ZM436.789 115.281L438.508 109.547H440.531L437.172 119.281C436.656 120.703 435.781 121.414 434.547 121.414C434.271 121.414 433.966 121.367 433.633 121.273V119.805L433.992 119.828C434.471 119.828 434.831 119.74 435.07 119.562C435.315 119.391 435.508 119.099 435.648 118.688L435.922 117.961L432.953 109.547H435L436.789 115.281ZM441.148 113.695C441.148 112.867 441.312 112.122 441.641 111.461C441.969 110.794 442.43 110.284 443.023 109.93C443.617 109.57 444.299 109.391 445.07 109.391C446.211 109.391 447.135 109.758 447.844 110.492C448.557 111.227 448.943 112.201 449 113.414L449.008 113.859C449.008 114.693 448.846 115.438 448.523 116.094C448.206 116.75 447.747 117.258 447.148 117.617C446.555 117.977 445.867 118.156 445.086 118.156C443.893 118.156 442.938 117.76 442.219 116.969C441.505 116.172 441.148 115.112 441.148 113.789V113.695ZM443.047 113.859C443.047 114.729 443.227 115.411 443.586 115.906C443.945 116.396 444.445 116.641 445.086 116.641C445.727 116.641 446.224 116.391 446.578 115.891C446.938 115.391 447.117 114.659 447.117 113.695C447.117 112.841 446.932 112.164 446.562 111.664C446.198 111.164 445.701 110.914 445.07 110.914C444.451 110.914 443.958 111.161 443.594 111.656C443.229 112.146 443.047 112.88 443.047 113.859ZM455.734 117.172C455.177 117.828 454.385 118.156 453.359 118.156C452.443 118.156 451.747 117.888 451.273 117.352C450.805 116.815 450.57 116.039 450.57 115.023V109.547H452.469V115C452.469 116.073 452.914 116.609 453.805 116.609C454.727 116.609 455.349 116.279 455.672 115.617V109.547H457.57V118H455.781L455.734 117.172ZM459.898 110L458.93 109.398C459.398 108.716 459.641 107.995 459.656 107.234V106H461.32V107.078C461.32 107.615 461.182 108.156 460.906 108.703C460.635 109.245 460.299 109.677 459.898 110ZM464.992 118H463.094V106H464.992V118ZM469.086 118H467.188V106H469.086V118ZM477.164 118H475.266V106H477.164V118ZM478.883 113.695C478.883 112.867 479.047 112.122 479.375 111.461C479.703 110.794 480.164 110.284 480.758 109.93C481.352 109.57 482.034 109.391 482.805 109.391C483.945 109.391 484.87 109.758 485.578 110.492C486.292 111.227 486.677 112.201 486.734 113.414L486.742 113.859C486.742 114.693 486.581 115.438 486.258 116.094C485.94 116.75 485.482 117.258 484.883 117.617C484.289 117.977 483.602 118.156 482.82 118.156C481.628 118.156 480.672 117.76 479.953 116.969C479.24 116.172 478.883 115.112 478.883 113.789V113.695ZM480.781 113.859C480.781 114.729 480.961 115.411 481.32 115.906C481.68 116.396 482.18 116.641 482.82 116.641C483.461 116.641 483.958 116.391 484.312 115.891C484.672 115.391 484.852 114.659 484.852 113.695C484.852 112.841 484.667 112.164 484.297 111.664C483.932 111.164 483.435 110.914 482.805 110.914C482.185 110.914 481.693 111.161 481.328 111.656C480.964 112.146 480.781 112.88 480.781 113.859ZM491.203 115.594L492.992 109.547H494.953L492.023 118H490.375L487.422 109.547H489.391L491.203 115.594ZM499.758 118.156C498.555 118.156 497.578 117.779 496.828 117.023C496.083 116.263 495.711 115.253 495.711 113.992V113.758C495.711 112.914 495.872 112.161 496.195 111.5C496.523 110.833 496.982 110.315 497.57 109.945C498.159 109.576 498.815 109.391 499.539 109.391C500.69 109.391 501.578 109.758 502.203 110.492C502.833 111.227 503.148 112.266 503.148 113.609V114.375H497.625C497.682 115.073 497.914 115.625 498.32 116.031C498.732 116.438 499.247 116.641 499.867 116.641C500.737 116.641 501.445 116.289 501.992 115.586L503.016 116.562C502.677 117.068 502.224 117.461 501.656 117.742C501.094 118.018 500.461 118.156 499.758 118.156ZM499.531 110.914C499.01 110.914 498.589 111.096 498.266 111.461C497.948 111.826 497.745 112.333 497.656 112.984H501.273V112.844C501.232 112.208 501.062 111.729 500.766 111.406C500.469 111.078 500.057 110.914 499.531 110.914ZM510.633 118H508.734V109.547H510.633V118ZM508.617 107.352C508.617 107.06 508.708 106.818 508.891 106.625C509.078 106.432 509.344 106.336 509.688 106.336C510.031 106.336 510.297 106.432 510.484 106.625C510.672 106.818 510.766 107.06 510.766 107.352C510.766 107.638 510.672 107.878 510.484 108.07C510.297 108.258 510.031 108.352 509.688 108.352C509.344 108.352 509.078 108.258 508.891 108.07C508.708 107.878 508.617 107.638 508.617 107.352ZM515.086 107.492V109.547H516.578V110.953H515.086V115.672C515.086 115.995 515.148 116.229 515.273 116.375C515.404 116.516 515.633 116.586 515.961 116.586C516.18 116.586 516.401 116.56 516.625 116.508V117.977C516.193 118.096 515.776 118.156 515.375 118.156C513.917 118.156 513.188 117.352 513.188 115.742V110.953H511.797V109.547H513.188V107.492H515.086ZM523.891 110.469C524.51 109.75 525.294 109.391 526.242 109.391C528.044 109.391 528.958 110.419 528.984 112.477V118H527.086V112.547C527.086 111.964 526.958 111.552 526.703 111.312C526.453 111.068 526.083 110.945 525.594 110.945C524.833 110.945 524.266 111.284 523.891 111.961V118H521.992V106H523.891V110.469ZM534.633 118.156C533.43 118.156 532.453 117.779 531.703 117.023C530.958 116.263 530.586 115.253 530.586 113.992V113.758C530.586 112.914 530.747 112.161 531.07 111.5C531.398 110.833 531.857 110.315 532.445 109.945C533.034 109.576 533.69 109.391 534.414 109.391C535.565 109.391 536.453 109.758 537.078 110.492C537.708 111.227 538.023 112.266 538.023 113.609V114.375H532.5C532.557 115.073 532.789 115.625 533.195 116.031C533.607 116.438 534.122 116.641 534.742 116.641C535.612 116.641 536.32 116.289 536.867 115.586L537.891 116.562C537.552 117.068 537.099 117.461 536.531 117.742C535.969 118.018 535.336 118.156 534.633 118.156ZM534.406 110.914C533.885 110.914 533.464 111.096 533.141 111.461C532.823 111.826 532.62 112.333 532.531 112.984H536.148V112.844C536.107 112.208 535.938 111.729 535.641 111.406C535.344 111.078 534.932 110.914 534.406 110.914ZM543.93 111.281C543.68 111.24 543.422 111.219 543.156 111.219C542.286 111.219 541.701 111.552 541.398 112.219V118H539.5V109.547H541.312L541.359 110.492C541.818 109.758 542.453 109.391 543.266 109.391C543.536 109.391 543.76 109.427 543.938 109.5L543.93 111.281ZM548.695 118.156C547.492 118.156 546.516 117.779 545.766 117.023C545.021 116.263 544.648 115.253 544.648 113.992V113.758C544.648 112.914 544.81 112.161 545.133 111.5C545.461 110.833 545.919 110.315 546.508 109.945C547.096 109.576 547.753 109.391 548.477 109.391C549.628 109.391 550.516 109.758 551.141 110.492C551.771 111.227 552.086 112.266 552.086 113.609V114.375H546.562C546.62 115.073 546.852 115.625 547.258 116.031C547.669 116.438 548.185 116.641 548.805 116.641C549.674 116.641 550.383 116.289 550.93 115.586L551.953 116.562C551.615 117.068 551.161 117.461 550.594 117.742C550.031 118.018 549.398 118.156 548.695 118.156ZM548.469 110.914C547.948 110.914 547.526 111.096 547.203 111.461C546.885 111.826 546.682 112.333 546.594 112.984H550.211V112.844C550.169 112.208 550 111.729 549.703 111.406C549.406 111.078 548.995 110.914 548.469 110.914ZM554.75 116C555.104 116 555.378 116.102 555.57 116.305C555.763 116.503 555.859 116.753 555.859 117.055C555.859 117.352 555.763 117.599 555.57 117.797C555.378 117.99 555.104 118.086 554.75 118.086C554.411 118.086 554.143 117.99 553.945 117.797C553.747 117.604 553.648 117.357 553.648 117.055C553.648 116.753 553.745 116.503 553.938 116.305C554.13 116.102 554.401 116 554.75 116Z" fill="#1F1F1F"/>
<path d="M239.488 14.0205H234.531L233.494 17H231.182L236.016 4.20312H238.011L242.854 17H240.534L239.488 14.0205ZM235.155 12.2275H238.864L237.009 6.91895L235.155 12.2275ZM246.378 17H244.243V3.5H246.378V17ZM251.388 5.17871V7.49023H253.067V9.07227H251.388V14.3809C251.388 14.7441 251.458 15.0078 251.599 15.1719C251.746 15.3301 252.003 15.4092 252.373 15.4092C252.619 15.4092 252.868 15.3799 253.12 15.3213V16.9736C252.633 17.1084 252.165 17.1758 251.713 17.1758C250.073 17.1758 249.252 16.2705 249.252 14.46V9.07227H247.688V7.49023H249.252V5.17871H251.388ZM257.004 17H254.869V7.49023H257.004V17ZM256.6 3.56152H259.035L256.6 6.22461H254.886L256.6 3.56152ZM264.414 9.44141C264.132 9.39453 263.842 9.37109 263.543 9.37109C262.565 9.37109 261.906 9.74609 261.566 10.4961V17H259.43V7.49023H261.469L261.522 8.55371C262.038 7.72754 262.752 7.31445 263.667 7.31445C263.971 7.31445 264.223 7.35547 264.422 7.4375L264.414 9.44141ZM271.181 17C271.087 16.8184 271.005 16.5225 270.935 16.1123C270.255 16.8213 269.423 17.1758 268.439 17.1758C267.484 17.1758 266.705 16.9033 266.101 16.3584C265.498 15.8135 265.196 15.1396 265.196 14.3369C265.196 13.3232 265.571 12.5469 266.321 12.0078C267.077 11.4629 268.155 11.1904 269.555 11.1904H270.865V10.5664C270.865 10.0742 270.727 9.68164 270.452 9.38867C270.176 9.08984 269.757 8.94043 269.195 8.94043C268.708 8.94043 268.31 9.06348 268 9.30957C267.689 9.5498 267.534 9.85742 267.534 10.2324H265.398C265.398 9.71094 265.571 9.22461 265.917 8.77344C266.262 8.31641 266.731 7.95898 267.323 7.70117C267.92 7.44336 268.585 7.31445 269.318 7.31445C270.431 7.31445 271.319 7.5957 271.981 8.1582C272.643 8.71484 272.983 9.5 273 10.5137V14.8027C273 15.6582 273.121 16.3408 273.361 16.8506V17H271.181ZM268.834 15.4619C269.256 15.4619 269.652 15.3594 270.021 15.1543C270.396 14.9492 270.677 14.6738 270.865 14.3281V12.5352H269.713C268.922 12.5352 268.328 12.6729 267.929 12.9482C267.531 13.2236 267.332 13.6133 267.332 14.1172C267.332 14.5273 267.466 14.8555 267.736 15.1016C268.011 15.3418 268.377 15.4619 268.834 15.4619ZM280.568 14.416C280.568 14.0352 280.41 13.7451 280.093 13.5459C279.783 13.3467 279.264 13.1709 278.538 13.0186C277.811 12.8662 277.205 12.6729 276.718 12.4385C275.652 11.9229 275.119 11.1758 275.119 10.1973C275.119 9.37695 275.464 8.69141 276.156 8.14062C276.847 7.58984 277.726 7.31445 278.792 7.31445C279.929 7.31445 280.846 7.5957 281.543 8.1582C282.247 8.7207 282.598 9.4502 282.598 10.3467H280.462C280.462 9.93652 280.31 9.59668 280.005 9.32715C279.701 9.05176 279.296 8.91406 278.792 8.91406C278.324 8.91406 277.94 9.02246 277.641 9.23926C277.348 9.45605 277.202 9.74609 277.202 10.1094C277.202 10.4375 277.339 10.6924 277.615 10.874C277.89 11.0557 278.447 11.2402 279.285 11.4277C280.123 11.6094 280.779 11.8291 281.253 12.0869C281.734 12.3389 282.088 12.6436 282.317 13.001C282.551 13.3584 282.668 13.792 282.668 14.3018C282.668 15.1572 282.314 15.8516 281.605 16.3848C280.896 16.9121 279.967 17.1758 278.819 17.1758C278.04 17.1758 277.345 17.0352 276.736 16.7539C276.126 16.4727 275.652 16.0859 275.312 15.5938C274.972 15.1016 274.802 14.5713 274.802 14.0029H276.876C276.906 14.5068 277.096 14.8965 277.448 15.1719C277.799 15.4414 278.265 15.5762 278.845 15.5762C279.408 15.5762 279.835 15.4707 280.128 15.2598C280.421 15.043 280.568 14.7617 280.568 14.416ZM288.724 17.1758C287.371 17.1758 286.272 16.751 285.428 15.9014C284.59 15.0459 284.171 13.9092 284.171 12.4912V12.2275C284.171 11.2783 284.353 10.4316 284.716 9.6875C285.085 8.9375 285.601 8.35449 286.263 7.93848C286.925 7.52246 287.664 7.31445 288.478 7.31445C289.773 7.31445 290.772 7.72754 291.475 8.55371C292.184 9.37988 292.539 10.5488 292.539 12.0605V12.9219H286.325C286.389 13.707 286.65 14.3281 287.107 14.7852C287.57 15.2422 288.15 15.4707 288.847 15.4707C289.826 15.4707 290.623 15.0752 291.238 14.2842L292.389 15.3828C292.008 15.9512 291.499 16.3936 290.86 16.71C290.227 17.0205 289.515 17.1758 288.724 17.1758ZM288.469 9.02832C287.883 9.02832 287.409 9.2334 287.045 9.64355C286.688 10.0537 286.459 10.625 286.36 11.3574H290.429V11.1992C290.382 10.4844 290.192 9.94531 289.858 9.58203C289.524 9.21289 289.061 9.02832 288.469 9.02832ZM299.183 9.44141C298.902 9.39453 298.612 9.37109 298.313 9.37109C297.334 9.37109 296.675 9.74609 296.335 10.4961V17H294.2V7.49023H296.239L296.292 8.55371C296.807 7.72754 297.522 7.31445 298.436 7.31445C298.741 7.31445 298.993 7.35547 299.192 7.4375L299.183 9.44141ZM310.24 13.3965H308.271L307.603 17H306.126L306.794 13.3965H304.764V12.0078H307.058L307.568 9.25684H305.432V7.85938H307.832L308.517 4.20312H309.985L309.299 7.85938H311.277L311.962 4.20312H313.43L312.745 7.85938H314.573V9.25684H312.481L311.971 12.0078H313.914V13.3965H311.708L311.04 17H309.572L310.24 13.3965ZM308.535 12.0078H310.503L311.013 9.25684H309.044L308.535 12.0078ZM321.648 17H319.521V6.72559L316.383 7.79785V5.99609L321.375 4.15918H321.648V17Z" fill="#1F1F1F"/>
<line x1="173" y1="10" x2="215.048" y2="10" stroke="#1F1F1F" stroke-width="2"/>
<line x1="342.024" y1="9" x2="384.072" y2="9" stroke="#1F1F1F" stroke-width="2"/>
</svg>
