<svg width="470" height="113" viewBox="0 0 470 113" fill="none" xmlns="http://www.w3.org/2000/svg">
<path d="M57.0156 67.8906L61.5469 50.25H63.9219L63.6562 54.7969L58.8125 73H56.3438L57.0156 67.8906ZM53.625 50.25L57.2969 67.75L57.625 73H55L49.7344 50.25H53.625ZM69.0625 67.7031L72.6875 50.25H76.5938L71.3281 73H68.7031L69.0625 67.7031ZM64.8438 50.25L69.3281 67.9375L69.9844 73H67.5156L62.75 54.7969L62.5 50.25H64.8438ZM86.0781 73.3125C84.8281 73.3125 83.6979 73.1094 82.6875 72.7031C81.6875 72.2865 80.8333 71.7083 80.125 70.9688C79.4271 70.2292 78.8906 69.3594 78.5156 68.3594C78.1406 67.3594 77.9531 66.2812 77.9531 65.125V64.5C77.9531 63.1771 78.1458 61.9792 78.5312 60.9062C78.9167 59.8333 79.4531 58.9167 80.1406 58.1562C80.8281 57.3854 81.6406 56.7969 82.5781 56.3906C83.5156 55.9844 84.5312 55.7812 85.625 55.7812C86.8333 55.7812 87.8906 55.9844 88.7969 56.3906C89.7031 56.7969 90.4531 57.3698 91.0469 58.1094C91.651 58.8385 92.099 59.7083 92.3906 60.7188C92.6927 61.7292 92.8438 62.8438 92.8438 64.0625V65.6719H79.7812V62.9688H89.125V62.6719C89.1042 61.9948 88.9688 61.3594 88.7188 60.7656C88.4792 60.1719 88.1094 59.6927 87.6094 59.3281C87.1094 58.9635 86.4427 58.7812 85.6094 58.7812C84.9844 58.7812 84.4271 58.9167 83.9375 59.1875C83.4583 59.4479 83.0573 59.8281 82.7344 60.3281C82.4115 60.8281 82.1615 61.4323 81.9844 62.1406C81.8177 62.8385 81.7344 63.625 81.7344 64.5V65.125C81.7344 65.8646 81.8333 66.5521 82.0312 67.1875C82.2396 67.8125 82.5417 68.3594 82.9375 68.8281C83.3333 69.2969 83.8125 69.6667 84.375 69.9375C84.9375 70.1979 85.5781 70.3281 86.2969 70.3281C87.2031 70.3281 88.0104 70.1458 88.7188 69.7812C89.4271 69.4167 90.0417 68.901 90.5625 68.2344L92.5469 70.1562C92.1823 70.6875 91.7083 71.1979 91.125 71.6875C90.5417 72.1667 89.8281 72.5573 88.9844 72.8594C88.151 73.1615 87.1823 73.3125 86.0781 73.3125ZM112.984 53.2812L106.188 73H102.078L110.641 50.25H113.266L112.984 53.2812ZM118.672 73L111.859 53.2812L111.562 50.25H114.203L122.797 73H118.672ZM118.344 64.5625V67.6719H105.969V64.5625H118.344ZM128.75 59.3125V73H124.984V56.0938H128.578L128.75 59.3125ZM133.922 55.9844L133.891 59.4844C133.661 59.4427 133.411 59.4115 133.141 59.3906C132.88 59.3698 132.62 59.3594 132.359 59.3594C131.714 59.3594 131.146 59.4531 130.656 59.6406C130.167 59.8177 129.755 60.0781 129.422 60.4219C129.099 60.7552 128.849 61.1615 128.672 61.6406C128.495 62.1198 128.391 62.6562 128.359 63.25L127.5 63.3125C127.5 62.25 127.604 61.2656 127.812 60.3594C128.021 59.4531 128.333 58.6562 128.75 57.9688C129.177 57.2812 129.708 56.7448 130.344 56.3594C130.99 55.974 131.734 55.7812 132.578 55.7812C132.807 55.7812 133.052 55.8021 133.312 55.8438C133.583 55.8854 133.786 55.9323 133.922 55.9844ZM143.422 73.3125C142.172 73.3125 141.042 73.1094 140.031 72.7031C139.031 72.2865 138.177 71.7083 137.469 70.9688C136.771 70.2292 136.234 69.3594 135.859 68.3594C135.484 67.3594 135.297 66.2812 135.297 65.125V64.5C135.297 63.1771 135.49 61.9792 135.875 60.9062C136.26 59.8333 136.797 58.9167 137.484 58.1562C138.172 57.3854 138.984 56.7969 139.922 56.3906C140.859 55.9844 141.875 55.7812 142.969 55.7812C144.177 55.7812 145.234 55.9844 146.141 56.3906C147.047 56.7969 147.797 57.3698 148.391 58.1094C148.995 58.8385 149.443 59.7083 149.734 60.7188C150.036 61.7292 150.188 62.8438 150.188 64.0625V65.6719H137.125V62.9688H146.469V62.6719C146.448 61.9948 146.312 61.3594 146.062 60.7656C145.823 60.1719 145.453 59.6927 144.953 59.3281C144.453 58.9635 143.786 58.7812 142.953 58.7812C142.328 58.7812 141.771 58.9167 141.281 59.1875C140.802 59.4479 140.401 59.8281 140.078 60.3281C139.755 60.8281 139.505 61.4323 139.328 62.1406C139.161 62.8385 139.078 63.625 139.078 64.5V65.125C139.078 65.8646 139.177 66.5521 139.375 67.1875C139.583 67.8125 139.885 68.3594 140.281 68.8281C140.677 69.2969 141.156 69.6667 141.719 69.9375C142.281 70.1979 142.922 70.3281 143.641 70.3281C144.547 70.3281 145.354 70.1458 146.062 69.7812C146.771 69.4167 147.385 68.901 147.906 68.2344L149.891 70.1562C149.526 70.6875 149.052 71.1979 148.469 71.6875C147.885 72.1667 147.172 72.5573 146.328 72.8594C145.495 73.1615 144.526 73.3125 143.422 73.3125ZM176.5 59.75V62.8594H164.422V59.75H176.5ZM165.391 50.25V73H161.469V50.25H165.391ZM179.516 50.25V73H175.609V50.25H179.516ZM191.266 73.3125C190.016 73.3125 188.885 73.1094 187.875 72.7031C186.875 72.2865 186.021 71.7083 185.312 70.9688C184.615 70.2292 184.078 69.3594 183.703 68.3594C183.328 67.3594 183.141 66.2812 183.141 65.125V64.5C183.141 63.1771 183.333 61.9792 183.719 60.9062C184.104 59.8333 184.641 58.9167 185.328 58.1562C186.016 57.3854 186.828 56.7969 187.766 56.3906C188.703 55.9844 189.719 55.7812 190.812 55.7812C192.021 55.7812 193.078 55.9844 193.984 56.3906C194.891 56.7969 195.641 57.3698 196.234 58.1094C196.839 58.8385 197.286 59.7083 197.578 60.7188C197.88 61.7292 198.031 62.8438 198.031 64.0625V65.6719H184.969V62.9688H194.312V62.6719C194.292 61.9948 194.156 61.3594 193.906 60.7656C193.667 60.1719 193.297 59.6927 192.797 59.3281C192.297 58.9635 191.63 58.7812 190.797 58.7812C190.172 58.7812 189.615 58.9167 189.125 59.1875C188.646 59.4479 188.245 59.8281 187.922 60.3281C187.599 60.8281 187.349 61.4323 187.172 62.1406C187.005 62.8385 186.922 63.625 186.922 64.5V65.125C186.922 65.8646 187.021 66.5521 187.219 67.1875C187.427 67.8125 187.729 68.3594 188.125 68.8281C188.521 69.2969 189 69.6667 189.562 69.9375C190.125 70.1979 190.766 70.3281 191.484 70.3281C192.391 70.3281 193.198 70.1458 193.906 69.7812C194.615 69.4167 195.229 68.901 195.75 68.2344L197.734 70.1562C197.37 70.6875 196.896 71.1979 196.312 71.6875C195.729 72.1667 195.016 72.5573 194.172 72.8594C193.339 73.1615 192.37 73.3125 191.266 73.3125ZM204.75 59.3125V73H200.984V56.0938H204.578L204.75 59.3125ZM209.922 55.9844L209.891 59.4844C209.661 59.4427 209.411 59.4115 209.141 59.3906C208.88 59.3698 208.62 59.3594 208.359 59.3594C207.714 59.3594 207.146 59.4531 206.656 59.6406C206.167 59.8177 205.755 60.0781 205.422 60.4219C205.099 60.7552 204.849 61.1615 204.672 61.6406C204.495 62.1198 204.391 62.6562 204.359 63.25L203.5 63.3125C203.5 62.25 203.604 61.2656 203.812 60.3594C204.021 59.4531 204.333 58.6562 204.75 57.9688C205.177 57.2812 205.708 56.7448 206.344 56.3594C206.99 55.974 207.734 55.7812 208.578 55.7812C208.807 55.7812 209.052 55.8021 209.312 55.8438C209.583 55.8854 209.786 55.9323 209.922 55.9844ZM219.422 73.3125C218.172 73.3125 217.042 73.1094 216.031 72.7031C215.031 72.2865 214.177 71.7083 213.469 70.9688C212.771 70.2292 212.234 69.3594 211.859 68.3594C211.484 67.3594 211.297 66.2812 211.297 65.125V64.5C211.297 63.1771 211.49 61.9792 211.875 60.9062C212.26 59.8333 212.797 58.9167 213.484 58.1562C214.172 57.3854 214.984 56.7969 215.922 56.3906C216.859 55.9844 217.875 55.7812 218.969 55.7812C220.177 55.7812 221.234 55.9844 222.141 56.3906C223.047 56.7969 223.797 57.3698 224.391 58.1094C224.995 58.8385 225.443 59.7083 225.734 60.7188C226.036 61.7292 226.188 62.8438 226.188 64.0625V65.6719H213.125V62.9688H222.469V62.6719C222.448 61.9948 222.312 61.3594 222.062 60.7656C221.823 60.1719 221.453 59.6927 220.953 59.3281C220.453 58.9635 219.786 58.7812 218.953 58.7812C218.328 58.7812 217.771 58.9167 217.281 59.1875C216.802 59.4479 216.401 59.8281 216.078 60.3281C215.755 60.8281 215.505 61.4323 215.328 62.1406C215.161 62.8385 215.078 63.625 215.078 64.5V65.125C215.078 65.8646 215.177 66.5521 215.375 67.1875C215.583 67.8125 215.885 68.3594 216.281 68.8281C216.677 69.2969 217.156 69.6667 217.719 69.9375C218.281 70.1979 218.922 70.3281 219.641 70.3281C220.547 70.3281 221.354 70.1458 222.062 69.7812C222.771 69.4167 223.385 68.901 223.906 68.2344L225.891 70.1562C225.526 70.6875 225.052 71.1979 224.469 71.6875C223.885 72.1667 223.172 72.5573 222.328 72.8594C221.495 73.1615 220.526 73.3125 219.422 73.3125ZM246.078 50.25V73H242.188V50.25H246.078ZM253.219 50.25V53.375H235.109V50.25H253.219ZM252.938 64.7344V64.375C252.938 63.1562 253.115 62.026 253.469 60.9844C253.823 59.9323 254.333 59.0208 255 58.25C255.677 57.4688 256.5 56.8646 257.469 56.4375C258.448 56 259.552 55.7812 260.781 55.7812C262.021 55.7812 263.125 56 264.094 56.4375C265.073 56.8646 265.901 57.4688 266.578 58.25C267.255 59.0208 267.771 59.9323 268.125 60.9844C268.479 62.026 268.656 63.1562 268.656 64.375V64.7344C268.656 65.9531 268.479 67.0833 268.125 68.125C267.771 69.1667 267.255 70.0781 266.578 70.8594C265.901 71.6302 265.078 72.2344 264.109 72.6719C263.141 73.099 262.042 73.3125 260.812 73.3125C259.573 73.3125 258.464 73.099 257.484 72.6719C256.516 72.2344 255.693 71.6302 255.016 70.8594C254.339 70.0781 253.823 69.1667 253.469 68.125C253.115 67.0833 252.938 65.9531 252.938 64.7344ZM256.703 64.375V64.7344C256.703 65.4948 256.781 66.2135 256.938 66.8906C257.094 67.5677 257.339 68.1615 257.672 68.6719C258.005 69.1823 258.432 69.5833 258.953 69.875C259.474 70.1667 260.094 70.3125 260.812 70.3125C261.51 70.3125 262.115 70.1667 262.625 69.875C263.146 69.5833 263.573 69.1823 263.906 68.6719C264.24 68.1615 264.484 67.5677 264.641 66.8906C264.807 66.2135 264.891 65.4948 264.891 64.7344V64.375C264.891 63.625 264.807 62.9167 264.641 62.25C264.484 61.5729 264.234 60.974 263.891 60.4531C263.557 59.9323 263.13 59.526 262.609 59.2344C262.099 58.9323 261.49 58.7812 260.781 58.7812C260.073 58.7812 259.458 58.9323 258.938 59.2344C258.427 59.526 258.005 59.9323 257.672 60.4531C257.339 60.974 257.094 61.5729 256.938 62.25C256.781 62.9167 256.703 63.625 256.703 64.375ZM295.188 59.75V62.8594H283.109V59.75H295.188ZM284.078 50.25V73H280.156V50.25H284.078ZM298.203 50.25V73H294.297V50.25H298.203ZM309.953 73.3125C308.703 73.3125 307.573 73.1094 306.562 72.7031C305.562 72.2865 304.708 71.7083 304 70.9688C303.302 70.2292 302.766 69.3594 302.391 68.3594C302.016 67.3594 301.828 66.2812 301.828 65.125V64.5C301.828 63.1771 302.021 61.9792 302.406 60.9062C302.792 59.8333 303.328 58.9167 304.016 58.1562C304.703 57.3854 305.516 56.7969 306.453 56.3906C307.391 55.9844 308.406 55.7812 309.5 55.7812C310.708 55.7812 311.766 55.9844 312.672 56.3906C313.578 56.7969 314.328 57.3698 314.922 58.1094C315.526 58.8385 315.974 59.7083 316.266 60.7188C316.568 61.7292 316.719 62.8438 316.719 64.0625V65.6719H303.656V62.9688H313V62.6719C312.979 61.9948 312.844 61.3594 312.594 60.7656C312.354 60.1719 311.984 59.6927 311.484 59.3281C310.984 58.9635 310.318 58.7812 309.484 58.7812C308.859 58.7812 308.302 58.9167 307.812 59.1875C307.333 59.4479 306.932 59.8281 306.609 60.3281C306.286 60.8281 306.036 61.4323 305.859 62.1406C305.693 62.8385 305.609 63.625 305.609 64.5V65.125C305.609 65.8646 305.708 66.5521 305.906 67.1875C306.115 67.8125 306.417 68.3594 306.812 68.8281C307.208 69.2969 307.688 69.6667 308.25 69.9375C308.812 70.1979 309.453 70.3281 310.172 70.3281C311.078 70.3281 311.885 70.1458 312.594 69.7812C313.302 69.4167 313.917 68.901 314.438 68.2344L316.422 70.1562C316.057 70.6875 315.583 71.1979 315 71.6875C314.417 72.1667 313.703 72.5573 312.859 72.8594C312.026 73.1615 311.057 73.3125 309.953 73.3125ZM323.688 49V73H319.906V49H323.688ZM331.594 59.3438V79.5H327.828V56.0938H331.297L331.594 59.3438ZM342.609 64.3906V64.7188C342.609 65.9479 342.464 67.0885 342.172 68.1406C341.891 69.1823 341.469 70.0938 340.906 70.875C340.354 71.6458 339.672 72.2448 338.859 72.6719C338.047 73.099 337.109 73.3125 336.047 73.3125C334.995 73.3125 334.073 73.1198 333.281 72.7344C332.5 72.3385 331.839 71.7812 331.297 71.0625C330.755 70.3438 330.318 69.5 329.984 68.5312C329.661 67.5521 329.432 66.4792 329.297 65.3125V64.0469C329.432 62.8073 329.661 61.6823 329.984 60.6719C330.318 59.6615 330.755 58.7917 331.297 58.0625C331.839 57.3333 332.5 56.7708 333.281 56.375C334.062 55.9792 334.974 55.7812 336.016 55.7812C337.078 55.7812 338.021 55.9896 338.844 56.4062C339.667 56.8125 340.359 57.3958 340.922 58.1562C341.484 58.9062 341.906 59.8125 342.188 60.875C342.469 61.9271 342.609 63.099 342.609 64.3906ZM338.844 64.7188V64.3906C338.844 63.6094 338.771 62.8854 338.625 62.2188C338.479 61.5417 338.25 60.9479 337.938 60.4375C337.625 59.9271 337.224 59.5312 336.734 59.25C336.255 58.9583 335.677 58.8125 335 58.8125C334.333 58.8125 333.76 58.9271 333.281 59.1562C332.802 59.375 332.401 59.6823 332.078 60.0781C331.755 60.474 331.505 60.9375 331.328 61.4688C331.151 61.9896 331.026 62.5573 330.953 63.1719V66.2031C331.078 66.9531 331.292 67.6406 331.594 68.2656C331.896 68.8906 332.323 69.3906 332.875 69.7656C333.438 70.1302 334.156 70.3125 335.031 70.3125C335.708 70.3125 336.286 70.1667 336.766 69.875C337.245 69.5833 337.635 69.1823 337.938 68.6719C338.25 68.151 338.479 67.5521 338.625 66.875C338.771 66.1979 338.844 65.4792 338.844 64.7188ZM356.328 50.25L361.609 61.1094L366.891 50.25H371.234L363.578 64.625V73H359.625V64.625L351.969 50.25H356.328ZM371.594 64.7344V64.375C371.594 63.1562 371.771 62.026 372.125 60.9844C372.479 59.9323 372.99 59.0208 373.656 58.25C374.333 57.4688 375.156 56.8646 376.125 56.4375C377.104 56 378.208 55.7812 379.438 55.7812C380.677 55.7812 381.781 56 382.75 56.4375C383.729 56.8646 384.557 57.4688 385.234 58.25C385.911 59.0208 386.427 59.9323 386.781 60.9844C387.135 62.026 387.312 63.1562 387.312 64.375V64.7344C387.312 65.9531 387.135 67.0833 386.781 68.125C386.427 69.1667 385.911 70.0781 385.234 70.8594C384.557 71.6302 383.734 72.2344 382.766 72.6719C381.797 73.099 380.698 73.3125 379.469 73.3125C378.229 73.3125 377.12 73.099 376.141 72.6719C375.172 72.2344 374.349 71.6302 373.672 70.8594C372.995 70.0781 372.479 69.1667 372.125 68.125C371.771 67.0833 371.594 65.9531 371.594 64.7344ZM375.359 64.375V64.7344C375.359 65.4948 375.438 66.2135 375.594 66.8906C375.75 67.5677 375.995 68.1615 376.328 68.6719C376.661 69.1823 377.089 69.5833 377.609 69.875C378.13 70.1667 378.75 70.3125 379.469 70.3125C380.167 70.3125 380.771 70.1667 381.281 69.875C381.802 69.5833 382.229 69.1823 382.562 68.6719C382.896 68.1615 383.141 67.5677 383.297 66.8906C383.464 66.2135 383.547 65.4948 383.547 64.7344V64.375C383.547 63.625 383.464 62.9167 383.297 62.25C383.141 61.5729 382.891 60.974 382.547 60.4531C382.214 59.9323 381.786 59.526 381.266 59.2344C380.755 58.9323 380.146 58.7812 379.438 58.7812C378.729 58.7812 378.115 58.9323 377.594 59.2344C377.083 59.526 376.661 59.9323 376.328 60.4531C375.995 60.974 375.75 61.5729 375.594 62.25C375.438 62.9167 375.359 63.625 375.359 64.375ZM400.641 69.0156V56.0938H404.422V73H400.859L400.641 69.0156ZM401.172 65.5L402.438 65.4688C402.438 66.6042 402.312 67.651 402.062 68.6094C401.812 69.5573 401.427 70.3854 400.906 71.0938C400.385 71.7917 399.719 72.3385 398.906 72.7344C398.094 73.1198 397.12 73.3125 395.984 73.3125C395.161 73.3125 394.406 73.1927 393.719 72.9531C393.031 72.7135 392.438 72.3438 391.938 71.8438C391.448 71.3438 391.068 70.6927 390.797 69.8906C390.526 69.0885 390.391 68.1302 390.391 67.0156V56.0938H394.156V67.0469C394.156 67.6615 394.229 68.1771 394.375 68.5938C394.521 69 394.719 69.3281 394.969 69.5781C395.219 69.8281 395.51 70.0052 395.844 70.1094C396.177 70.2135 396.531 70.2656 396.906 70.2656C397.979 70.2656 398.823 70.0573 399.438 69.6406C400.062 69.2135 400.505 68.6406 400.766 67.9219C401.036 67.2031 401.172 66.3958 401.172 65.5Z" fill="#1F1F1F"/>
<path d="M2.83594 102.352V109H0.953125V100.547H2.72656L2.83594 102.352ZM2.5 104.461L1.89062 104.453C1.89583 103.854 1.97917 103.305 2.14062 102.805C2.30729 102.305 2.53646 101.875 2.82812 101.516C3.125 101.156 3.47917 100.88 3.89062 100.688C4.30208 100.49 4.76042 100.391 5.26562 100.391C5.67188 100.391 6.03906 100.448 6.36719 100.562C6.70052 100.672 6.98438 100.852 7.21875 101.102C7.45833 101.352 7.64062 101.677 7.76562 102.078C7.89062 102.474 7.95312 102.961 7.95312 103.539V109H6.0625V103.531C6.0625 103.125 6.0026 102.805 5.88281 102.57C5.76823 102.331 5.59896 102.161 5.375 102.062C5.15625 101.958 4.88281 101.906 4.55469 101.906C4.23177 101.906 3.94271 101.974 3.6875 102.109C3.43229 102.245 3.21615 102.43 3.03906 102.664C2.86719 102.898 2.73438 103.169 2.64062 103.477C2.54688 103.784 2.5 104.112 2.5 104.461ZM9.51562 104.867V104.688C9.51562 104.078 9.60417 103.513 9.78125 102.992C9.95833 102.466 10.2135 102.01 10.5469 101.625C10.8854 101.234 11.2969 100.932 11.7812 100.719C12.2708 100.5 12.8229 100.391 13.4375 100.391C14.0573 100.391 14.6094 100.5 15.0938 100.719C15.5833 100.932 15.9974 101.234 16.3359 101.625C16.6745 102.01 16.9323 102.466 17.1094 102.992C17.2865 103.513 17.375 104.078 17.375 104.688V104.867C17.375 105.477 17.2865 106.042 17.1094 106.562C16.9323 107.083 16.6745 107.539 16.3359 107.93C15.9974 108.315 15.5859 108.617 15.1016 108.836C14.6172 109.049 14.0677 109.156 13.4531 109.156C12.8333 109.156 12.2786 109.049 11.7891 108.836C11.3047 108.617 10.8932 108.315 10.5547 107.93C10.2161 107.539 9.95833 107.083 9.78125 106.562C9.60417 106.042 9.51562 105.477 9.51562 104.867ZM11.3984 104.688V104.867C11.3984 105.247 11.4375 105.607 11.5156 105.945C11.5938 106.284 11.7161 106.581 11.8828 106.836C12.0495 107.091 12.263 107.292 12.5234 107.438C12.7839 107.583 13.0938 107.656 13.4531 107.656C13.8021 107.656 14.1042 107.583 14.3594 107.438C14.6198 107.292 14.8333 107.091 15 106.836C15.1667 106.581 15.2891 106.284 15.3672 105.945C15.4505 105.607 15.4922 105.247 15.4922 104.867V104.688C15.4922 104.312 15.4505 103.958 15.3672 103.625C15.2891 103.286 15.1641 102.987 14.9922 102.727C14.8255 102.466 14.612 102.263 14.3516 102.117C14.0964 101.966 13.7917 101.891 13.4375 101.891C13.0833 101.891 12.776 101.966 12.5156 102.117C12.2604 102.263 12.0495 102.466 11.8828 102.727C11.7161 102.987 11.5938 103.286 11.5156 103.625C11.4375 103.958 11.3984 104.312 11.3984 104.688ZM24.8203 102.266V109H22.9375V100.547H24.7109L24.8203 102.266ZM24.5156 104.461L23.875 104.453C23.875 103.87 23.9479 103.331 24.0938 102.836C24.2396 102.341 24.4531 101.911 24.7344 101.547C25.0156 101.177 25.3646 100.893 25.7812 100.695C26.2031 100.492 26.6901 100.391 27.2422 100.391C27.6276 100.391 27.9792 100.448 28.2969 100.562C28.6198 100.672 28.8984 100.846 29.1328 101.086C29.3724 101.326 29.5547 101.633 29.6797 102.008C29.8099 102.383 29.875 102.836 29.875 103.367V109H27.9922V103.531C27.9922 103.12 27.9297 102.797 27.8047 102.562C27.6849 102.328 27.5104 102.161 27.2812 102.062C27.0573 101.958 26.7891 101.906 26.4766 101.906C26.1224 101.906 25.8203 101.974 25.5703 102.109C25.3255 102.245 25.125 102.43 24.9688 102.664C24.8125 102.898 24.6979 103.169 24.625 103.477C24.5521 103.784 24.5156 104.112 24.5156 104.461ZM29.7578 103.961L28.875 104.156C28.875 103.646 28.9453 103.164 29.0859 102.711C29.2318 102.253 29.4427 101.852 29.7188 101.508C30 101.159 30.3464 100.885 30.7578 100.688C31.1693 100.49 31.6406 100.391 32.1719 100.391C32.6042 100.391 32.9896 100.451 33.3281 100.57C33.6719 100.685 33.9635 100.867 34.2031 101.117C34.4427 101.367 34.625 101.693 34.75 102.094C34.875 102.49 34.9375 102.969 34.9375 103.531V109H33.0469V103.523C33.0469 103.096 32.9844 102.766 32.8594 102.531C32.7396 102.297 32.5677 102.135 32.3438 102.047C32.1198 101.953 31.8516 101.906 31.5391 101.906C31.2474 101.906 30.9896 101.961 30.7656 102.07C30.5469 102.174 30.362 102.323 30.2109 102.516C30.0599 102.703 29.9453 102.919 29.8672 103.164C29.7943 103.409 29.7578 103.674 29.7578 103.961ZM41.6406 107.305V103.273C41.6406 102.971 41.5859 102.711 41.4766 102.492C41.3672 102.273 41.2005 102.104 40.9766 101.984C40.7578 101.865 40.4818 101.805 40.1484 101.805C39.8411 101.805 39.5755 101.857 39.3516 101.961C39.1276 102.065 38.9531 102.206 38.8281 102.383C38.7031 102.56 38.6406 102.76 38.6406 102.984H36.7656C36.7656 102.651 36.8464 102.328 37.0078 102.016C37.1693 101.703 37.4036 101.424 37.7109 101.18C38.0182 100.935 38.3854 100.742 38.8125 100.602C39.2396 100.461 39.7188 100.391 40.25 100.391C40.8854 100.391 41.4479 100.497 41.9375 100.711C42.4323 100.924 42.8203 101.247 43.1016 101.68C43.388 102.107 43.5312 102.643 43.5312 103.289V107.047C43.5312 107.432 43.5573 107.779 43.6094 108.086C43.6667 108.388 43.7474 108.651 43.8516 108.875V109H41.9219C41.8333 108.797 41.763 108.539 41.7109 108.227C41.6641 107.909 41.6406 107.602 41.6406 107.305ZM41.9141 103.859L41.9297 105.023H40.5781C40.2292 105.023 39.9219 105.057 39.6562 105.125C39.3906 105.188 39.1693 105.281 38.9922 105.406C38.8151 105.531 38.6823 105.682 38.5938 105.859C38.5052 106.036 38.4609 106.237 38.4609 106.461C38.4609 106.685 38.513 106.891 38.6172 107.078C38.7214 107.26 38.8724 107.404 39.0703 107.508C39.2734 107.612 39.5182 107.664 39.8047 107.664C40.1901 107.664 40.526 107.586 40.8125 107.43C41.1042 107.268 41.3333 107.073 41.5 106.844C41.6667 106.609 41.7552 106.388 41.7656 106.18L42.375 107.016C42.3125 107.229 42.2057 107.458 42.0547 107.703C41.9036 107.948 41.7057 108.182 41.4609 108.406C41.2214 108.625 40.9323 108.805 40.5938 108.945C40.2604 109.086 39.875 109.156 39.4375 109.156C38.8854 109.156 38.3932 109.047 37.9609 108.828C37.5286 108.604 37.1901 108.305 36.9453 107.93C36.7005 107.549 36.5781 107.12 36.5781 106.641C36.5781 106.193 36.6615 105.797 36.8281 105.453C37 105.104 37.25 104.812 37.5781 104.578C37.9115 104.344 38.3177 104.167 38.7969 104.047C39.276 103.922 39.8229 103.859 40.4375 103.859H41.9141ZM49.375 100.547V101.922H44.6094V100.547H49.375ZM45.9844 98.4766H47.8672V106.664C47.8672 106.924 47.9036 107.125 47.9766 107.266C48.0547 107.401 48.1615 107.492 48.2969 107.539C48.4323 107.586 48.5911 107.609 48.7734 107.609C48.9036 107.609 49.0286 107.602 49.1484 107.586C49.2682 107.57 49.3646 107.555 49.4375 107.539L49.4453 108.977C49.2891 109.023 49.1068 109.065 48.8984 109.102C48.6953 109.138 48.4609 109.156 48.1953 109.156C47.763 109.156 47.3802 109.081 47.0469 108.93C46.7135 108.773 46.4531 108.521 46.2656 108.172C46.0781 107.823 45.9844 107.359 45.9844 106.781V98.4766ZM54.7031 100.547V101.922H49.9375V100.547H54.7031ZM51.3125 98.4766H53.1953V106.664C53.1953 106.924 53.2318 107.125 53.3047 107.266C53.3828 107.401 53.4896 107.492 53.625 107.539C53.7604 107.586 53.9193 107.609 54.1016 107.609C54.2318 107.609 54.3568 107.602 54.4766 107.586C54.5964 107.57 54.6927 107.555 54.7656 107.539L54.7734 108.977C54.6172 109.023 54.4349 109.065 54.2266 109.102C54.0234 109.138 53.7891 109.156 53.5234 109.156C53.0911 109.156 52.7083 109.081 52.375 108.93C52.0417 108.773 51.7812 108.521 51.5938 108.172C51.4062 107.823 51.3125 107.359 51.3125 106.781V98.4766ZM59.8828 109.156C59.2578 109.156 58.6927 109.055 58.1875 108.852C57.6875 108.643 57.2604 108.354 56.9062 107.984C56.5573 107.615 56.2891 107.18 56.1016 106.68C55.9141 106.18 55.8203 105.641 55.8203 105.062V104.75C55.8203 104.089 55.9167 103.49 56.1094 102.953C56.3021 102.417 56.5703 101.958 56.9141 101.578C57.2578 101.193 57.6641 100.898 58.1328 100.695C58.6016 100.492 59.1094 100.391 59.6562 100.391C60.2604 100.391 60.7891 100.492 61.2422 100.695C61.6953 100.898 62.0703 101.185 62.3672 101.555C62.6693 101.919 62.8932 102.354 63.0391 102.859C63.1901 103.365 63.2656 103.922 63.2656 104.531V105.336H56.7344V103.984H61.4062V103.836C61.3958 103.497 61.3281 103.18 61.2031 102.883C61.0833 102.586 60.8984 102.346 60.6484 102.164C60.3984 101.982 60.0651 101.891 59.6484 101.891C59.3359 101.891 59.0573 101.958 58.8125 102.094C58.5729 102.224 58.3724 102.414 58.2109 102.664C58.0495 102.914 57.9245 103.216 57.8359 103.57C57.7526 103.919 57.7109 104.312 57.7109 104.75V105.062C57.7109 105.432 57.7604 105.776 57.8594 106.094C57.9635 106.406 58.1146 106.68 58.3125 106.914C58.5104 107.148 58.75 107.333 59.0312 107.469C59.3125 107.599 59.6328 107.664 59.9922 107.664C60.4453 107.664 60.849 107.573 61.2031 107.391C61.5573 107.208 61.8646 106.951 62.125 106.617L63.1172 107.578C62.9349 107.844 62.6979 108.099 62.4062 108.344C62.1146 108.583 61.7578 108.779 61.3359 108.93C60.9193 109.081 60.4349 109.156 59.8828 109.156ZM66.625 102.156V109H64.7422V100.547H66.5391L66.625 102.156ZM69.2109 100.492L69.1953 102.242C69.0807 102.221 68.9557 102.206 68.8203 102.195C68.6901 102.185 68.5599 102.18 68.4297 102.18C68.1068 102.18 67.8229 102.227 67.5781 102.32C67.3333 102.409 67.1276 102.539 66.9609 102.711C66.7995 102.878 66.6745 103.081 66.5859 103.32C66.4974 103.56 66.4453 103.828 66.4297 104.125L66 104.156C66 103.625 66.0521 103.133 66.1562 102.68C66.2604 102.227 66.4167 101.828 66.625 101.484C66.8385 101.141 67.1042 100.872 67.4219 100.68C67.7448 100.487 68.1172 100.391 68.5391 100.391C68.6536 100.391 68.776 100.401 68.9062 100.422C69.0417 100.443 69.1432 100.466 69.2109 100.492ZM76.6719 107.125L78.625 100.547H79.8281L79.5 102.516L77.5312 109H76.4531L76.6719 107.125ZM75.5234 100.547L77.0469 107.156L77.1719 109H75.9688L73.6797 100.547H75.5234ZM81.6562 107.078L83.1328 100.547H84.9688L82.6875 109H81.4844L81.6562 107.078ZM80.0312 100.547L81.9609 107.047L82.2031 109H81.125L79.1328 102.508L78.8047 100.547H80.0312ZM88.1094 97V109H86.2344V97H88.1094ZM87.7812 104.461L87.1719 104.453C87.1771 103.87 87.2578 103.331 87.4141 102.836C87.5755 102.341 87.7995 101.911 88.0859 101.547C88.3776 101.177 88.7266 100.893 89.1328 100.695C89.5391 100.492 89.9896 100.391 90.4844 100.391C90.901 100.391 91.276 100.448 91.6094 100.562C91.9479 100.677 92.2396 100.862 92.4844 101.117C92.7292 101.367 92.9141 101.695 93.0391 102.102C93.1693 102.503 93.2344 102.992 93.2344 103.57V109H91.3438V103.555C91.3438 103.148 91.2839 102.826 91.1641 102.586C91.0495 102.346 90.8802 102.174 90.6562 102.07C90.4323 101.961 90.1589 101.906 89.8359 101.906C89.4974 101.906 89.1979 101.974 88.9375 102.109C88.6823 102.245 88.4688 102.43 88.2969 102.664C88.125 102.898 87.9948 103.169 87.9062 103.477C87.8229 103.784 87.7812 104.112 87.7812 104.461ZM98.8672 109.156C98.2422 109.156 97.6771 109.055 97.1719 108.852C96.6719 108.643 96.2448 108.354 95.8906 107.984C95.5417 107.615 95.2734 107.18 95.0859 106.68C94.8984 106.18 94.8047 105.641 94.8047 105.062V104.75C94.8047 104.089 94.901 103.49 95.0938 102.953C95.2865 102.417 95.5547 101.958 95.8984 101.578C96.2422 101.193 96.6484 100.898 97.1172 100.695C97.5859 100.492 98.0938 100.391 98.6406 100.391C99.2448 100.391 99.7734 100.492 100.227 100.695C100.68 100.898 101.055 101.185 101.352 101.555C101.654 101.919 101.878 102.354 102.023 102.859C102.174 103.365 102.25 103.922 102.25 104.531V105.336H95.7188V103.984H100.391V103.836C100.38 103.497 100.312 103.18 100.188 102.883C100.068 102.586 99.8828 102.346 99.6328 102.164C99.3828 101.982 99.0495 101.891 98.6328 101.891C98.3203 101.891 98.0417 101.958 97.7969 102.094C97.5573 102.224 97.3568 102.414 97.1953 102.664C97.0339 102.914 96.9089 103.216 96.8203 103.57C96.737 103.919 96.6953 104.312 96.6953 104.75V105.062C96.6953 105.432 96.7448 105.776 96.8438 106.094C96.9479 106.406 97.099 106.68 97.2969 106.914C97.4948 107.148 97.7344 107.333 98.0156 107.469C98.2969 107.599 98.6172 107.664 98.9766 107.664C99.4297 107.664 99.8333 107.573 100.188 107.391C100.542 107.208 100.849 106.951 101.109 106.617L102.102 107.578C101.919 107.844 101.682 108.099 101.391 108.344C101.099 108.583 100.742 108.779 100.32 108.93C99.9036 109.081 99.4193 109.156 98.8672 109.156ZM105.609 102.156V109H103.727V100.547H105.523L105.609 102.156ZM108.195 100.492L108.18 102.242C108.065 102.221 107.94 102.206 107.805 102.195C107.674 102.185 107.544 102.18 107.414 102.18C107.091 102.18 106.807 102.227 106.562 102.32C106.318 102.409 106.112 102.539 105.945 102.711C105.784 102.878 105.659 103.081 105.57 103.32C105.482 103.56 105.43 103.828 105.414 104.125L104.984 104.156C104.984 103.625 105.036 103.133 105.141 102.68C105.245 102.227 105.401 101.828 105.609 101.484C105.823 101.141 106.089 100.872 106.406 100.68C106.729 100.487 107.102 100.391 107.523 100.391C107.638 100.391 107.76 100.401 107.891 100.422C108.026 100.443 108.128 100.466 108.195 100.492ZM112.945 109.156C112.32 109.156 111.755 109.055 111.25 108.852C110.75 108.643 110.323 108.354 109.969 107.984C109.62 107.615 109.352 107.18 109.164 106.68C108.977 106.18 108.883 105.641 108.883 105.062V104.75C108.883 104.089 108.979 103.49 109.172 102.953C109.365 102.417 109.633 101.958 109.977 101.578C110.32 101.193 110.727 100.898 111.195 100.695C111.664 100.492 112.172 100.391 112.719 100.391C113.323 100.391 113.852 100.492 114.305 100.695C114.758 100.898 115.133 101.185 115.43 101.555C115.732 101.919 115.956 102.354 116.102 102.859C116.253 103.365 116.328 103.922 116.328 104.531V105.336H109.797V103.984H114.469V103.836C114.458 103.497 114.391 103.18 114.266 102.883C114.146 102.586 113.961 102.346 113.711 102.164C113.461 101.982 113.128 101.891 112.711 101.891C112.398 101.891 112.12 101.958 111.875 102.094C111.635 102.224 111.435 102.414 111.273 102.664C111.112 102.914 110.987 103.216 110.898 103.57C110.815 103.919 110.773 104.312 110.773 104.75V105.062C110.773 105.432 110.823 105.776 110.922 106.094C111.026 106.406 111.177 106.68 111.375 106.914C111.573 107.148 111.812 107.333 112.094 107.469C112.375 107.599 112.695 107.664 113.055 107.664C113.508 107.664 113.911 107.573 114.266 107.391C114.62 107.208 114.927 106.951 115.188 106.617L116.18 107.578C115.997 107.844 115.76 108.099 115.469 108.344C115.177 108.583 114.82 108.779 114.398 108.93C113.982 109.081 113.497 109.156 112.945 109.156ZM124.234 108.078L126.531 100.547H128.547L125.156 110.289C125.078 110.497 124.977 110.724 124.852 110.969C124.727 111.214 124.562 111.445 124.359 111.664C124.161 111.888 123.914 112.068 123.617 112.203C123.32 112.344 122.961 112.414 122.539 112.414C122.372 112.414 122.211 112.398 122.055 112.367C121.904 112.341 121.76 112.312 121.625 112.281L121.617 110.844C121.669 110.849 121.732 110.854 121.805 110.859C121.883 110.865 121.945 110.867 121.992 110.867C122.305 110.867 122.565 110.828 122.773 110.75C122.982 110.677 123.151 110.557 123.281 110.391C123.417 110.224 123.531 110 123.625 109.719L124.234 108.078ZM122.938 100.547L124.945 106.875L125.281 108.859L123.977 109.195L120.906 100.547H122.938ZM129.141 104.867V104.688C129.141 104.078 129.229 103.513 129.406 102.992C129.583 102.466 129.839 102.01 130.172 101.625C130.51 101.234 130.922 100.932 131.406 100.719C131.896 100.5 132.448 100.391 133.062 100.391C133.682 100.391 134.234 100.5 134.719 100.719C135.208 100.932 135.622 101.234 135.961 101.625C136.299 102.01 136.557 102.466 136.734 102.992C136.911 103.513 137 104.078 137 104.688V104.867C137 105.477 136.911 106.042 136.734 106.562C136.557 107.083 136.299 107.539 135.961 107.93C135.622 108.315 135.211 108.617 134.727 108.836C134.242 109.049 133.693 109.156 133.078 109.156C132.458 109.156 131.904 109.049 131.414 108.836C130.93 108.617 130.518 108.315 130.18 107.93C129.841 107.539 129.583 107.083 129.406 106.562C129.229 106.042 129.141 105.477 129.141 104.867ZM131.023 104.688V104.867C131.023 105.247 131.062 105.607 131.141 105.945C131.219 106.284 131.341 106.581 131.508 106.836C131.674 107.091 131.888 107.292 132.148 107.438C132.409 107.583 132.719 107.656 133.078 107.656C133.427 107.656 133.729 107.583 133.984 107.438C134.245 107.292 134.458 107.091 134.625 106.836C134.792 106.581 134.914 106.284 134.992 105.945C135.076 105.607 135.117 105.247 135.117 104.867V104.688C135.117 104.312 135.076 103.958 134.992 103.625C134.914 103.286 134.789 102.987 134.617 102.727C134.451 102.466 134.237 102.263 133.977 102.117C133.721 101.966 133.417 101.891 133.062 101.891C132.708 101.891 132.401 101.966 132.141 102.117C131.885 102.263 131.674 102.466 131.508 102.727C131.341 102.987 131.219 103.286 131.141 103.625C131.062 103.958 131.023 104.312 131.023 104.688ZM143.664 107.008V100.547H145.555V109H143.773L143.664 107.008ZM143.93 105.25L144.562 105.234C144.562 105.802 144.5 106.326 144.375 106.805C144.25 107.279 144.057 107.693 143.797 108.047C143.536 108.396 143.203 108.669 142.797 108.867C142.391 109.06 141.904 109.156 141.336 109.156C140.924 109.156 140.547 109.096 140.203 108.977C139.859 108.857 139.562 108.672 139.312 108.422C139.068 108.172 138.878 107.846 138.742 107.445C138.607 107.044 138.539 106.565 138.539 106.008V100.547H140.422V106.023C140.422 106.331 140.458 106.589 140.531 106.797C140.604 107 140.703 107.164 140.828 107.289C140.953 107.414 141.099 107.503 141.266 107.555C141.432 107.607 141.609 107.633 141.797 107.633C142.333 107.633 142.755 107.529 143.062 107.32C143.375 107.107 143.596 106.82 143.727 106.461C143.862 106.102 143.93 105.698 143.93 105.25ZM156.211 106.711C156.211 106.523 156.164 106.354 156.07 106.203C155.977 106.047 155.797 105.906 155.531 105.781C155.271 105.656 154.885 105.542 154.375 105.438C153.927 105.339 153.516 105.221 153.141 105.086C152.771 104.945 152.453 104.776 152.188 104.578C151.922 104.38 151.716 104.146 151.57 103.875C151.424 103.604 151.352 103.292 151.352 102.938C151.352 102.594 151.427 102.268 151.578 101.961C151.729 101.654 151.945 101.383 152.227 101.148C152.508 100.914 152.849 100.729 153.25 100.594C153.656 100.458 154.109 100.391 154.609 100.391C155.318 100.391 155.924 100.51 156.43 100.75C156.94 100.984 157.331 101.305 157.602 101.711C157.872 102.112 158.008 102.565 158.008 103.07H156.125C156.125 102.846 156.068 102.638 155.953 102.445C155.844 102.247 155.677 102.089 155.453 101.969C155.229 101.844 154.948 101.781 154.609 101.781C154.286 101.781 154.018 101.833 153.805 101.938C153.596 102.036 153.44 102.167 153.336 102.328C153.237 102.49 153.188 102.667 153.188 102.859C153.188 103 153.214 103.128 153.266 103.242C153.323 103.352 153.417 103.453 153.547 103.547C153.677 103.635 153.854 103.719 154.078 103.797C154.307 103.875 154.594 103.951 154.938 104.023C155.583 104.159 156.138 104.333 156.602 104.547C157.07 104.755 157.43 105.026 157.68 105.359C157.93 105.688 158.055 106.104 158.055 106.609C158.055 106.984 157.974 107.328 157.812 107.641C157.656 107.948 157.427 108.216 157.125 108.445C156.823 108.669 156.461 108.844 156.039 108.969C155.622 109.094 155.154 109.156 154.633 109.156C153.867 109.156 153.219 109.021 152.688 108.75C152.156 108.474 151.753 108.122 151.477 107.695C151.206 107.263 151.07 106.815 151.07 106.352H152.891C152.911 106.701 153.008 106.979 153.18 107.188C153.357 107.391 153.576 107.539 153.836 107.633C154.102 107.721 154.375 107.766 154.656 107.766C154.995 107.766 155.279 107.721 155.508 107.633C155.737 107.539 155.911 107.414 156.031 107.258C156.151 107.096 156.211 106.914 156.211 106.711ZM163.578 100.547V101.922H158.812V100.547H163.578ZM160.188 98.4766H162.07V106.664C162.07 106.924 162.107 107.125 162.18 107.266C162.258 107.401 162.365 107.492 162.5 107.539C162.635 107.586 162.794 107.609 162.977 107.609C163.107 107.609 163.232 107.602 163.352 107.586C163.471 107.57 163.568 107.555 163.641 107.539L163.648 108.977C163.492 109.023 163.31 109.065 163.102 109.102C162.898 109.138 162.664 109.156 162.398 109.156C161.966 109.156 161.583 109.081 161.25 108.93C160.917 108.773 160.656 108.521 160.469 108.172C160.281 107.823 160.188 107.359 160.188 106.781V98.4766ZM169.797 107.305V103.273C169.797 102.971 169.742 102.711 169.633 102.492C169.523 102.273 169.357 102.104 169.133 101.984C168.914 101.865 168.638 101.805 168.305 101.805C167.997 101.805 167.732 101.857 167.508 101.961C167.284 102.065 167.109 102.206 166.984 102.383C166.859 102.56 166.797 102.76 166.797 102.984H164.922C164.922 102.651 165.003 102.328 165.164 102.016C165.326 101.703 165.56 101.424 165.867 101.18C166.174 100.935 166.542 100.742 166.969 100.602C167.396 100.461 167.875 100.391 168.406 100.391C169.042 100.391 169.604 100.497 170.094 100.711C170.589 100.924 170.977 101.247 171.258 101.68C171.544 102.107 171.688 102.643 171.688 103.289V107.047C171.688 107.432 171.714 107.779 171.766 108.086C171.823 108.388 171.904 108.651 172.008 108.875V109H170.078C169.99 108.797 169.919 108.539 169.867 108.227C169.82 107.909 169.797 107.602 169.797 107.305ZM170.07 103.859L170.086 105.023H168.734C168.385 105.023 168.078 105.057 167.812 105.125C167.547 105.188 167.326 105.281 167.148 105.406C166.971 105.531 166.839 105.682 166.75 105.859C166.661 106.036 166.617 106.237 166.617 106.461C166.617 106.685 166.669 106.891 166.773 107.078C166.878 107.26 167.029 107.404 167.227 107.508C167.43 107.612 167.674 107.664 167.961 107.664C168.346 107.664 168.682 107.586 168.969 107.43C169.26 107.268 169.49 107.073 169.656 106.844C169.823 106.609 169.911 106.388 169.922 106.18L170.531 107.016C170.469 107.229 170.362 107.458 170.211 107.703C170.06 107.948 169.862 108.182 169.617 108.406C169.378 108.625 169.089 108.805 168.75 108.945C168.417 109.086 168.031 109.156 167.594 109.156C167.042 109.156 166.549 109.047 166.117 108.828C165.685 108.604 165.346 108.305 165.102 107.93C164.857 107.549 164.734 107.12 164.734 106.641C164.734 106.193 164.818 105.797 164.984 105.453C165.156 105.104 165.406 104.812 165.734 104.578C166.068 104.344 166.474 104.167 166.953 104.047C167.432 103.922 167.979 103.859 168.594 103.859H170.07ZM175.547 102.156V109H173.664V100.547H175.461L175.547 102.156ZM178.133 100.492L178.117 102.242C178.003 102.221 177.878 102.206 177.742 102.195C177.612 102.185 177.482 102.18 177.352 102.18C177.029 102.18 176.745 102.227 176.5 102.32C176.255 102.409 176.049 102.539 175.883 102.711C175.721 102.878 175.596 103.081 175.508 103.32C175.419 103.56 175.367 103.828 175.352 104.125L174.922 104.156C174.922 103.625 174.974 103.133 175.078 102.68C175.182 102.227 175.339 101.828 175.547 101.484C175.76 101.141 176.026 100.872 176.344 100.68C176.667 100.487 177.039 100.391 177.461 100.391C177.576 100.391 177.698 100.401 177.828 100.422C177.964 100.443 178.065 100.466 178.133 100.492ZM183.578 100.547V101.922H178.812V100.547H183.578ZM180.188 98.4766H182.07V106.664C182.07 106.924 182.107 107.125 182.18 107.266C182.258 107.401 182.365 107.492 182.5 107.539C182.635 107.586 182.794 107.609 182.977 107.609C183.107 107.609 183.232 107.602 183.352 107.586C183.471 107.57 183.568 107.555 183.641 107.539L183.648 108.977C183.492 109.023 183.31 109.065 183.102 109.102C182.898 109.138 182.664 109.156 182.398 109.156C181.966 109.156 181.583 109.081 181.25 108.93C180.917 108.773 180.656 108.521 180.469 108.172C180.281 107.823 180.188 107.359 180.188 106.781V98.4766ZM191.562 109H189.68V99.7344C189.68 99.1042 189.797 98.5755 190.031 98.1484C190.271 97.7161 190.612 97.3906 191.055 97.1719C191.497 96.9479 192.021 96.8359 192.625 96.8359C192.812 96.8359 192.997 96.849 193.18 96.875C193.362 96.8958 193.539 96.9297 193.711 96.9766L193.664 98.4297C193.56 98.4036 193.445 98.3854 193.32 98.375C193.201 98.3646 193.07 98.3594 192.93 98.3594C192.643 98.3594 192.396 98.4141 192.188 98.5234C191.984 98.6276 191.828 98.7812 191.719 98.9844C191.615 99.1875 191.562 99.4375 191.562 99.7344V109ZM193.305 100.547V101.922H188.383V100.547H193.305ZM196.562 102.156V109H194.68V100.547H196.477L196.562 102.156ZM199.148 100.492L199.133 102.242C199.018 102.221 198.893 102.206 198.758 102.195C198.628 102.185 198.497 102.18 198.367 102.18C198.044 102.18 197.76 102.227 197.516 102.32C197.271 102.409 197.065 102.539 196.898 102.711C196.737 102.878 196.612 103.081 196.523 103.32C196.435 103.56 196.383 103.828 196.367 104.125L195.938 104.156C195.938 103.625 195.99 103.133 196.094 102.68C196.198 102.227 196.354 101.828 196.562 101.484C196.776 101.141 197.042 100.872 197.359 100.68C197.682 100.487 198.055 100.391 198.477 100.391C198.591 100.391 198.714 100.401 198.844 100.422C198.979 100.443 199.081 100.466 199.148 100.492ZM199.766 104.867V104.688C199.766 104.078 199.854 103.513 200.031 102.992C200.208 102.466 200.464 102.01 200.797 101.625C201.135 101.234 201.547 100.932 202.031 100.719C202.521 100.5 203.073 100.391 203.688 100.391C204.307 100.391 204.859 100.5 205.344 100.719C205.833 100.932 206.247 101.234 206.586 101.625C206.924 102.01 207.182 102.466 207.359 102.992C207.536 103.513 207.625 104.078 207.625 104.688V104.867C207.625 105.477 207.536 106.042 207.359 106.562C207.182 107.083 206.924 107.539 206.586 107.93C206.247 108.315 205.836 108.617 205.352 108.836C204.867 109.049 204.318 109.156 203.703 109.156C203.083 109.156 202.529 109.049 202.039 108.836C201.555 108.617 201.143 108.315 200.805 107.93C200.466 107.539 200.208 107.083 200.031 106.562C199.854 106.042 199.766 105.477 199.766 104.867ZM201.648 104.688V104.867C201.648 105.247 201.688 105.607 201.766 105.945C201.844 106.284 201.966 106.581 202.133 106.836C202.299 107.091 202.513 107.292 202.773 107.438C203.034 107.583 203.344 107.656 203.703 107.656C204.052 107.656 204.354 107.583 204.609 107.438C204.87 107.292 205.083 107.091 205.25 106.836C205.417 106.581 205.539 106.284 205.617 105.945C205.701 105.607 205.742 105.247 205.742 104.867V104.688C205.742 104.312 205.701 103.958 205.617 103.625C205.539 103.286 205.414 102.987 205.242 102.727C205.076 102.466 204.862 102.263 204.602 102.117C204.346 101.966 204.042 101.891 203.688 101.891C203.333 101.891 203.026 101.966 202.766 102.117C202.51 102.263 202.299 102.466 202.133 102.727C201.966 102.987 201.844 103.286 201.766 103.625C201.688 103.958 201.648 104.312 201.648 104.688ZM211.086 102.266V109H209.203V100.547H210.977L211.086 102.266ZM210.781 104.461L210.141 104.453C210.141 103.87 210.214 103.331 210.359 102.836C210.505 102.341 210.719 101.911 211 101.547C211.281 101.177 211.63 100.893 212.047 100.695C212.469 100.492 212.956 100.391 213.508 100.391C213.893 100.391 214.245 100.448 214.562 100.562C214.885 100.672 215.164 100.846 215.398 101.086C215.638 101.326 215.82 101.633 215.945 102.008C216.076 102.383 216.141 102.836 216.141 103.367V109H214.258V103.531C214.258 103.12 214.195 102.797 214.07 102.562C213.951 102.328 213.776 102.161 213.547 102.062C213.323 101.958 213.055 101.906 212.742 101.906C212.388 101.906 212.086 101.974 211.836 102.109C211.591 102.245 211.391 102.43 211.234 102.664C211.078 102.898 210.964 103.169 210.891 103.477C210.818 103.784 210.781 104.112 210.781 104.461ZM216.023 103.961L215.141 104.156C215.141 103.646 215.211 103.164 215.352 102.711C215.497 102.253 215.708 101.852 215.984 101.508C216.266 101.159 216.612 100.885 217.023 100.688C217.435 100.49 217.906 100.391 218.438 100.391C218.87 100.391 219.255 100.451 219.594 100.57C219.938 100.685 220.229 100.867 220.469 101.117C220.708 101.367 220.891 101.693 221.016 102.094C221.141 102.49 221.203 102.969 221.203 103.531V109H219.312V103.523C219.312 103.096 219.25 102.766 219.125 102.531C219.005 102.297 218.833 102.135 218.609 102.047C218.385 101.953 218.117 101.906 217.805 101.906C217.513 101.906 217.255 101.961 217.031 102.07C216.812 102.174 216.628 102.323 216.477 102.516C216.326 102.703 216.211 102.919 216.133 103.164C216.06 103.409 216.023 103.674 216.023 103.961ZM224.906 107.188L224.898 108.531C224.898 109.062 224.766 109.609 224.5 110.172C224.234 110.734 223.883 111.198 223.445 111.562L222.438 110.977C222.583 110.742 222.716 110.505 222.836 110.266C222.956 110.026 223.052 109.771 223.125 109.5C223.198 109.229 223.234 108.93 223.234 108.602V107.188H224.906ZM232.57 102.352V109H230.688V100.547H232.461L232.57 102.352ZM232.234 104.461L231.625 104.453C231.63 103.854 231.714 103.305 231.875 102.805C232.042 102.305 232.271 101.875 232.562 101.516C232.859 101.156 233.214 100.88 233.625 100.688C234.036 100.49 234.495 100.391 235 100.391C235.406 100.391 235.773 100.448 236.102 100.562C236.435 100.672 236.719 100.852 236.953 101.102C237.193 101.352 237.375 101.677 237.5 102.078C237.625 102.474 237.688 102.961 237.688 103.539V109H235.797V103.531C235.797 103.125 235.737 102.805 235.617 102.57C235.503 102.331 235.333 102.161 235.109 102.062C234.891 101.958 234.617 101.906 234.289 101.906C233.966 101.906 233.677 101.974 233.422 102.109C233.167 102.245 232.951 102.43 232.773 102.664C232.602 102.898 232.469 103.169 232.375 103.477C232.281 103.784 232.234 104.112 232.234 104.461ZM239.25 104.867V104.688C239.25 104.078 239.339 103.513 239.516 102.992C239.693 102.466 239.948 102.01 240.281 101.625C240.62 101.234 241.031 100.932 241.516 100.719C242.005 100.5 242.557 100.391 243.172 100.391C243.792 100.391 244.344 100.5 244.828 100.719C245.318 100.932 245.732 101.234 246.07 101.625C246.409 102.01 246.667 102.466 246.844 102.992C247.021 103.513 247.109 104.078 247.109 104.688V104.867C247.109 105.477 247.021 106.042 246.844 106.562C246.667 107.083 246.409 107.539 246.07 107.93C245.732 108.315 245.32 108.617 244.836 108.836C244.352 109.049 243.802 109.156 243.188 109.156C242.568 109.156 242.013 109.049 241.523 108.836C241.039 108.617 240.628 108.315 240.289 107.93C239.951 107.539 239.693 107.083 239.516 106.562C239.339 106.042 239.25 105.477 239.25 104.867ZM241.133 104.688V104.867C241.133 105.247 241.172 105.607 241.25 105.945C241.328 106.284 241.451 106.581 241.617 106.836C241.784 107.091 241.997 107.292 242.258 107.438C242.518 107.583 242.828 107.656 243.188 107.656C243.536 107.656 243.839 107.583 244.094 107.438C244.354 107.292 244.568 107.091 244.734 106.836C244.901 106.581 245.023 106.284 245.102 105.945C245.185 105.607 245.227 105.247 245.227 104.867V104.688C245.227 104.312 245.185 103.958 245.102 103.625C245.023 103.286 244.898 102.987 244.727 102.727C244.56 102.466 244.346 102.263 244.086 102.117C243.831 101.966 243.526 101.891 243.172 101.891C242.818 101.891 242.51 101.966 242.25 102.117C241.995 102.263 241.784 102.466 241.617 102.727C241.451 102.987 241.328 103.286 241.25 103.625C241.172 103.958 241.133 104.312 241.133 104.688ZM254.555 102.266V109H252.672V100.547H254.445L254.555 102.266ZM254.25 104.461L253.609 104.453C253.609 103.87 253.682 103.331 253.828 102.836C253.974 102.341 254.188 101.911 254.469 101.547C254.75 101.177 255.099 100.893 255.516 100.695C255.938 100.492 256.424 100.391 256.977 100.391C257.362 100.391 257.714 100.448 258.031 100.562C258.354 100.672 258.633 100.846 258.867 101.086C259.107 101.326 259.289 101.633 259.414 102.008C259.544 102.383 259.609 102.836 259.609 103.367V109H257.727V103.531C257.727 103.12 257.664 102.797 257.539 102.562C257.419 102.328 257.245 102.161 257.016 102.062C256.792 101.958 256.523 101.906 256.211 101.906C255.857 101.906 255.555 101.974 255.305 102.109C255.06 102.245 254.859 102.43 254.703 102.664C254.547 102.898 254.432 103.169 254.359 103.477C254.286 103.784 254.25 104.112 254.25 104.461ZM259.492 103.961L258.609 104.156C258.609 103.646 258.68 103.164 258.82 102.711C258.966 102.253 259.177 101.852 259.453 101.508C259.734 101.159 260.081 100.885 260.492 100.688C260.904 100.49 261.375 100.391 261.906 100.391C262.339 100.391 262.724 100.451 263.062 100.57C263.406 100.685 263.698 100.867 263.938 101.117C264.177 101.367 264.359 101.693 264.484 102.094C264.609 102.49 264.672 102.969 264.672 103.531V109H262.781V103.523C262.781 103.096 262.719 102.766 262.594 102.531C262.474 102.297 262.302 102.135 262.078 102.047C261.854 101.953 261.586 101.906 261.273 101.906C260.982 101.906 260.724 101.961 260.5 102.07C260.281 102.174 260.096 102.323 259.945 102.516C259.794 102.703 259.68 102.919 259.602 103.164C259.529 103.409 259.492 103.674 259.492 103.961ZM271.375 107.305V103.273C271.375 102.971 271.32 102.711 271.211 102.492C271.102 102.273 270.935 102.104 270.711 101.984C270.492 101.865 270.216 101.805 269.883 101.805C269.576 101.805 269.31 101.857 269.086 101.961C268.862 102.065 268.688 102.206 268.562 102.383C268.438 102.56 268.375 102.76 268.375 102.984H266.5C266.5 102.651 266.581 102.328 266.742 102.016C266.904 101.703 267.138 101.424 267.445 101.18C267.753 100.935 268.12 100.742 268.547 100.602C268.974 100.461 269.453 100.391 269.984 100.391C270.62 100.391 271.182 100.497 271.672 100.711C272.167 100.924 272.555 101.247 272.836 101.68C273.122 102.107 273.266 102.643 273.266 103.289V107.047C273.266 107.432 273.292 107.779 273.344 108.086C273.401 108.388 273.482 108.651 273.586 108.875V109H271.656C271.568 108.797 271.497 108.539 271.445 108.227C271.398 107.909 271.375 107.602 271.375 107.305ZM271.648 103.859L271.664 105.023H270.312C269.964 105.023 269.656 105.057 269.391 105.125C269.125 105.188 268.904 105.281 268.727 105.406C268.549 105.531 268.417 105.682 268.328 105.859C268.24 106.036 268.195 106.237 268.195 106.461C268.195 106.685 268.247 106.891 268.352 107.078C268.456 107.26 268.607 107.404 268.805 107.508C269.008 107.612 269.253 107.664 269.539 107.664C269.924 107.664 270.26 107.586 270.547 107.43C270.839 107.268 271.068 107.073 271.234 106.844C271.401 106.609 271.49 106.388 271.5 106.18L272.109 107.016C272.047 107.229 271.94 107.458 271.789 107.703C271.638 107.948 271.44 108.182 271.195 108.406C270.956 108.625 270.667 108.805 270.328 108.945C269.995 109.086 269.609 109.156 269.172 109.156C268.62 109.156 268.128 109.047 267.695 108.828C267.263 108.604 266.924 108.305 266.68 107.93C266.435 107.549 266.312 107.12 266.312 106.641C266.312 106.193 266.396 105.797 266.562 105.453C266.734 105.104 266.984 104.812 267.312 104.578C267.646 104.344 268.052 104.167 268.531 104.047C269.01 103.922 269.557 103.859 270.172 103.859H271.648ZM279.109 100.547V101.922H274.344V100.547H279.109ZM275.719 98.4766H277.602V106.664C277.602 106.924 277.638 107.125 277.711 107.266C277.789 107.401 277.896 107.492 278.031 107.539C278.167 107.586 278.326 107.609 278.508 107.609C278.638 107.609 278.763 107.602 278.883 107.586C279.003 107.57 279.099 107.555 279.172 107.539L279.18 108.977C279.023 109.023 278.841 109.065 278.633 109.102C278.43 109.138 278.195 109.156 277.93 109.156C277.497 109.156 277.115 109.081 276.781 108.93C276.448 108.773 276.188 108.521 276 108.172C275.812 107.823 275.719 107.359 275.719 106.781V98.4766ZM284.438 100.547V101.922H279.672V100.547H284.438ZM281.047 98.4766H282.93V106.664C282.93 106.924 282.966 107.125 283.039 107.266C283.117 107.401 283.224 107.492 283.359 107.539C283.495 107.586 283.654 107.609 283.836 107.609C283.966 107.609 284.091 107.602 284.211 107.586C284.331 107.57 284.427 107.555 284.5 107.539L284.508 108.977C284.352 109.023 284.169 109.065 283.961 109.102C283.758 109.138 283.523 109.156 283.258 109.156C282.826 109.156 282.443 109.081 282.109 108.93C281.776 108.773 281.516 108.521 281.328 108.172C281.141 107.823 281.047 107.359 281.047 106.781V98.4766ZM289.617 109.156C288.992 109.156 288.427 109.055 287.922 108.852C287.422 108.643 286.995 108.354 286.641 107.984C286.292 107.615 286.023 107.18 285.836 106.68C285.648 106.18 285.555 105.641 285.555 105.062V104.75C285.555 104.089 285.651 103.49 285.844 102.953C286.036 102.417 286.305 101.958 286.648 101.578C286.992 101.193 287.398 100.898 287.867 100.695C288.336 100.492 288.844 100.391 289.391 100.391C289.995 100.391 290.523 100.492 290.977 100.695C291.43 100.898 291.805 101.185 292.102 101.555C292.404 101.919 292.628 102.354 292.773 102.859C292.924 103.365 293 103.922 293 104.531V105.336H286.469V103.984H291.141V103.836C291.13 103.497 291.062 103.18 290.938 102.883C290.818 102.586 290.633 102.346 290.383 102.164C290.133 101.982 289.799 101.891 289.383 101.891C289.07 101.891 288.792 101.958 288.547 102.094C288.307 102.224 288.107 102.414 287.945 102.664C287.784 102.914 287.659 103.216 287.57 103.57C287.487 103.919 287.445 104.312 287.445 104.75V105.062C287.445 105.432 287.495 105.776 287.594 106.094C287.698 106.406 287.849 106.68 288.047 106.914C288.245 107.148 288.484 107.333 288.766 107.469C289.047 107.599 289.367 107.664 289.727 107.664C290.18 107.664 290.583 107.573 290.938 107.391C291.292 107.208 291.599 106.951 291.859 106.617L292.852 107.578C292.669 107.844 292.432 108.099 292.141 108.344C291.849 108.583 291.492 108.779 291.07 108.93C290.654 109.081 290.169 109.156 289.617 109.156ZM296.359 102.156V109H294.477V100.547H296.273L296.359 102.156ZM298.945 100.492L298.93 102.242C298.815 102.221 298.69 102.206 298.555 102.195C298.424 102.185 298.294 102.18 298.164 102.18C297.841 102.18 297.557 102.227 297.312 102.32C297.068 102.409 296.862 102.539 296.695 102.711C296.534 102.878 296.409 103.081 296.32 103.32C296.232 103.56 296.18 103.828 296.164 104.125L295.734 104.156C295.734 103.625 295.786 103.133 295.891 102.68C295.995 102.227 296.151 101.828 296.359 101.484C296.573 101.141 296.839 100.872 297.156 100.68C297.479 100.487 297.852 100.391 298.273 100.391C298.388 100.391 298.51 100.401 298.641 100.422C298.776 100.443 298.878 100.466 298.945 100.492ZM306.406 107.125L308.359 100.547H309.562L309.234 102.516L307.266 109H306.188L306.406 107.125ZM305.258 100.547L306.781 107.156L306.906 109H305.703L303.414 100.547H305.258ZM311.391 107.078L312.867 100.547H314.703L312.422 109H311.219L311.391 107.078ZM309.766 100.547L311.695 107.047L311.938 109H310.859L308.867 102.508L308.539 100.547H309.766ZM317.844 97V109H315.969V97H317.844ZM317.516 104.461L316.906 104.453C316.911 103.87 316.992 103.331 317.148 102.836C317.31 102.341 317.534 101.911 317.82 101.547C318.112 101.177 318.461 100.893 318.867 100.695C319.273 100.492 319.724 100.391 320.219 100.391C320.635 100.391 321.01 100.448 321.344 100.562C321.682 100.677 321.974 100.862 322.219 101.117C322.464 101.367 322.648 101.695 322.773 102.102C322.904 102.503 322.969 102.992 322.969 103.57V109H321.078V103.555C321.078 103.148 321.018 102.826 320.898 102.586C320.784 102.346 320.615 102.174 320.391 102.07C320.167 101.961 319.893 101.906 319.57 101.906C319.232 101.906 318.932 101.974 318.672 102.109C318.417 102.245 318.203 102.43 318.031 102.664C317.859 102.898 317.729 103.169 317.641 103.477C317.557 103.784 317.516 104.112 317.516 104.461ZM328.602 109.156C327.977 109.156 327.411 109.055 326.906 108.852C326.406 108.643 325.979 108.354 325.625 107.984C325.276 107.615 325.008 107.18 324.82 106.68C324.633 106.18 324.539 105.641 324.539 105.062V104.75C324.539 104.089 324.635 103.49 324.828 102.953C325.021 102.417 325.289 101.958 325.633 101.578C325.977 101.193 326.383 100.898 326.852 100.695C327.32 100.492 327.828 100.391 328.375 100.391C328.979 100.391 329.508 100.492 329.961 100.695C330.414 100.898 330.789 101.185 331.086 101.555C331.388 101.919 331.612 102.354 331.758 102.859C331.909 103.365 331.984 103.922 331.984 104.531V105.336H325.453V103.984H330.125V103.836C330.115 103.497 330.047 103.18 329.922 102.883C329.802 102.586 329.617 102.346 329.367 102.164C329.117 101.982 328.784 101.891 328.367 101.891C328.055 101.891 327.776 101.958 327.531 102.094C327.292 102.224 327.091 102.414 326.93 102.664C326.768 102.914 326.643 103.216 326.555 103.57C326.471 103.919 326.43 104.312 326.43 104.75V105.062C326.43 105.432 326.479 105.776 326.578 106.094C326.682 106.406 326.833 106.68 327.031 106.914C327.229 107.148 327.469 107.333 327.75 107.469C328.031 107.599 328.352 107.664 328.711 107.664C329.164 107.664 329.568 107.573 329.922 107.391C330.276 107.208 330.583 106.951 330.844 106.617L331.836 107.578C331.654 107.844 331.417 108.099 331.125 108.344C330.833 108.583 330.477 108.779 330.055 108.93C329.638 109.081 329.154 109.156 328.602 109.156ZM335.344 102.156V109H333.461V100.547H335.258L335.344 102.156ZM337.93 100.492L337.914 102.242C337.799 102.221 337.674 102.206 337.539 102.195C337.409 102.185 337.279 102.18 337.148 102.18C336.826 102.18 336.542 102.227 336.297 102.32C336.052 102.409 335.846 102.539 335.68 102.711C335.518 102.878 335.393 103.081 335.305 103.32C335.216 103.56 335.164 103.828 335.148 104.125L334.719 104.156C334.719 103.625 334.771 103.133 334.875 102.68C334.979 102.227 335.135 101.828 335.344 101.484C335.557 101.141 335.823 100.872 336.141 100.68C336.464 100.487 336.836 100.391 337.258 100.391C337.372 100.391 337.495 100.401 337.625 100.422C337.76 100.443 337.862 100.466 337.93 100.492ZM342.68 109.156C342.055 109.156 341.49 109.055 340.984 108.852C340.484 108.643 340.057 108.354 339.703 107.984C339.354 107.615 339.086 107.18 338.898 106.68C338.711 106.18 338.617 105.641 338.617 105.062V104.75C338.617 104.089 338.714 103.49 338.906 102.953C339.099 102.417 339.367 101.958 339.711 101.578C340.055 101.193 340.461 100.898 340.93 100.695C341.398 100.492 341.906 100.391 342.453 100.391C343.057 100.391 343.586 100.492 344.039 100.695C344.492 100.898 344.867 101.185 345.164 101.555C345.466 101.919 345.69 102.354 345.836 102.859C345.987 103.365 346.062 103.922 346.062 104.531V105.336H339.531V103.984H344.203V103.836C344.193 103.497 344.125 103.18 344 102.883C343.88 102.586 343.695 102.346 343.445 102.164C343.195 101.982 342.862 101.891 342.445 101.891C342.133 101.891 341.854 101.958 341.609 102.094C341.37 102.224 341.169 102.414 341.008 102.664C340.846 102.914 340.721 103.216 340.633 103.57C340.549 103.919 340.508 104.312 340.508 104.75V105.062C340.508 105.432 340.557 105.776 340.656 106.094C340.76 106.406 340.911 106.68 341.109 106.914C341.307 107.148 341.547 107.333 341.828 107.469C342.109 107.599 342.43 107.664 342.789 107.664C343.242 107.664 343.646 107.573 344 107.391C344.354 107.208 344.661 106.951 344.922 106.617L345.914 107.578C345.732 107.844 345.495 108.099 345.203 108.344C344.911 108.583 344.555 108.779 344.133 108.93C343.716 109.081 343.232 109.156 342.68 109.156ZM353.969 108.078L356.266 100.547H358.281L354.891 110.289C354.812 110.497 354.711 110.724 354.586 110.969C354.461 111.214 354.297 111.445 354.094 111.664C353.896 111.888 353.648 112.068 353.352 112.203C353.055 112.344 352.695 112.414 352.273 112.414C352.107 112.414 351.945 112.398 351.789 112.367C351.638 112.341 351.495 112.312 351.359 112.281L351.352 110.844C351.404 110.849 351.466 110.854 351.539 110.859C351.617 110.865 351.68 110.867 351.727 110.867C352.039 110.867 352.299 110.828 352.508 110.75C352.716 110.677 352.885 110.557 353.016 110.391C353.151 110.224 353.266 110 353.359 109.719L353.969 108.078ZM352.672 100.547L354.68 106.875L355.016 108.859L353.711 109.195L350.641 100.547H352.672ZM358.875 104.867V104.688C358.875 104.078 358.964 103.513 359.141 102.992C359.318 102.466 359.573 102.01 359.906 101.625C360.245 101.234 360.656 100.932 361.141 100.719C361.63 100.5 362.182 100.391 362.797 100.391C363.417 100.391 363.969 100.5 364.453 100.719C364.943 100.932 365.357 101.234 365.695 101.625C366.034 102.01 366.292 102.466 366.469 102.992C366.646 103.513 366.734 104.078 366.734 104.688V104.867C366.734 105.477 366.646 106.042 366.469 106.562C366.292 107.083 366.034 107.539 365.695 107.93C365.357 108.315 364.945 108.617 364.461 108.836C363.977 109.049 363.427 109.156 362.812 109.156C362.193 109.156 361.638 109.049 361.148 108.836C360.664 108.617 360.253 108.315 359.914 107.93C359.576 107.539 359.318 107.083 359.141 106.562C358.964 106.042 358.875 105.477 358.875 104.867ZM360.758 104.688V104.867C360.758 105.247 360.797 105.607 360.875 105.945C360.953 106.284 361.076 106.581 361.242 106.836C361.409 107.091 361.622 107.292 361.883 107.438C362.143 107.583 362.453 107.656 362.812 107.656C363.161 107.656 363.464 107.583 363.719 107.438C363.979 107.292 364.193 107.091 364.359 106.836C364.526 106.581 364.648 106.284 364.727 105.945C364.81 105.607 364.852 105.247 364.852 104.867V104.688C364.852 104.312 364.81 103.958 364.727 103.625C364.648 103.286 364.523 102.987 364.352 102.727C364.185 102.466 363.971 102.263 363.711 102.117C363.456 101.966 363.151 101.891 362.797 101.891C362.443 101.891 362.135 101.966 361.875 102.117C361.62 102.263 361.409 102.466 361.242 102.727C361.076 102.987 360.953 103.286 360.875 103.625C360.797 103.958 360.758 104.312 360.758 104.688ZM373.398 107.008V100.547H375.289V109H373.508L373.398 107.008ZM373.664 105.25L374.297 105.234C374.297 105.802 374.234 106.326 374.109 106.805C373.984 107.279 373.792 107.693 373.531 108.047C373.271 108.396 372.938 108.669 372.531 108.867C372.125 109.06 371.638 109.156 371.07 109.156C370.659 109.156 370.281 109.096 369.938 108.977C369.594 108.857 369.297 108.672 369.047 108.422C368.802 108.172 368.612 107.846 368.477 107.445C368.341 107.044 368.273 106.565 368.273 106.008V100.547H370.156V106.023C370.156 106.331 370.193 106.589 370.266 106.797C370.339 107 370.438 107.164 370.562 107.289C370.688 107.414 370.833 107.503 371 107.555C371.167 107.607 371.344 107.633 371.531 107.633C372.068 107.633 372.49 107.529 372.797 107.32C373.109 107.107 373.331 106.82 373.461 106.461C373.596 106.102 373.664 105.698 373.664 105.25ZM385.969 107.305V103.273C385.969 102.971 385.914 102.711 385.805 102.492C385.695 102.273 385.529 102.104 385.305 101.984C385.086 101.865 384.81 101.805 384.477 101.805C384.169 101.805 383.904 101.857 383.68 101.961C383.456 102.065 383.281 102.206 383.156 102.383C383.031 102.56 382.969 102.76 382.969 102.984H381.094C381.094 102.651 381.174 102.328 381.336 102.016C381.497 101.703 381.732 101.424 382.039 101.18C382.346 100.935 382.714 100.742 383.141 100.602C383.568 100.461 384.047 100.391 384.578 100.391C385.214 100.391 385.776 100.497 386.266 100.711C386.76 100.924 387.148 101.247 387.43 101.68C387.716 102.107 387.859 102.643 387.859 103.289V107.047C387.859 107.432 387.885 107.779 387.938 108.086C387.995 108.388 388.076 108.651 388.18 108.875V109H386.25C386.161 108.797 386.091 108.539 386.039 108.227C385.992 107.909 385.969 107.602 385.969 107.305ZM386.242 103.859L386.258 105.023H384.906C384.557 105.023 384.25 105.057 383.984 105.125C383.719 105.188 383.497 105.281 383.32 105.406C383.143 105.531 383.01 105.682 382.922 105.859C382.833 106.036 382.789 106.237 382.789 106.461C382.789 106.685 382.841 106.891 382.945 107.078C383.049 107.26 383.201 107.404 383.398 107.508C383.602 107.612 383.846 107.664 384.133 107.664C384.518 107.664 384.854 107.586 385.141 107.43C385.432 107.268 385.661 107.073 385.828 106.844C385.995 106.609 386.083 106.388 386.094 106.18L386.703 107.016C386.641 107.229 386.534 107.458 386.383 107.703C386.232 107.948 386.034 108.182 385.789 108.406C385.549 108.625 385.26 108.805 384.922 108.945C384.589 109.086 384.203 109.156 383.766 109.156C383.214 109.156 382.721 109.047 382.289 108.828C381.857 108.604 381.518 108.305 381.273 107.93C381.029 107.549 380.906 107.12 380.906 106.641C380.906 106.193 380.99 105.797 381.156 105.453C381.328 105.104 381.578 104.812 381.906 104.578C382.24 104.344 382.646 104.167 383.125 104.047C383.604 103.922 384.151 103.859 384.766 103.859H386.242ZM391.719 102.156V109H389.836V100.547H391.633L391.719 102.156ZM394.305 100.492L394.289 102.242C394.174 102.221 394.049 102.206 393.914 102.195C393.784 102.185 393.654 102.18 393.523 102.18C393.201 102.18 392.917 102.227 392.672 102.32C392.427 102.409 392.221 102.539 392.055 102.711C391.893 102.878 391.768 103.081 391.68 103.32C391.591 103.56 391.539 103.828 391.523 104.125L391.094 104.156C391.094 103.625 391.146 103.133 391.25 102.68C391.354 102.227 391.51 101.828 391.719 101.484C391.932 101.141 392.198 100.872 392.516 100.68C392.839 100.487 393.211 100.391 393.633 100.391C393.747 100.391 393.87 100.401 394 100.422C394.135 100.443 394.237 100.466 394.305 100.492ZM399.055 109.156C398.43 109.156 397.865 109.055 397.359 108.852C396.859 108.643 396.432 108.354 396.078 107.984C395.729 107.615 395.461 107.18 395.273 106.68C395.086 106.18 394.992 105.641 394.992 105.062V104.75C394.992 104.089 395.089 103.49 395.281 102.953C395.474 102.417 395.742 101.958 396.086 101.578C396.43 101.193 396.836 100.898 397.305 100.695C397.773 100.492 398.281 100.391 398.828 100.391C399.432 100.391 399.961 100.492 400.414 100.695C400.867 100.898 401.242 101.185 401.539 101.555C401.841 101.919 402.065 102.354 402.211 102.859C402.362 103.365 402.438 103.922 402.438 104.531V105.336H395.906V103.984H400.578V103.836C400.568 103.497 400.5 103.18 400.375 102.883C400.255 102.586 400.07 102.346 399.82 102.164C399.57 101.982 399.237 101.891 398.82 101.891C398.508 101.891 398.229 101.958 397.984 102.094C397.745 102.224 397.544 102.414 397.383 102.664C397.221 102.914 397.096 103.216 397.008 103.57C396.924 103.919 396.883 104.312 396.883 104.75V105.062C396.883 105.432 396.932 105.776 397.031 106.094C397.135 106.406 397.286 106.68 397.484 106.914C397.682 107.148 397.922 107.333 398.203 107.469C398.484 107.599 398.805 107.664 399.164 107.664C399.617 107.664 400.021 107.573 400.375 107.391C400.729 107.208 401.036 106.951 401.297 106.617L402.289 107.578C402.107 107.844 401.87 108.099 401.578 108.344C401.286 108.583 400.93 108.779 400.508 108.93C400.091 109.081 399.607 109.156 399.055 109.156ZM413.305 100.547H415.016V108.766C415.016 109.526 414.854 110.172 414.531 110.703C414.208 111.234 413.758 111.638 413.18 111.914C412.602 112.195 411.932 112.336 411.172 112.336C410.849 112.336 410.49 112.289 410.094 112.195C409.703 112.102 409.323 111.951 408.953 111.742C408.589 111.539 408.284 111.271 408.039 110.938L408.922 109.828C409.224 110.188 409.557 110.451 409.922 110.617C410.286 110.784 410.669 110.867 411.07 110.867C411.503 110.867 411.87 110.786 412.172 110.625C412.479 110.469 412.716 110.237 412.883 109.93C413.049 109.622 413.133 109.247 413.133 108.805V102.461L413.305 100.547ZM407.562 104.867V104.703C407.562 104.062 407.641 103.479 407.797 102.953C407.953 102.422 408.177 101.966 408.469 101.586C408.76 101.201 409.115 100.906 409.531 100.703C409.948 100.495 410.419 100.391 410.945 100.391C411.492 100.391 411.958 100.49 412.344 100.688C412.734 100.885 413.06 101.169 413.32 101.539C413.581 101.904 413.784 102.341 413.93 102.852C414.081 103.357 414.193 103.919 414.266 104.539V105.062C414.198 105.667 414.083 106.219 413.922 106.719C413.76 107.219 413.547 107.651 413.281 108.016C413.016 108.38 412.688 108.661 412.297 108.859C411.911 109.057 411.456 109.156 410.93 109.156C410.414 109.156 409.948 109.049 409.531 108.836C409.12 108.622 408.766 108.323 408.469 107.938C408.177 107.552 407.953 107.099 407.797 106.578C407.641 106.052 407.562 105.482 407.562 104.867ZM409.445 104.703V104.867C409.445 105.253 409.482 105.612 409.555 105.945C409.633 106.279 409.75 106.573 409.906 106.828C410.068 107.078 410.271 107.276 410.516 107.422C410.766 107.562 411.06 107.633 411.398 107.633C411.841 107.633 412.203 107.539 412.484 107.352C412.771 107.164 412.99 106.911 413.141 106.594C413.297 106.271 413.406 105.911 413.469 105.516V104.102C413.438 103.794 413.372 103.508 413.273 103.242C413.18 102.977 413.052 102.745 412.891 102.547C412.729 102.344 412.526 102.188 412.281 102.078C412.036 101.964 411.747 101.906 411.414 101.906C411.076 101.906 410.781 101.979 410.531 102.125C410.281 102.271 410.076 102.471 409.914 102.727C409.758 102.982 409.641 103.279 409.562 103.617C409.484 103.956 409.445 104.318 409.445 104.703ZM416.609 104.867V104.688C416.609 104.078 416.698 103.513 416.875 102.992C417.052 102.466 417.307 102.01 417.641 101.625C417.979 101.234 418.391 100.932 418.875 100.719C419.365 100.5 419.917 100.391 420.531 100.391C421.151 100.391 421.703 100.5 422.188 100.719C422.677 100.932 423.091 101.234 423.43 101.625C423.768 102.01 424.026 102.466 424.203 102.992C424.38 103.513 424.469 104.078 424.469 104.688V104.867C424.469 105.477 424.38 106.042 424.203 106.562C424.026 107.083 423.768 107.539 423.43 107.93C423.091 108.315 422.68 108.617 422.195 108.836C421.711 109.049 421.161 109.156 420.547 109.156C419.927 109.156 419.372 109.049 418.883 108.836C418.398 108.617 417.987 108.315 417.648 107.93C417.31 107.539 417.052 107.083 416.875 106.562C416.698 106.042 416.609 105.477 416.609 104.867ZM418.492 104.688V104.867C418.492 105.247 418.531 105.607 418.609 105.945C418.688 106.284 418.81 106.581 418.977 106.836C419.143 107.091 419.357 107.292 419.617 107.438C419.878 107.583 420.188 107.656 420.547 107.656C420.896 107.656 421.198 107.583 421.453 107.438C421.714 107.292 421.927 107.091 422.094 106.836C422.26 106.581 422.383 106.284 422.461 105.945C422.544 105.607 422.586 105.247 422.586 104.867V104.688C422.586 104.312 422.544 103.958 422.461 103.625C422.383 103.286 422.258 102.987 422.086 102.727C421.919 102.466 421.706 102.263 421.445 102.117C421.19 101.966 420.885 101.891 420.531 101.891C420.177 101.891 419.87 101.966 419.609 102.117C419.354 102.263 419.143 102.466 418.977 102.727C418.81 102.987 418.688 103.286 418.609 103.625C418.531 103.958 418.492 104.312 418.492 104.688ZM428.062 100.547V109H426.172V100.547H428.062ZM426.047 98.3281C426.047 98.0417 426.141 97.8047 426.328 97.6172C426.521 97.4245 426.786 97.3281 427.125 97.3281C427.458 97.3281 427.721 97.4245 427.914 97.6172C428.107 97.8047 428.203 98.0417 428.203 98.3281C428.203 98.6094 428.107 98.8438 427.914 99.0312C427.721 99.2188 427.458 99.3125 427.125 99.3125C426.786 99.3125 426.521 99.2188 426.328 99.0312C426.141 98.8438 426.047 98.6094 426.047 98.3281ZM431.992 102.352V109H430.109V100.547H431.883L431.992 102.352ZM431.656 104.461L431.047 104.453C431.052 103.854 431.135 103.305 431.297 102.805C431.464 102.305 431.693 101.875 431.984 101.516C432.281 101.156 432.635 100.88 433.047 100.688C433.458 100.49 433.917 100.391 434.422 100.391C434.828 100.391 435.195 100.448 435.523 100.562C435.857 100.672 436.141 100.852 436.375 101.102C436.615 101.352 436.797 101.677 436.922 102.078C437.047 102.474 437.109 102.961 437.109 103.539V109H435.219V103.531C435.219 103.125 435.159 102.805 435.039 102.57C434.924 102.331 434.755 102.161 434.531 102.062C434.312 101.958 434.039 101.906 433.711 101.906C433.388 101.906 433.099 101.974 432.844 102.109C432.589 102.245 432.372 102.43 432.195 102.664C432.023 102.898 431.891 103.169 431.797 103.477C431.703 103.784 431.656 104.112 431.656 104.461ZM444.445 100.547H446.156V108.766C446.156 109.526 445.995 110.172 445.672 110.703C445.349 111.234 444.898 111.638 444.32 111.914C443.742 112.195 443.073 112.336 442.312 112.336C441.99 112.336 441.63 112.289 441.234 112.195C440.844 112.102 440.464 111.951 440.094 111.742C439.729 111.539 439.424 111.271 439.18 110.938L440.062 109.828C440.365 110.188 440.698 110.451 441.062 110.617C441.427 110.784 441.81 110.867 442.211 110.867C442.643 110.867 443.01 110.786 443.312 110.625C443.62 110.469 443.857 110.237 444.023 109.93C444.19 109.622 444.273 109.247 444.273 108.805V102.461L444.445 100.547ZM438.703 104.867V104.703C438.703 104.062 438.781 103.479 438.938 102.953C439.094 102.422 439.318 101.966 439.609 101.586C439.901 101.201 440.255 100.906 440.672 100.703C441.089 100.495 441.56 100.391 442.086 100.391C442.633 100.391 443.099 100.49 443.484 100.688C443.875 100.885 444.201 101.169 444.461 101.539C444.721 101.904 444.924 102.341 445.07 102.852C445.221 103.357 445.333 103.919 445.406 104.539V105.062C445.339 105.667 445.224 106.219 445.062 106.719C444.901 107.219 444.688 107.651 444.422 108.016C444.156 108.38 443.828 108.661 443.438 108.859C443.052 109.057 442.596 109.156 442.07 109.156C441.555 109.156 441.089 109.049 440.672 108.836C440.26 108.622 439.906 108.323 439.609 107.938C439.318 107.552 439.094 107.099 438.938 106.578C438.781 106.052 438.703 105.482 438.703 104.867ZM440.586 104.703V104.867C440.586 105.253 440.622 105.612 440.695 105.945C440.773 106.279 440.891 106.573 441.047 106.828C441.208 107.078 441.411 107.276 441.656 107.422C441.906 107.562 442.201 107.633 442.539 107.633C442.982 107.633 443.344 107.539 443.625 107.352C443.911 107.164 444.13 106.911 444.281 106.594C444.438 106.271 444.547 105.911 444.609 105.516V104.102C444.578 103.794 444.513 103.508 444.414 103.242C444.32 102.977 444.193 102.745 444.031 102.547C443.87 102.344 443.667 102.188 443.422 102.078C443.177 101.964 442.888 101.906 442.555 101.906C442.216 101.906 441.922 101.979 441.672 102.125C441.422 102.271 441.216 102.471 441.055 102.727C440.898 102.982 440.781 103.279 440.703 103.617C440.625 103.956 440.586 104.318 440.586 104.703ZM455.969 100.547V101.922H451.203V100.547H455.969ZM452.578 98.4766H454.461V106.664C454.461 106.924 454.497 107.125 454.57 107.266C454.648 107.401 454.755 107.492 454.891 107.539C455.026 107.586 455.185 107.609 455.367 107.609C455.497 107.609 455.622 107.602 455.742 107.586C455.862 107.57 455.958 107.555 456.031 107.539L456.039 108.977C455.883 109.023 455.701 109.065 455.492 109.102C455.289 109.138 455.055 109.156 454.789 109.156C454.357 109.156 453.974 109.081 453.641 108.93C453.307 108.773 453.047 108.521 452.859 108.172C452.672 107.823 452.578 107.359 452.578 106.781V98.4766ZM456.875 104.867V104.688C456.875 104.078 456.964 103.513 457.141 102.992C457.318 102.466 457.573 102.01 457.906 101.625C458.245 101.234 458.656 100.932 459.141 100.719C459.63 100.5 460.182 100.391 460.797 100.391C461.417 100.391 461.969 100.5 462.453 100.719C462.943 100.932 463.357 101.234 463.695 101.625C464.034 102.01 464.292 102.466 464.469 102.992C464.646 103.513 464.734 104.078 464.734 104.688V104.867C464.734 105.477 464.646 106.042 464.469 106.562C464.292 107.083 464.034 107.539 463.695 107.93C463.357 108.315 462.945 108.617 462.461 108.836C461.977 109.049 461.427 109.156 460.812 109.156C460.193 109.156 459.638 109.049 459.148 108.836C458.664 108.617 458.253 108.315 457.914 107.93C457.576 107.539 457.318 107.083 457.141 106.562C456.964 106.042 456.875 105.477 456.875 104.867ZM458.758 104.688V104.867C458.758 105.247 458.797 105.607 458.875 105.945C458.953 106.284 459.076 106.581 459.242 106.836C459.409 107.091 459.622 107.292 459.883 107.438C460.143 107.583 460.453 107.656 460.812 107.656C461.161 107.656 461.464 107.583 461.719 107.438C461.979 107.292 462.193 107.091 462.359 106.836C462.526 106.581 462.648 106.284 462.727 105.945C462.81 105.607 462.852 105.247 462.852 104.867V104.688C462.852 104.312 462.81 103.958 462.727 103.625C462.648 103.286 462.523 102.987 462.352 102.727C462.185 102.466 461.971 102.263 461.711 102.117C461.456 101.966 461.151 101.891 460.797 101.891C460.443 101.891 460.135 101.966 459.875 102.117C459.62 102.263 459.409 102.466 459.242 102.727C459.076 102.987 458.953 103.286 458.875 103.625C458.797 103.958 458.758 104.312 458.758 104.688ZM466.391 108.062C466.391 107.771 466.49 107.526 466.688 107.328C466.885 107.125 467.154 107.023 467.492 107.023C467.836 107.023 468.104 107.125 468.297 107.328C468.495 107.526 468.594 107.771 468.594 108.062C468.594 108.354 468.495 108.599 468.297 108.797C468.104 108.995 467.836 109.094 467.492 109.094C467.154 109.094 466.885 108.995 466.688 108.797C466.49 108.599 466.391 108.354 466.391 108.062Z" fill="#1F1F1F"/>
<path d="M203.464 14.0205H198.507L197.47 17H195.158L199.992 4.20312H201.987L206.83 17H204.51L203.464 14.0205ZM199.131 12.2275H202.84L200.985 6.91895L199.131 12.2275ZM210.354 17H208.219V3.5H210.354V17ZM215.364 5.17871V7.49023H217.043V9.07227H215.364V14.3809C215.364 14.7441 215.435 15.0078 215.575 15.1719C215.722 15.3301 215.979 15.4092 216.349 15.4092C216.595 15.4092 216.844 15.3799 217.096 15.3213V16.9736C216.609 17.1084 216.141 17.1758 215.689 17.1758C214.049 17.1758 213.229 16.2705 213.229 14.46V9.07227H211.664V7.49023H213.229V5.17871H215.364ZM220.98 17H218.845V7.49023H220.98V17ZM220.576 3.56152H223.011L220.576 6.22461H218.862L220.576 3.56152ZM228.39 9.44141C228.108 9.39453 227.818 9.37109 227.52 9.37109C226.541 9.37109 225.882 9.74609 225.542 10.4961V17H223.406V7.49023H225.445L225.498 8.55371C226.014 7.72754 226.729 7.31445 227.643 7.31445C227.947 7.31445 228.199 7.35547 228.398 7.4375L228.39 9.44141ZM235.157 17C235.063 16.8184 234.981 16.5225 234.911 16.1123C234.231 16.8213 233.399 17.1758 232.415 17.1758C231.46 17.1758 230.681 16.9033 230.077 16.3584C229.474 15.8135 229.172 15.1396 229.172 14.3369C229.172 13.3232 229.547 12.5469 230.297 12.0078C231.053 11.4629 232.131 11.1904 233.531 11.1904H234.841V10.5664C234.841 10.0742 234.703 9.68164 234.428 9.38867C234.152 9.08984 233.733 8.94043 233.171 8.94043C232.685 8.94043 232.286 9.06348 231.976 9.30957C231.665 9.5498 231.51 9.85742 231.51 10.2324H229.374C229.374 9.71094 229.547 9.22461 229.893 8.77344C230.238 8.31641 230.707 7.95898 231.299 7.70117C231.896 7.44336 232.562 7.31445 233.294 7.31445C234.407 7.31445 235.295 7.5957 235.957 8.1582C236.619 8.71484 236.959 9.5 236.977 10.5137V14.8027C236.977 15.6582 237.097 16.3408 237.337 16.8506V17H235.157ZM232.811 15.4619C233.232 15.4619 233.628 15.3594 233.997 15.1543C234.372 14.9492 234.653 14.6738 234.841 14.3281V12.5352H233.689C232.898 12.5352 232.304 12.6729 231.905 12.9482C231.507 13.2236 231.308 13.6133 231.308 14.1172C231.308 14.5273 231.442 14.8555 231.712 15.1016C231.987 15.3418 232.354 15.4619 232.811 15.4619ZM244.544 14.416C244.544 14.0352 244.386 13.7451 244.069 13.5459C243.759 13.3467 243.24 13.1709 242.514 13.0186C241.787 12.8662 241.181 12.6729 240.694 12.4385C239.628 11.9229 239.095 11.1758 239.095 10.1973C239.095 9.37695 239.44 8.69141 240.132 8.14062C240.823 7.58984 241.702 7.31445 242.769 7.31445C243.905 7.31445 244.822 7.5957 245.52 8.1582C246.223 8.7207 246.574 9.4502 246.574 10.3467H244.438C244.438 9.93652 244.286 9.59668 243.981 9.32715C243.677 9.05176 243.272 8.91406 242.769 8.91406C242.3 8.91406 241.916 9.02246 241.617 9.23926C241.324 9.45605 241.178 9.74609 241.178 10.1094C241.178 10.4375 241.315 10.6924 241.591 10.874C241.866 11.0557 242.423 11.2402 243.261 11.4277C244.099 11.6094 244.755 11.8291 245.229 12.0869C245.71 12.3389 246.064 12.6436 246.293 13.001C246.527 13.3584 246.645 13.792 246.645 14.3018C246.645 15.1572 246.29 15.8516 245.581 16.3848C244.872 16.9121 243.943 17.1758 242.795 17.1758C242.016 17.1758 241.321 17.0352 240.712 16.7539C240.103 16.4727 239.628 16.0859 239.288 15.5938C238.948 15.1016 238.778 14.5713 238.778 14.0029H240.853C240.882 14.5068 241.072 14.8965 241.424 15.1719C241.775 15.4414 242.241 15.5762 242.821 15.5762C243.384 15.5762 243.812 15.4707 244.104 15.2598C244.397 15.043 244.544 14.7617 244.544 14.416ZM258.22 13.3965H256.251L255.583 17H254.106L254.774 13.3965H252.744V12.0078H255.038L255.548 9.25684H253.412V7.85938H255.812L256.497 4.20312H257.965L257.279 7.85938H259.257L259.942 4.20312H261.41L260.725 7.85938H262.553V9.25684H260.461L259.951 12.0078H261.894V13.3965H259.688L259.02 17H257.552L258.22 13.3965ZM256.515 12.0078H258.483L258.993 9.25684H257.024L256.515 12.0078ZM272.449 17H263.845V15.5322L268.107 10.8828C268.723 10.1973 269.159 9.62598 269.417 9.16895C269.681 8.70605 269.812 8.24316 269.812 7.78027C269.812 7.1709 269.64 6.67871 269.294 6.30371C268.954 5.92871 268.494 5.74121 267.914 5.74121C267.223 5.74121 266.687 5.95215 266.306 6.37402C265.925 6.7959 265.734 7.37305 265.734 8.10547H263.599C263.599 7.32617 263.774 6.62598 264.126 6.00488C264.483 5.37793 264.99 4.8916 265.646 4.5459C266.309 4.2002 267.07 4.02734 267.932 4.02734C269.174 4.02734 270.152 4.34082 270.867 4.96777C271.588 5.58887 271.948 6.4502 271.948 7.55176C271.948 8.19043 271.767 8.86133 271.403 9.56445C271.046 10.2617 270.457 11.0557 269.637 11.9463L266.508 15.2949H272.449V17Z" fill="#1F1F1F"/>
<line x1="129" y1="10" x2="171.048" y2="10" stroke="#1F1F1F" stroke-width="2"/>
<line x1="298" y1="9" x2="340.048" y2="9" stroke="#1F1F1F" stroke-width="2"/>
</svg>
