<svg width="442" height="114" viewBox="0 0 442 114" fill="none" xmlns="http://www.w3.org/2000/svg">
<path d="M77.6094 65.8438H68.2656V72.8438H79.1875V76H64.3125V53.25H79.0781V56.4375H68.2656V62.7188H77.6094V65.8438ZM85.5625 59.0938L85.6719 61.0469C86.9219 59.5365 88.5625 58.7812 90.5938 58.7812C94.1146 58.7812 95.9062 60.7969 95.9688 64.8281V76H92.1719V65.0469C92.1719 63.974 91.9375 63.1823 91.4688 62.6719C91.0104 62.151 90.2552 61.8906 89.2031 61.8906C87.6719 61.8906 86.5312 62.5833 85.7812 63.9688V76H81.9844V59.0938H85.5625ZM107.297 76.3125C104.891 76.3125 102.938 75.5573 101.438 74.0469C99.9479 72.526 99.2031 70.5052 99.2031 67.9844V67.5156C99.2031 65.8281 99.526 64.3229 100.172 63C100.828 61.6667 101.745 60.6302 102.922 59.8906C104.099 59.151 105.411 58.7812 106.859 58.7812C109.161 58.7812 110.938 59.5156 112.188 60.9844C113.448 62.4531 114.078 64.5312 114.078 67.2188V68.75H103.031C103.146 70.1458 103.609 71.25 104.422 72.0625C105.245 72.875 106.276 73.2812 107.516 73.2812C109.255 73.2812 110.672 72.5781 111.766 71.1719L113.812 73.125C113.135 74.1354 112.229 74.9219 111.094 75.4844C109.969 76.0365 108.703 76.3125 107.297 76.3125ZM106.844 61.8281C105.802 61.8281 104.958 62.1927 104.312 62.9219C103.677 63.651 103.271 64.6667 103.094 65.9688H110.328V65.6875C110.245 64.4167 109.906 63.4583 109.312 62.8125C108.719 62.1562 107.896 61.8281 106.844 61.8281ZM125.891 62.5625C125.391 62.4792 124.875 62.4375 124.344 62.4375C122.604 62.4375 121.432 63.1042 120.828 64.4375V76H117.031V59.0938H120.656L120.75 60.9844C121.667 59.5156 122.938 58.7812 124.562 58.7812C125.104 58.7812 125.552 58.8542 125.906 59L125.891 62.5625ZM127.312 67.4219C127.312 64.7969 127.927 62.7031 129.156 61.1406C130.396 59.5677 132.036 58.7812 134.078 58.7812C136.005 58.7812 137.521 59.4531 138.625 60.7969L138.797 59.0938H142.219V75.4844C142.219 77.7031 141.526 79.4531 140.141 80.7344C138.766 82.0156 136.906 82.6562 134.562 82.6562C133.323 82.6562 132.109 82.3958 130.922 81.875C129.745 81.3646 128.849 80.6927 128.234 79.8594L130.031 77.5781C131.198 78.9635 132.635 79.6562 134.344 79.6562C135.604 79.6562 136.599 79.3125 137.328 78.625C138.057 77.9479 138.422 76.9479 138.422 75.625V74.4844C137.328 75.7031 135.87 76.3125 134.047 76.3125C132.068 76.3125 130.448 75.526 129.188 73.9531C127.938 72.3802 127.312 70.2031 127.312 67.4219ZM131.094 67.75C131.094 69.4479 131.438 70.7865 132.125 71.7656C132.823 72.7344 133.786 73.2188 135.016 73.2188C136.547 73.2188 137.682 72.5625 138.422 71.25V63.8125C137.703 62.5312 136.578 61.8906 135.047 61.8906C133.797 61.8906 132.823 62.3854 132.125 63.375C131.438 64.3646 131.094 65.8229 131.094 67.75ZM152.047 70.5625L155.484 59.0938H159.531L152.812 78.5625C151.781 81.4062 150.031 82.8281 147.562 82.8281C147.01 82.8281 146.401 82.7344 145.734 82.5469V79.6094L146.453 79.6562C147.411 79.6562 148.13 79.4792 148.609 79.125C149.099 78.7812 149.484 78.1979 149.766 77.375L150.312 75.9219L144.375 59.0938H148.469L152.047 70.5625ZM173.734 76H169.938V59.0938H173.734V76ZM169.703 54.7031C169.703 54.1198 169.885 53.6354 170.25 53.25C170.625 52.8646 171.156 52.6719 171.844 52.6719C172.531 52.6719 173.062 52.8646 173.438 53.25C173.812 53.6354 174 54.1198 174 54.7031C174 55.276 173.812 55.7552 173.438 56.1406C173.062 56.5156 172.531 56.7031 171.844 56.7031C171.156 56.7031 170.625 56.5156 170.25 56.1406C169.885 55.7552 169.703 55.276 169.703 54.7031ZM187.359 71.4062C187.359 70.7292 187.078 70.2135 186.516 69.8594C185.964 69.5052 185.042 69.1927 183.75 68.9219C182.458 68.651 181.38 68.3073 180.516 67.8906C178.62 66.974 177.672 65.6458 177.672 63.9062C177.672 62.4479 178.286 61.2292 179.516 60.25C180.745 59.2708 182.307 58.7812 184.203 58.7812C186.224 58.7812 187.854 59.2812 189.094 60.2812C190.344 61.2812 190.969 62.5781 190.969 64.1719H187.172C187.172 63.4427 186.901 62.8385 186.359 62.3594C185.818 61.8698 185.099 61.625 184.203 61.625C183.37 61.625 182.688 61.8177 182.156 62.2031C181.635 62.5885 181.375 63.1042 181.375 63.75C181.375 64.3333 181.62 64.7865 182.109 65.1094C182.599 65.4323 183.589 65.7604 185.078 66.0938C186.568 66.4167 187.734 66.8073 188.578 67.2656C189.432 67.7135 190.062 68.2552 190.469 68.8906C190.885 69.526 191.094 70.2969 191.094 71.2031C191.094 72.724 190.464 73.9583 189.203 74.9062C187.943 75.8438 186.292 76.3125 184.25 76.3125C182.865 76.3125 181.63 76.0625 180.547 75.5625C179.464 75.0625 178.62 74.375 178.016 73.5C177.411 72.625 177.109 71.6823 177.109 70.6719H180.797C180.849 71.5677 181.188 72.2604 181.812 72.75C182.438 73.2292 183.266 73.4688 184.297 73.4688C185.297 73.4688 186.057 73.2812 186.578 72.9062C187.099 72.5208 187.359 72.0208 187.359 71.4062ZM203.719 76V61.9062H201.141V59.0938H203.719V57.5469C203.719 55.6719 204.24 54.224 205.281 53.2031C206.323 52.1823 207.781 51.6719 209.656 51.6719C210.323 51.6719 211.031 51.7656 211.781 51.9531L211.688 54.9219C211.271 54.8385 210.786 54.7969 210.234 54.7969C208.422 54.7969 207.516 55.7292 207.516 57.5938V59.0938H210.953V61.9062H207.516V76H203.719ZM213.016 67.3906C213.016 65.7344 213.344 64.2448 214 62.9219C214.656 61.5885 215.578 60.5677 216.766 59.8594C217.953 59.1406 219.318 58.7812 220.859 58.7812C223.141 58.7812 224.99 59.5156 226.406 60.9844C227.833 62.4531 228.604 64.401 228.719 66.8281L228.734 67.7188C228.734 69.3854 228.411 70.875 227.766 72.1875C227.13 73.5 226.214 74.5156 225.016 75.2344C223.828 75.9531 222.453 76.3125 220.891 76.3125C218.505 76.3125 216.594 75.5208 215.156 73.9375C213.729 72.3438 213.016 70.224 213.016 67.5781V67.3906ZM216.812 67.7188C216.812 69.4583 217.172 70.8229 217.891 71.8125C218.609 72.7917 219.609 73.2812 220.891 73.2812C222.172 73.2812 223.167 72.7812 223.875 71.7812C224.594 70.7812 224.953 69.3177 224.953 67.3906C224.953 65.6823 224.583 64.3281 223.844 63.3281C223.115 62.3281 222.12 61.8281 220.859 61.8281C219.62 61.8281 218.635 62.3229 217.906 63.3125C217.177 64.2917 216.812 65.7604 216.812 67.7188ZM240.797 62.5625C240.297 62.4792 239.781 62.4375 239.25 62.4375C237.51 62.4375 236.339 63.1042 235.734 64.4375V76H231.938V59.0938H235.562L235.656 60.9844C236.573 59.5156 237.844 58.7812 239.469 58.7812C240.01 58.7812 240.458 58.8542 240.812 59L240.797 62.5625ZM264.828 65.8438H255.484V72.8438H266.406V76H251.531V53.25H266.297V56.4375H255.484V62.7188H264.828V65.8438ZM274.812 71.1875L278.391 59.0938H282.312L276.453 76H273.156L267.25 59.0938H271.188L274.812 71.1875ZM291.922 76.3125C289.516 76.3125 287.562 75.5573 286.062 74.0469C284.573 72.526 283.828 70.5052 283.828 67.9844V67.5156C283.828 65.8281 284.151 64.3229 284.797 63C285.453 61.6667 286.37 60.6302 287.547 59.8906C288.724 59.151 290.036 58.7812 291.484 58.7812C293.786 58.7812 295.562 59.5156 296.812 60.9844C298.073 62.4531 298.703 64.5312 298.703 67.2188V68.75H287.656C287.771 70.1458 288.234 71.25 289.047 72.0625C289.87 72.875 290.901 73.2812 292.141 73.2812C293.88 73.2812 295.297 72.5781 296.391 71.1719L298.438 73.125C297.76 74.1354 296.854 74.9219 295.719 75.4844C294.594 76.0365 293.328 76.3125 291.922 76.3125ZM291.469 61.8281C290.427 61.8281 289.583 62.1927 288.938 62.9219C288.302 63.651 287.896 64.6667 287.719 65.9688H294.953V65.6875C294.87 64.4167 294.531 63.4583 293.938 62.8125C293.344 62.1562 292.521 61.8281 291.469 61.8281ZM310.516 62.5625C310.016 62.4792 309.5 62.4375 308.969 62.4375C307.229 62.4375 306.057 63.1042 305.453 64.4375V76H301.656V59.0938H305.281L305.375 60.9844C306.292 59.5156 307.562 58.7812 309.188 58.7812C309.729 58.7812 310.177 58.8542 310.531 59L310.516 62.5625ZM319.109 70.5625L322.547 59.0938H326.594L319.875 78.5625C318.844 81.4062 317.094 82.8281 314.625 82.8281C314.073 82.8281 313.464 82.7344 312.797 82.5469V79.6094L313.516 79.6562C314.474 79.6562 315.193 79.4792 315.672 79.125C316.161 78.7812 316.547 78.1979 316.828 77.375L317.375 75.9219L311.438 59.0938H315.531L319.109 70.5625ZM327.828 67.3906C327.828 65.7344 328.156 64.2448 328.812 62.9219C329.469 61.5885 330.391 60.5677 331.578 59.8594C332.766 59.1406 334.13 58.7812 335.672 58.7812C337.953 58.7812 339.802 59.5156 341.219 60.9844C342.646 62.4531 343.417 64.401 343.531 66.8281L343.547 67.7188C343.547 69.3854 343.224 70.875 342.578 72.1875C341.943 73.5 341.026 74.5156 339.828 75.2344C338.641 75.9531 337.266 76.3125 335.703 76.3125C333.318 76.3125 331.406 75.5208 329.969 73.9375C328.542 72.3438 327.828 70.224 327.828 67.5781V67.3906ZM331.625 67.7188C331.625 69.4583 331.984 70.8229 332.703 71.8125C333.422 72.7917 334.422 73.2812 335.703 73.2812C336.984 73.2812 337.979 72.7812 338.688 71.7812C339.406 70.7812 339.766 69.3177 339.766 67.3906C339.766 65.6823 339.396 64.3281 338.656 63.3281C337.927 62.3281 336.932 61.8281 335.672 61.8281C334.432 61.8281 333.448 62.3229 332.719 63.3125C331.99 64.2917 331.625 65.7604 331.625 67.7188ZM350.281 59.0938L350.391 61.0469C351.641 59.5365 353.281 58.7812 355.312 58.7812C358.833 58.7812 360.625 60.7969 360.688 64.8281V76H356.891V65.0469C356.891 63.974 356.656 63.1823 356.188 62.6719C355.729 62.151 354.974 61.8906 353.922 61.8906C352.391 61.8906 351.25 62.5833 350.5 63.9688V76H346.703V59.0938H350.281ZM372.016 76.3125C369.609 76.3125 367.656 75.5573 366.156 74.0469C364.667 72.526 363.922 70.5052 363.922 67.9844V67.5156C363.922 65.8281 364.245 64.3229 364.891 63C365.547 61.6667 366.464 60.6302 367.641 59.8906C368.818 59.151 370.13 58.7812 371.578 58.7812C373.88 58.7812 375.656 59.5156 376.906 60.9844C378.167 62.4531 378.797 64.5312 378.797 67.2188V68.75H367.75C367.865 70.1458 368.328 71.25 369.141 72.0625C369.964 72.875 370.995 73.2812 372.234 73.2812C373.974 73.2812 375.391 72.5781 376.484 71.1719L378.531 73.125C377.854 74.1354 376.948 74.9219 375.812 75.4844C374.688 76.0365 373.422 76.3125 372.016 76.3125ZM371.562 61.8281C370.521 61.8281 369.677 62.1927 369.031 62.9219C368.396 63.651 367.99 64.6667 367.812 65.9688H375.047V65.6875C374.964 64.4167 374.625 63.4583 374.031 62.8125C373.438 62.1562 372.615 61.8281 371.562 61.8281Z" fill="#1F1F1F"/>
<path d="M181.464 14.0205H176.507L175.47 17H173.158L177.992 4.20312H179.987L184.83 17H182.51L181.464 14.0205ZM177.131 12.2275H180.84L178.985 6.91895L177.131 12.2275ZM188.354 17H186.219V3.5H188.354V17ZM193.364 5.17871V7.49023H195.043V9.07227H193.364V14.3809C193.364 14.7441 193.435 15.0078 193.575 15.1719C193.722 15.3301 193.979 15.4092 194.349 15.4092C194.595 15.4092 194.844 15.3799 195.096 15.3213V16.9736C194.609 17.1084 194.141 17.1758 193.689 17.1758C192.049 17.1758 191.229 16.2705 191.229 14.46V9.07227H189.664V7.49023H191.229V5.17871H193.364ZM198.98 17H196.845V7.49023H198.98V17ZM198.576 3.56152H201.011L198.576 6.22461H196.862L198.576 3.56152ZM206.39 9.44141C206.108 9.39453 205.818 9.37109 205.52 9.37109C204.541 9.37109 203.882 9.74609 203.542 10.4961V17H201.406V7.49023H203.445L203.498 8.55371C204.014 7.72754 204.729 7.31445 205.643 7.31445C205.947 7.31445 206.199 7.35547 206.398 7.4375L206.39 9.44141ZM213.157 17C213.063 16.8184 212.981 16.5225 212.911 16.1123C212.231 16.8213 211.399 17.1758 210.415 17.1758C209.46 17.1758 208.681 16.9033 208.077 16.3584C207.474 15.8135 207.172 15.1396 207.172 14.3369C207.172 13.3232 207.547 12.5469 208.297 12.0078C209.053 11.4629 210.131 11.1904 211.531 11.1904H212.841V10.5664C212.841 10.0742 212.703 9.68164 212.428 9.38867C212.152 9.08984 211.733 8.94043 211.171 8.94043C210.685 8.94043 210.286 9.06348 209.976 9.30957C209.665 9.5498 209.51 9.85742 209.51 10.2324H207.374C207.374 9.71094 207.547 9.22461 207.893 8.77344C208.238 8.31641 208.707 7.95898 209.299 7.70117C209.896 7.44336 210.562 7.31445 211.294 7.31445C212.407 7.31445 213.295 7.5957 213.957 8.1582C214.619 8.71484 214.959 9.5 214.977 10.5137V14.8027C214.977 15.6582 215.097 16.3408 215.337 16.8506V17H213.157ZM210.811 15.4619C211.232 15.4619 211.628 15.3594 211.997 15.1543C212.372 14.9492 212.653 14.6738 212.841 14.3281V12.5352H211.689C210.898 12.5352 210.304 12.6729 209.905 12.9482C209.507 13.2236 209.308 13.6133 209.308 14.1172C209.308 14.5273 209.442 14.8555 209.712 15.1016C209.987 15.3418 210.354 15.4619 210.811 15.4619ZM222.544 14.416C222.544 14.0352 222.386 13.7451 222.069 13.5459C221.759 13.3467 221.24 13.1709 220.514 13.0186C219.787 12.8662 219.181 12.6729 218.694 12.4385C217.628 11.9229 217.095 11.1758 217.095 10.1973C217.095 9.37695 217.44 8.69141 218.132 8.14062C218.823 7.58984 219.702 7.31445 220.769 7.31445C221.905 7.31445 222.822 7.5957 223.52 8.1582C224.223 8.7207 224.574 9.4502 224.574 10.3467H222.438C222.438 9.93652 222.286 9.59668 221.981 9.32715C221.677 9.05176 221.272 8.91406 220.769 8.91406C220.3 8.91406 219.916 9.02246 219.617 9.23926C219.324 9.45605 219.178 9.74609 219.178 10.1094C219.178 10.4375 219.315 10.6924 219.591 10.874C219.866 11.0557 220.423 11.2402 221.261 11.4277C222.099 11.6094 222.755 11.8291 223.229 12.0869C223.71 12.3389 224.064 12.6436 224.293 13.001C224.527 13.3584 224.645 13.792 224.645 14.3018C224.645 15.1572 224.29 15.8516 223.581 16.3848C222.872 16.9121 221.943 17.1758 220.795 17.1758C220.016 17.1758 219.321 17.0352 218.712 16.7539C218.103 16.4727 217.628 16.0859 217.288 15.5938C216.948 15.1016 216.778 14.5713 216.778 14.0029H218.853C218.882 14.5068 219.072 14.8965 219.424 15.1719C219.775 15.4414 220.241 15.5762 220.821 15.5762C221.384 15.5762 221.812 15.4707 222.104 15.2598C222.397 15.043 222.544 14.7617 222.544 14.416ZM230.7 17.1758C229.347 17.1758 228.248 16.751 227.404 15.9014C226.566 15.0459 226.147 13.9092 226.147 12.4912V12.2275C226.147 11.2783 226.329 10.4316 226.692 9.6875C227.062 8.9375 227.577 8.35449 228.239 7.93848C228.901 7.52246 229.64 7.31445 230.454 7.31445C231.749 7.31445 232.748 7.72754 233.451 8.55371C234.16 9.37988 234.515 10.5488 234.515 12.0605V12.9219H228.301C228.365 13.707 228.626 14.3281 229.083 14.7852C229.546 15.2422 230.126 15.4707 230.823 15.4707C231.802 15.4707 232.599 15.0752 233.214 14.2842L234.365 15.3828C233.984 15.9512 233.475 16.3936 232.836 16.71C232.203 17.0205 231.491 17.1758 230.7 17.1758ZM230.445 9.02832C229.859 9.02832 229.385 9.2334 229.021 9.64355C228.664 10.0537 228.436 10.625 228.336 11.3574H232.405V11.1992C232.358 10.4844 232.168 9.94531 231.834 9.58203C231.5 9.21289 231.037 9.02832 230.445 9.02832ZM241.159 9.44141C240.878 9.39453 240.588 9.37109 240.289 9.37109C239.311 9.37109 238.651 9.74609 238.312 10.4961V17H236.176V7.49023H238.215L238.268 8.55371C238.783 7.72754 239.498 7.31445 240.412 7.31445C240.717 7.31445 240.969 7.35547 241.168 7.4375L241.159 9.44141ZM252.216 13.3965H250.247L249.579 17H248.103L248.771 13.3965H246.74V12.0078H249.034L249.544 9.25684H247.408V7.85938H249.808L250.493 4.20312H251.961L251.275 7.85938H253.253L253.938 4.20312H255.406L254.721 7.85938H256.549V9.25684H254.457L253.947 12.0078H255.89V13.3965H253.684L253.016 17H251.548L252.216 13.3965ZM250.511 12.0078H252.479L252.989 9.25684H251.021L250.511 12.0078ZM260.311 9.62598H261.611C262.268 9.62012 262.786 9.4502 263.167 9.11621C263.554 8.78223 263.747 8.29883 263.747 7.66602C263.747 7.05664 263.586 6.58496 263.264 6.25098C262.947 5.91113 262.461 5.74121 261.805 5.74121C261.23 5.74121 260.759 5.9082 260.39 6.24219C260.021 6.57031 259.836 7.00098 259.836 7.53418H257.7C257.7 6.87793 257.873 6.28027 258.219 5.74121C258.57 5.20215 259.057 4.7832 259.678 4.48438C260.305 4.17969 261.005 4.02734 261.778 4.02734C263.056 4.02734 264.058 4.34961 264.784 4.99414C265.517 5.63281 265.883 6.52344 265.883 7.66602C265.883 8.24023 265.698 8.78223 265.329 9.29199C264.966 9.7959 264.494 10.1768 263.914 10.4346C264.617 10.6748 265.15 11.0527 265.514 11.5684C265.883 12.084 266.067 12.6992 266.067 13.4141C266.067 14.5625 265.672 15.4766 264.881 16.1562C264.096 16.8359 263.062 17.1758 261.778 17.1758C260.548 17.1758 259.54 16.8477 258.755 16.1914C257.97 15.5352 257.577 14.6621 257.577 13.5723H259.713C259.713 14.1348 259.9 14.5918 260.275 14.9434C260.656 15.2949 261.166 15.4707 261.805 15.4707C262.467 15.4707 262.988 15.2949 263.369 14.9434C263.75 14.5918 263.94 14.082 263.94 13.4141C263.94 12.7402 263.741 12.2217 263.343 11.8584C262.944 11.4951 262.353 11.3135 261.567 11.3135H260.311V9.62598Z" fill="#1F1F1F"/>
<line x1="115" y1="10" x2="157.048" y2="10" stroke="#1F1F1F" stroke-width="2"/>
<line x1="284.024" y1="9" x2="326.072" y2="9" stroke="#1F1F1F" stroke-width="2"/>
<path d="M5.42188 104.859H2.52344L2.50781 103.43H5.03906C5.46615 103.43 5.82812 103.367 6.125 103.242C6.42708 103.112 6.65625 102.927 6.8125 102.688C6.96875 102.443 7.04688 102.148 7.04688 101.805C7.04688 101.424 6.97396 101.115 6.82812 100.875C6.68229 100.635 6.45833 100.461 6.15625 100.352C5.85938 100.242 5.47917 100.188 5.01562 100.188H3.11719V110H1.15625V98.625H5.01562C5.64062 98.625 6.19792 98.6849 6.6875 98.8047C7.18229 98.9245 7.60156 99.112 7.94531 99.3672C8.29427 99.6172 8.55729 99.9349 8.73438 100.32C8.91667 100.706 9.00781 101.164 9.00781 101.695C9.00781 102.164 8.89583 102.594 8.67188 102.984C8.44792 103.37 8.11719 103.685 7.67969 103.93C7.24219 104.174 6.69792 104.32 6.04688 104.367L5.42188 104.859ZM5.33594 110H1.90625L2.78906 108.445H5.33594C5.77865 108.445 6.14844 108.372 6.44531 108.227C6.74219 108.076 6.96354 107.87 7.10938 107.609C7.26042 107.344 7.33594 107.034 7.33594 106.68C7.33594 106.31 7.27083 105.99 7.14062 105.719C7.01042 105.443 6.80469 105.232 6.52344 105.086C6.24219 104.935 5.875 104.859 5.42188 104.859H3.21875L3.23438 103.43H6.10156L6.54688 103.969C7.17188 103.99 7.6849 104.128 8.08594 104.383C8.49219 104.638 8.79427 104.969 8.99219 105.375C9.1901 105.781 9.28906 106.219 9.28906 106.688C9.28906 107.411 9.13021 108.018 8.8125 108.508C8.5 108.997 8.04948 109.37 7.46094 109.625C6.8724 109.875 6.16406 110 5.33594 110ZM14.8047 110.156C14.1797 110.156 13.6146 110.055 13.1094 109.852C12.6094 109.643 12.1823 109.354 11.8281 108.984C11.4792 108.615 11.2109 108.18 11.0234 107.68C10.8359 107.18 10.7422 106.641 10.7422 106.062V105.75C10.7422 105.089 10.8385 104.49 11.0312 103.953C11.224 103.417 11.4922 102.958 11.8359 102.578C12.1797 102.193 12.5859 101.898 13.0547 101.695C13.5234 101.492 14.0312 101.391 14.5781 101.391C15.1823 101.391 15.7109 101.492 16.1641 101.695C16.6172 101.898 16.9922 102.185 17.2891 102.555C17.5911 102.919 17.8151 103.354 17.9609 103.859C18.112 104.365 18.1875 104.922 18.1875 105.531V106.336H11.6562V104.984H16.3281V104.836C16.3177 104.497 16.25 104.18 16.125 103.883C16.0052 103.586 15.8203 103.346 15.5703 103.164C15.3203 102.982 14.987 102.891 14.5703 102.891C14.2578 102.891 13.9792 102.958 13.7344 103.094C13.4948 103.224 13.2943 103.414 13.1328 103.664C12.9714 103.914 12.8464 104.216 12.7578 104.57C12.6745 104.919 12.6328 105.312 12.6328 105.75V106.062C12.6328 106.432 12.6823 106.776 12.7812 107.094C12.8854 107.406 13.0365 107.68 13.2344 107.914C13.4323 108.148 13.6719 108.333 13.9531 108.469C14.2344 108.599 14.5547 108.664 14.9141 108.664C15.3672 108.664 15.7708 108.573 16.125 108.391C16.4792 108.208 16.7865 107.951 17.0469 107.617L18.0391 108.578C17.8568 108.844 17.6198 109.099 17.3281 109.344C17.0365 109.583 16.6797 109.779 16.2578 109.93C15.8411 110.081 15.3568 110.156 14.8047 110.156ZM21.6719 98V110H19.7812V98H21.6719ZM25.75 101.547V110H23.8594V101.547H25.75ZM23.7344 99.3281C23.7344 99.0417 23.8281 98.8047 24.0156 98.6172C24.2083 98.4245 24.474 98.3281 24.8125 98.3281C25.1458 98.3281 25.4089 98.4245 25.6016 98.6172C25.7943 98.8047 25.8906 99.0417 25.8906 99.3281C25.8906 99.6094 25.7943 99.8438 25.6016 100.031C25.4089 100.219 25.1458 100.312 24.8125 100.312C24.474 100.312 24.2083 100.219 24.0156 100.031C23.8281 99.8438 23.7344 99.6094 23.7344 99.3281ZM31.5391 110.156C30.9141 110.156 30.349 110.055 29.8438 109.852C29.3438 109.643 28.9167 109.354 28.5625 108.984C28.2135 108.615 27.9453 108.18 27.7578 107.68C27.5703 107.18 27.4766 106.641 27.4766 106.062V105.75C27.4766 105.089 27.5729 104.49 27.7656 103.953C27.9583 103.417 28.2266 102.958 28.5703 102.578C28.9141 102.193 29.3203 101.898 29.7891 101.695C30.2578 101.492 30.7656 101.391 31.3125 101.391C31.9167 101.391 32.4453 101.492 32.8984 101.695C33.3516 101.898 33.7266 102.185 34.0234 102.555C34.3255 102.919 34.5495 103.354 34.6953 103.859C34.8464 104.365 34.9219 104.922 34.9219 105.531V106.336H28.3906V104.984H33.0625V104.836C33.0521 104.497 32.9844 104.18 32.8594 103.883C32.7396 103.586 32.5547 103.346 32.3047 103.164C32.0547 102.982 31.7214 102.891 31.3047 102.891C30.9922 102.891 30.7135 102.958 30.4688 103.094C30.2292 103.224 30.0286 103.414 29.8672 103.664C29.7057 103.914 29.5807 104.216 29.4922 104.57C29.4089 104.919 29.3672 105.312 29.3672 105.75V106.062C29.3672 106.432 29.4167 106.776 29.5156 107.094C29.6198 107.406 29.7708 107.68 29.9688 107.914C30.1667 108.148 30.4062 108.333 30.6875 108.469C30.9688 108.599 31.2891 108.664 31.6484 108.664C32.1016 108.664 32.5052 108.573 32.8594 108.391C33.2135 108.208 33.5208 107.951 33.7812 107.617L34.7734 108.578C34.5911 108.844 34.3542 109.099 34.0625 109.344C33.7708 109.583 33.4141 109.779 32.9922 109.93C32.5755 110.081 32.0911 110.156 31.5391 110.156ZM39.0312 108.508L41.1016 101.547H43.0547L40.1172 110H38.8984L39.0312 108.508ZM37.4453 101.547L39.5547 108.539L39.6562 110H38.4375L35.4844 101.547H37.4453ZM47.8359 110.156C47.2109 110.156 46.6458 110.055 46.1406 109.852C45.6406 109.643 45.2135 109.354 44.8594 108.984C44.5104 108.615 44.2422 108.18 44.0547 107.68C43.8672 107.18 43.7734 106.641 43.7734 106.062V105.75C43.7734 105.089 43.8698 104.49 44.0625 103.953C44.2552 103.417 44.5234 102.958 44.8672 102.578C45.2109 102.193 45.6172 101.898 46.0859 101.695C46.5547 101.492 47.0625 101.391 47.6094 101.391C48.2135 101.391 48.7422 101.492 49.1953 101.695C49.6484 101.898 50.0234 102.185 50.3203 102.555C50.6224 102.919 50.8464 103.354 50.9922 103.859C51.1432 104.365 51.2188 104.922 51.2188 105.531V106.336H44.6875V104.984H49.3594V104.836C49.349 104.497 49.2812 104.18 49.1562 103.883C49.0365 103.586 48.8516 103.346 48.6016 103.164C48.3516 102.982 48.0182 102.891 47.6016 102.891C47.2891 102.891 47.0104 102.958 46.7656 103.094C46.526 103.224 46.3255 103.414 46.1641 103.664C46.0026 103.914 45.8776 104.216 45.7891 104.57C45.7057 104.919 45.6641 105.312 45.6641 105.75V106.062C45.6641 106.432 45.7135 106.776 45.8125 107.094C45.9167 107.406 46.0677 107.68 46.2656 107.914C46.4635 108.148 46.7031 108.333 46.9844 108.469C47.2656 108.599 47.5859 108.664 47.9453 108.664C48.3984 108.664 48.8021 108.573 49.1562 108.391C49.5104 108.208 49.8177 107.951 50.0781 107.617L51.0703 108.578C50.888 108.844 50.651 109.099 50.3594 109.344C50.0677 109.583 49.7109 109.779 49.2891 109.93C48.8724 110.081 48.388 110.156 47.8359 110.156ZM58.6875 101.547V110H56.7969V101.547H58.6875ZM56.6719 99.3281C56.6719 99.0417 56.7656 98.8047 56.9531 98.6172C57.1458 98.4245 57.4115 98.3281 57.75 98.3281C58.0833 98.3281 58.3464 98.4245 58.5391 98.6172C58.7318 98.8047 58.8281 99.0417 58.8281 99.3281C58.8281 99.6094 58.7318 99.8438 58.5391 100.031C58.3464 100.219 58.0833 100.312 57.75 100.312C57.4115 100.312 57.1458 100.219 56.9531 100.031C56.7656 99.8438 56.6719 99.6094 56.6719 99.3281ZM62.6172 103.352V110H60.7344V101.547H62.5078L62.6172 103.352ZM62.2812 105.461L61.6719 105.453C61.6771 104.854 61.7604 104.305 61.9219 103.805C62.0885 103.305 62.3177 102.875 62.6094 102.516C62.9062 102.156 63.2604 101.88 63.6719 101.688C64.0833 101.49 64.5417 101.391 65.0469 101.391C65.4531 101.391 65.8203 101.448 66.1484 101.562C66.4818 101.672 66.7656 101.852 67 102.102C67.2396 102.352 67.4219 102.677 67.5469 103.078C67.6719 103.474 67.7344 103.961 67.7344 104.539V110H65.8438V104.531C65.8438 104.125 65.7839 103.805 65.6641 103.57C65.5495 103.331 65.3802 103.161 65.1562 103.062C64.9375 102.958 64.6641 102.906 64.3359 102.906C64.013 102.906 63.724 102.974 63.4688 103.109C63.2135 103.245 62.9974 103.43 62.8203 103.664C62.6484 103.898 62.5156 104.169 62.4219 104.477C62.3281 104.784 62.2812 105.112 62.2812 105.461ZM77.5156 101.547V102.922H72.75V101.547H77.5156ZM74.125 99.4766H76.0078V107.664C76.0078 107.924 76.0443 108.125 76.1172 108.266C76.1953 108.401 76.3021 108.492 76.4375 108.539C76.5729 108.586 76.7318 108.609 76.9141 108.609C77.0443 108.609 77.1693 108.602 77.2891 108.586C77.4089 108.57 77.5052 108.555 77.5781 108.539L77.5859 109.977C77.4297 110.023 77.2474 110.065 77.0391 110.102C76.8359 110.138 76.6016 110.156 76.3359 110.156C75.9036 110.156 75.5208 110.081 75.1875 109.93C74.8542 109.773 74.5938 109.521 74.4062 109.172C74.2188 108.823 74.125 108.359 74.125 107.781V99.4766ZM80.8281 98V110H78.9531V98H80.8281ZM80.5 105.461L79.8906 105.453C79.8958 104.87 79.9766 104.331 80.1328 103.836C80.2943 103.341 80.5182 102.911 80.8047 102.547C81.0964 102.177 81.4453 101.893 81.8516 101.695C82.2578 101.492 82.7083 101.391 83.2031 101.391C83.6198 101.391 83.9948 101.448 84.3281 101.562C84.6667 101.677 84.9583 101.862 85.2031 102.117C85.4479 102.367 85.6328 102.695 85.7578 103.102C85.888 103.503 85.9531 103.992 85.9531 104.57V110H84.0625V104.555C84.0625 104.148 84.0026 103.826 83.8828 103.586C83.7682 103.346 83.599 103.174 83.375 103.07C83.151 102.961 82.8776 102.906 82.5547 102.906C82.2161 102.906 81.9167 102.974 81.6562 103.109C81.401 103.245 81.1875 103.43 81.0156 103.664C80.8438 103.898 80.7135 104.169 80.625 104.477C80.5417 104.784 80.5 105.112 80.5 105.461ZM91.5859 110.156C90.9609 110.156 90.3958 110.055 89.8906 109.852C89.3906 109.643 88.9635 109.354 88.6094 108.984C88.2604 108.615 87.9922 108.18 87.8047 107.68C87.6172 107.18 87.5234 106.641 87.5234 106.062V105.75C87.5234 105.089 87.6198 104.49 87.8125 103.953C88.0052 103.417 88.2734 102.958 88.6172 102.578C88.9609 102.193 89.3672 101.898 89.8359 101.695C90.3047 101.492 90.8125 101.391 91.3594 101.391C91.9635 101.391 92.4922 101.492 92.9453 101.695C93.3984 101.898 93.7734 102.185 94.0703 102.555C94.3724 102.919 94.5964 103.354 94.7422 103.859C94.8932 104.365 94.9688 104.922 94.9688 105.531V106.336H88.4375V104.984H93.1094V104.836C93.099 104.497 93.0312 104.18 92.9062 103.883C92.7865 103.586 92.6016 103.346 92.3516 103.164C92.1016 102.982 91.7682 102.891 91.3516 102.891C91.0391 102.891 90.7604 102.958 90.5156 103.094C90.276 103.224 90.0755 103.414 89.9141 103.664C89.7526 103.914 89.6276 104.216 89.5391 104.57C89.4557 104.919 89.4141 105.312 89.4141 105.75V106.062C89.4141 106.432 89.4635 106.776 89.5625 107.094C89.6667 107.406 89.8177 107.68 90.0156 107.914C90.2135 108.148 90.4531 108.333 90.7344 108.469C91.0156 108.599 91.3359 108.664 91.6953 108.664C92.1484 108.664 92.5521 108.573 92.9062 108.391C93.2604 108.208 93.5677 107.951 93.8281 107.617L94.8203 108.578C94.638 108.844 94.401 109.099 94.1094 109.344C93.8177 109.583 93.4609 109.779 93.0391 109.93C92.6224 110.081 92.138 110.156 91.5859 110.156ZM102.312 103.172V113.25H100.43V101.547H102.164L102.312 103.172ZM107.82 105.695V105.859C107.82 106.474 107.747 107.044 107.602 107.57C107.461 108.091 107.25 108.547 106.969 108.938C106.693 109.323 106.352 109.622 105.945 109.836C105.539 110.049 105.07 110.156 104.539 110.156C104.013 110.156 103.552 110.06 103.156 109.867C102.766 109.669 102.435 109.391 102.164 109.031C101.893 108.672 101.674 108.25 101.508 107.766C101.346 107.276 101.232 106.74 101.164 106.156V105.523C101.232 104.904 101.346 104.341 101.508 103.836C101.674 103.331 101.893 102.896 102.164 102.531C102.435 102.167 102.766 101.885 103.156 101.688C103.547 101.49 104.003 101.391 104.523 101.391C105.055 101.391 105.526 101.495 105.938 101.703C106.349 101.906 106.695 102.198 106.977 102.578C107.258 102.953 107.469 103.406 107.609 103.938C107.75 104.464 107.82 105.049 107.82 105.695ZM105.938 105.859V105.695C105.938 105.305 105.901 104.943 105.828 104.609C105.755 104.271 105.641 103.974 105.484 103.719C105.328 103.464 105.128 103.266 104.883 103.125C104.643 102.979 104.354 102.906 104.016 102.906C103.682 102.906 103.396 102.964 103.156 103.078C102.917 103.188 102.716 103.341 102.555 103.539C102.393 103.737 102.268 103.969 102.18 104.234C102.091 104.495 102.029 104.779 101.992 105.086V106.602C102.055 106.977 102.161 107.32 102.312 107.633C102.464 107.945 102.677 108.195 102.953 108.383C103.234 108.565 103.594 108.656 104.031 108.656C104.37 108.656 104.659 108.583 104.898 108.438C105.138 108.292 105.333 108.091 105.484 107.836C105.641 107.576 105.755 107.276 105.828 106.938C105.901 106.599 105.938 106.24 105.938 105.859ZM109.062 105.867V105.688C109.062 105.078 109.151 104.513 109.328 103.992C109.505 103.466 109.76 103.01 110.094 102.625C110.432 102.234 110.844 101.932 111.328 101.719C111.818 101.5 112.37 101.391 112.984 101.391C113.604 101.391 114.156 101.5 114.641 101.719C115.13 101.932 115.544 102.234 115.883 102.625C116.221 103.01 116.479 103.466 116.656 103.992C116.833 104.513 116.922 105.078 116.922 105.688V105.867C116.922 106.477 116.833 107.042 116.656 107.562C116.479 108.083 116.221 108.539 115.883 108.93C115.544 109.315 115.133 109.617 114.648 109.836C114.164 110.049 113.615 110.156 113 110.156C112.38 110.156 111.826 110.049 111.336 109.836C110.852 109.617 110.44 109.315 110.102 108.93C109.763 108.539 109.505 108.083 109.328 107.562C109.151 107.042 109.062 106.477 109.062 105.867ZM110.945 105.688V105.867C110.945 106.247 110.984 106.607 111.062 106.945C111.141 107.284 111.263 107.581 111.43 107.836C111.596 108.091 111.81 108.292 112.07 108.438C112.331 108.583 112.641 108.656 113 108.656C113.349 108.656 113.651 108.583 113.906 108.438C114.167 108.292 114.38 108.091 114.547 107.836C114.714 107.581 114.836 107.284 114.914 106.945C114.997 106.607 115.039 106.247 115.039 105.867V105.688C115.039 105.312 114.997 104.958 114.914 104.625C114.836 104.286 114.711 103.987 114.539 103.727C114.372 103.466 114.159 103.263 113.898 103.117C113.643 102.966 113.339 102.891 112.984 102.891C112.63 102.891 112.323 102.966 112.062 103.117C111.807 103.263 111.596 103.466 111.43 103.727C111.263 103.987 111.141 104.286 111.062 104.625C110.984 104.958 110.945 105.312 110.945 105.688ZM120.797 108.125L122.75 101.547H123.953L123.625 103.516L121.656 110H120.578L120.797 108.125ZM119.648 101.547L121.172 108.156L121.297 110H120.094L117.805 101.547H119.648ZM125.781 108.078L127.258 101.547H129.094L126.812 110H125.609L125.781 108.078ZM124.156 101.547L126.086 108.047L126.328 110H125.25L123.258 103.508L122.93 101.547H124.156ZM134.102 110.156C133.477 110.156 132.911 110.055 132.406 109.852C131.906 109.643 131.479 109.354 131.125 108.984C130.776 108.615 130.508 108.18 130.32 107.68C130.133 107.18 130.039 106.641 130.039 106.062V105.75C130.039 105.089 130.135 104.49 130.328 103.953C130.521 103.417 130.789 102.958 131.133 102.578C131.477 102.193 131.883 101.898 132.352 101.695C132.82 101.492 133.328 101.391 133.875 101.391C134.479 101.391 135.008 101.492 135.461 101.695C135.914 101.898 136.289 102.185 136.586 102.555C136.888 102.919 137.112 103.354 137.258 103.859C137.409 104.365 137.484 104.922 137.484 105.531V106.336H130.953V104.984H135.625V104.836C135.615 104.497 135.547 104.18 135.422 103.883C135.302 103.586 135.117 103.346 134.867 103.164C134.617 102.982 134.284 102.891 133.867 102.891C133.555 102.891 133.276 102.958 133.031 103.094C132.792 103.224 132.591 103.414 132.43 103.664C132.268 103.914 132.143 104.216 132.055 104.57C131.971 104.919 131.93 105.312 131.93 105.75V106.062C131.93 106.432 131.979 106.776 132.078 107.094C132.182 107.406 132.333 107.68 132.531 107.914C132.729 108.148 132.969 108.333 133.25 108.469C133.531 108.599 133.852 108.664 134.211 108.664C134.664 108.664 135.068 108.573 135.422 108.391C135.776 108.208 136.083 107.951 136.344 107.617L137.336 108.578C137.154 108.844 136.917 109.099 136.625 109.344C136.333 109.583 135.977 109.779 135.555 109.93C135.138 110.081 134.654 110.156 134.102 110.156ZM140.844 103.156V110H138.961V101.547H140.758L140.844 103.156ZM143.43 101.492L143.414 103.242C143.299 103.221 143.174 103.206 143.039 103.195C142.909 103.185 142.779 103.18 142.648 103.18C142.326 103.18 142.042 103.227 141.797 103.32C141.552 103.409 141.346 103.539 141.18 103.711C141.018 103.878 140.893 104.081 140.805 104.32C140.716 104.56 140.664 104.828 140.648 105.125L140.219 105.156C140.219 104.625 140.271 104.133 140.375 103.68C140.479 103.227 140.635 102.828 140.844 102.484C141.057 102.141 141.323 101.872 141.641 101.68C141.964 101.487 142.336 101.391 142.758 101.391C142.872 101.391 142.995 101.401 143.125 101.422C143.26 101.443 143.362 101.466 143.43 101.492ZM148.234 105.867V105.688C148.234 105.078 148.323 104.513 148.5 103.992C148.677 103.466 148.932 103.01 149.266 102.625C149.604 102.234 150.016 101.932 150.5 101.719C150.99 101.5 151.542 101.391 152.156 101.391C152.776 101.391 153.328 101.5 153.812 101.719C154.302 101.932 154.716 102.234 155.055 102.625C155.393 103.01 155.651 103.466 155.828 103.992C156.005 104.513 156.094 105.078 156.094 105.688V105.867C156.094 106.477 156.005 107.042 155.828 107.562C155.651 108.083 155.393 108.539 155.055 108.93C154.716 109.315 154.305 109.617 153.82 109.836C153.336 110.049 152.786 110.156 152.172 110.156C151.552 110.156 150.997 110.049 150.508 109.836C150.023 109.617 149.612 109.315 149.273 108.93C148.935 108.539 148.677 108.083 148.5 107.562C148.323 107.042 148.234 106.477 148.234 105.867ZM150.117 105.688V105.867C150.117 106.247 150.156 106.607 150.234 106.945C150.312 107.284 150.435 107.581 150.602 107.836C150.768 108.091 150.982 108.292 151.242 108.438C151.503 108.583 151.812 108.656 152.172 108.656C152.521 108.656 152.823 108.583 153.078 108.438C153.339 108.292 153.552 108.091 153.719 107.836C153.885 107.581 154.008 107.284 154.086 106.945C154.169 106.607 154.211 106.247 154.211 105.867V105.688C154.211 105.312 154.169 104.958 154.086 104.625C154.008 104.286 153.883 103.987 153.711 103.727C153.544 103.466 153.331 103.263 153.07 103.117C152.815 102.966 152.51 102.891 152.156 102.891C151.802 102.891 151.495 102.966 151.234 103.117C150.979 103.263 150.768 103.466 150.602 103.727C150.435 103.987 150.312 104.286 150.234 104.625C150.156 104.958 150.117 105.312 150.117 105.688ZM160.219 110H158.336V100.734C158.336 100.104 158.453 99.5755 158.688 99.1484C158.927 98.7161 159.268 98.3906 159.711 98.1719C160.154 97.9479 160.677 97.8359 161.281 97.8359C161.469 97.8359 161.654 97.849 161.836 97.875C162.018 97.8958 162.195 97.9297 162.367 97.9766L162.32 99.4297C162.216 99.4036 162.102 99.3854 161.977 99.375C161.857 99.3646 161.727 99.3594 161.586 99.3594C161.299 99.3594 161.052 99.4141 160.844 99.5234C160.641 99.6276 160.484 99.7812 160.375 99.9844C160.271 100.188 160.219 100.438 160.219 100.734V110ZM161.961 101.547V102.922H157.039V101.547H161.961ZM172.078 108.305V104.273C172.078 103.971 172.023 103.711 171.914 103.492C171.805 103.273 171.638 103.104 171.414 102.984C171.195 102.865 170.919 102.805 170.586 102.805C170.279 102.805 170.013 102.857 169.789 102.961C169.565 103.065 169.391 103.206 169.266 103.383C169.141 103.56 169.078 103.76 169.078 103.984H167.203C167.203 103.651 167.284 103.328 167.445 103.016C167.607 102.703 167.841 102.424 168.148 102.18C168.456 101.935 168.823 101.742 169.25 101.602C169.677 101.461 170.156 101.391 170.688 101.391C171.323 101.391 171.885 101.497 172.375 101.711C172.87 101.924 173.258 102.247 173.539 102.68C173.826 103.107 173.969 103.643 173.969 104.289V108.047C173.969 108.432 173.995 108.779 174.047 109.086C174.104 109.388 174.185 109.651 174.289 109.875V110H172.359C172.271 109.797 172.201 109.539 172.148 109.227C172.102 108.909 172.078 108.602 172.078 108.305ZM172.352 104.859L172.367 106.023H171.016C170.667 106.023 170.359 106.057 170.094 106.125C169.828 106.188 169.607 106.281 169.43 106.406C169.253 106.531 169.12 106.682 169.031 106.859C168.943 107.036 168.898 107.237 168.898 107.461C168.898 107.685 168.951 107.891 169.055 108.078C169.159 108.26 169.31 108.404 169.508 108.508C169.711 108.612 169.956 108.664 170.242 108.664C170.628 108.664 170.964 108.586 171.25 108.43C171.542 108.268 171.771 108.073 171.938 107.844C172.104 107.609 172.193 107.388 172.203 107.18L172.812 108.016C172.75 108.229 172.643 108.458 172.492 108.703C172.341 108.948 172.143 109.182 171.898 109.406C171.659 109.625 171.37 109.805 171.031 109.945C170.698 110.086 170.312 110.156 169.875 110.156C169.323 110.156 168.831 110.047 168.398 109.828C167.966 109.604 167.628 109.305 167.383 108.93C167.138 108.549 167.016 108.12 167.016 107.641C167.016 107.193 167.099 106.797 167.266 106.453C167.438 106.104 167.688 105.812 168.016 105.578C168.349 105.344 168.755 105.167 169.234 105.047C169.714 104.922 170.26 104.859 170.875 104.859H172.352ZM181.805 103.266V110H179.922V101.547H181.695L181.805 103.266ZM181.5 105.461L180.859 105.453C180.859 104.87 180.932 104.331 181.078 103.836C181.224 103.341 181.438 102.911 181.719 102.547C182 102.177 182.349 101.893 182.766 101.695C183.188 101.492 183.674 101.391 184.227 101.391C184.612 101.391 184.964 101.448 185.281 101.562C185.604 101.672 185.883 101.846 186.117 102.086C186.357 102.326 186.539 102.633 186.664 103.008C186.794 103.383 186.859 103.836 186.859 104.367V110H184.977V104.531C184.977 104.12 184.914 103.797 184.789 103.562C184.669 103.328 184.495 103.161 184.266 103.062C184.042 102.958 183.773 102.906 183.461 102.906C183.107 102.906 182.805 102.974 182.555 103.109C182.31 103.245 182.109 103.43 181.953 103.664C181.797 103.898 181.682 104.169 181.609 104.477C181.536 104.784 181.5 105.112 181.5 105.461ZM186.742 104.961L185.859 105.156C185.859 104.646 185.93 104.164 186.07 103.711C186.216 103.253 186.427 102.852 186.703 102.508C186.984 102.159 187.331 101.885 187.742 101.688C188.154 101.49 188.625 101.391 189.156 101.391C189.589 101.391 189.974 101.451 190.312 101.57C190.656 101.685 190.948 101.867 191.188 102.117C191.427 102.367 191.609 102.693 191.734 103.094C191.859 103.49 191.922 103.969 191.922 104.531V110H190.031V104.523C190.031 104.096 189.969 103.766 189.844 103.531C189.724 103.297 189.552 103.135 189.328 103.047C189.104 102.953 188.836 102.906 188.523 102.906C188.232 102.906 187.974 102.961 187.75 103.07C187.531 103.174 187.346 103.323 187.195 103.516C187.044 103.703 186.93 103.919 186.852 104.164C186.779 104.409 186.742 104.674 186.742 104.961ZM193.5 105.867V105.688C193.5 105.078 193.589 104.513 193.766 103.992C193.943 103.466 194.198 103.01 194.531 102.625C194.87 102.234 195.281 101.932 195.766 101.719C196.255 101.5 196.807 101.391 197.422 101.391C198.042 101.391 198.594 101.5 199.078 101.719C199.568 101.932 199.982 102.234 200.32 102.625C200.659 103.01 200.917 103.466 201.094 103.992C201.271 104.513 201.359 105.078 201.359 105.688V105.867C201.359 106.477 201.271 107.042 201.094 107.562C200.917 108.083 200.659 108.539 200.32 108.93C199.982 109.315 199.57 109.617 199.086 109.836C198.602 110.049 198.052 110.156 197.438 110.156C196.818 110.156 196.263 110.049 195.773 109.836C195.289 109.617 194.878 109.315 194.539 108.93C194.201 108.539 193.943 108.083 193.766 107.562C193.589 107.042 193.5 106.477 193.5 105.867ZM195.383 105.688V105.867C195.383 106.247 195.422 106.607 195.5 106.945C195.578 107.284 195.701 107.581 195.867 107.836C196.034 108.091 196.247 108.292 196.508 108.438C196.768 108.583 197.078 108.656 197.438 108.656C197.786 108.656 198.089 108.583 198.344 108.438C198.604 108.292 198.818 108.091 198.984 107.836C199.151 107.581 199.273 107.284 199.352 106.945C199.435 106.607 199.477 106.247 199.477 105.867V105.688C199.477 105.312 199.435 104.958 199.352 104.625C199.273 104.286 199.148 103.987 198.977 103.727C198.81 103.466 198.596 103.263 198.336 103.117C198.081 102.966 197.776 102.891 197.422 102.891C197.068 102.891 196.76 102.966 196.5 103.117C196.245 103.263 196.034 103.466 195.867 103.727C195.701 103.987 195.578 104.286 195.5 104.625C195.422 104.958 195.383 105.312 195.383 105.688ZM206.812 101.547V102.922H202.047V101.547H206.812ZM203.422 99.4766H205.305V107.664C205.305 107.924 205.341 108.125 205.414 108.266C205.492 108.401 205.599 108.492 205.734 108.539C205.87 108.586 206.029 108.609 206.211 108.609C206.341 108.609 206.466 108.602 206.586 108.586C206.706 108.57 206.802 108.555 206.875 108.539L206.883 109.977C206.727 110.023 206.544 110.065 206.336 110.102C206.133 110.138 205.898 110.156 205.633 110.156C205.201 110.156 204.818 110.081 204.484 109.93C204.151 109.773 203.891 109.521 203.703 109.172C203.516 108.823 203.422 108.359 203.422 107.781V99.4766ZM210.281 101.547V110H208.391V101.547H210.281ZM208.266 99.3281C208.266 99.0417 208.359 98.8047 208.547 98.6172C208.74 98.4245 209.005 98.3281 209.344 98.3281C209.677 98.3281 209.94 98.4245 210.133 98.6172C210.326 98.8047 210.422 99.0417 210.422 99.3281C210.422 99.6094 210.326 99.8438 210.133 100.031C209.94 100.219 209.677 100.312 209.344 100.312C209.005 100.312 208.74 100.219 208.547 100.031C208.359 99.8438 208.266 99.6094 208.266 99.3281ZM215.094 108.508L217.164 101.547H219.117L216.18 110H214.961L215.094 108.508ZM213.508 101.547L215.617 108.539L215.719 110H214.5L211.547 101.547H213.508ZM224.922 108.305V104.273C224.922 103.971 224.867 103.711 224.758 103.492C224.648 103.273 224.482 103.104 224.258 102.984C224.039 102.865 223.763 102.805 223.43 102.805C223.122 102.805 222.857 102.857 222.633 102.961C222.409 103.065 222.234 103.206 222.109 103.383C221.984 103.56 221.922 103.76 221.922 103.984H220.047C220.047 103.651 220.128 103.328 220.289 103.016C220.451 102.703 220.685 102.424 220.992 102.18C221.299 101.935 221.667 101.742 222.094 101.602C222.521 101.461 223 101.391 223.531 101.391C224.167 101.391 224.729 101.497 225.219 101.711C225.714 101.924 226.102 102.247 226.383 102.68C226.669 103.107 226.812 103.643 226.812 104.289V108.047C226.812 108.432 226.839 108.779 226.891 109.086C226.948 109.388 227.029 109.651 227.133 109.875V110H225.203C225.115 109.797 225.044 109.539 224.992 109.227C224.945 108.909 224.922 108.602 224.922 108.305ZM225.195 104.859L225.211 106.023H223.859C223.51 106.023 223.203 106.057 222.938 106.125C222.672 106.188 222.451 106.281 222.273 106.406C222.096 106.531 221.964 106.682 221.875 106.859C221.786 107.036 221.742 107.237 221.742 107.461C221.742 107.685 221.794 107.891 221.898 108.078C222.003 108.26 222.154 108.404 222.352 108.508C222.555 108.612 222.799 108.664 223.086 108.664C223.471 108.664 223.807 108.586 224.094 108.43C224.385 108.268 224.615 108.073 224.781 107.844C224.948 107.609 225.036 107.388 225.047 107.18L225.656 108.016C225.594 108.229 225.487 108.458 225.336 108.703C225.185 108.948 224.987 109.182 224.742 109.406C224.503 109.625 224.214 109.805 223.875 109.945C223.542 110.086 223.156 110.156 222.719 110.156C222.167 110.156 221.674 110.047 221.242 109.828C220.81 109.604 220.471 109.305 220.227 108.93C219.982 108.549 219.859 108.12 219.859 107.641C219.859 107.193 219.943 106.797 220.109 106.453C220.281 106.104 220.531 105.812 220.859 105.578C221.193 105.344 221.599 105.167 222.078 105.047C222.557 104.922 223.104 104.859 223.719 104.859H225.195ZM232.656 101.547V102.922H227.891V101.547H232.656ZM229.266 99.4766H231.148V107.664C231.148 107.924 231.185 108.125 231.258 108.266C231.336 108.401 231.443 108.492 231.578 108.539C231.714 108.586 231.872 108.609 232.055 108.609C232.185 108.609 232.31 108.602 232.43 108.586C232.549 108.57 232.646 108.555 232.719 108.539L232.727 109.977C232.57 110.023 232.388 110.065 232.18 110.102C231.977 110.138 231.742 110.156 231.477 110.156C231.044 110.156 230.661 110.081 230.328 109.93C229.995 109.773 229.734 109.521 229.547 109.172C229.359 108.823 229.266 108.359 229.266 107.781V99.4766ZM236.125 101.547V110H234.234V101.547H236.125ZM234.109 99.3281C234.109 99.0417 234.203 98.8047 234.391 98.6172C234.583 98.4245 234.849 98.3281 235.188 98.3281C235.521 98.3281 235.784 98.4245 235.977 98.6172C236.169 98.8047 236.266 99.0417 236.266 99.3281C236.266 99.6094 236.169 99.8438 235.977 100.031C235.784 100.219 235.521 100.312 235.188 100.312C234.849 100.312 234.583 100.219 234.391 100.031C234.203 99.8438 234.109 99.6094 234.109 99.3281ZM240.055 103.352V110H238.172V101.547H239.945L240.055 103.352ZM239.719 105.461L239.109 105.453C239.115 104.854 239.198 104.305 239.359 103.805C239.526 103.305 239.755 102.875 240.047 102.516C240.344 102.156 240.698 101.88 241.109 101.688C241.521 101.49 241.979 101.391 242.484 101.391C242.891 101.391 243.258 101.448 243.586 101.562C243.919 101.672 244.203 101.852 244.438 102.102C244.677 102.352 244.859 102.677 244.984 103.078C245.109 103.474 245.172 103.961 245.172 104.539V110H243.281V104.531C243.281 104.125 243.221 103.805 243.102 103.57C242.987 103.331 242.818 103.161 242.594 103.062C242.375 102.958 242.102 102.906 241.773 102.906C241.451 102.906 241.161 102.974 240.906 103.109C240.651 103.245 240.435 103.43 240.258 103.664C240.086 103.898 239.953 104.169 239.859 104.477C239.766 104.784 239.719 105.112 239.719 105.461ZM252.508 101.547H254.219V109.766C254.219 110.526 254.057 111.172 253.734 111.703C253.411 112.234 252.961 112.638 252.383 112.914C251.805 113.195 251.135 113.336 250.375 113.336C250.052 113.336 249.693 113.289 249.297 113.195C248.906 113.102 248.526 112.951 248.156 112.742C247.792 112.539 247.487 112.271 247.242 111.938L248.125 110.828C248.427 111.188 248.76 111.451 249.125 111.617C249.49 111.784 249.872 111.867 250.273 111.867C250.706 111.867 251.073 111.786 251.375 111.625C251.682 111.469 251.919 111.237 252.086 110.93C252.253 110.622 252.336 110.247 252.336 109.805V103.461L252.508 101.547ZM246.766 105.867V105.703C246.766 105.062 246.844 104.479 247 103.953C247.156 103.422 247.38 102.966 247.672 102.586C247.964 102.201 248.318 101.906 248.734 101.703C249.151 101.495 249.622 101.391 250.148 101.391C250.695 101.391 251.161 101.49 251.547 101.688C251.938 101.885 252.263 102.169 252.523 102.539C252.784 102.904 252.987 103.341 253.133 103.852C253.284 104.357 253.396 104.919 253.469 105.539V106.062C253.401 106.667 253.286 107.219 253.125 107.719C252.964 108.219 252.75 108.651 252.484 109.016C252.219 109.38 251.891 109.661 251.5 109.859C251.115 110.057 250.659 110.156 250.133 110.156C249.617 110.156 249.151 110.049 248.734 109.836C248.323 109.622 247.969 109.323 247.672 108.938C247.38 108.552 247.156 108.099 247 107.578C246.844 107.052 246.766 106.482 246.766 105.867ZM248.648 105.703V105.867C248.648 106.253 248.685 106.612 248.758 106.945C248.836 107.279 248.953 107.573 249.109 107.828C249.271 108.078 249.474 108.276 249.719 108.422C249.969 108.562 250.263 108.633 250.602 108.633C251.044 108.633 251.406 108.539 251.688 108.352C251.974 108.164 252.193 107.911 252.344 107.594C252.5 107.271 252.609 106.911 252.672 106.516V105.102C252.641 104.794 252.576 104.508 252.477 104.242C252.383 103.977 252.255 103.745 252.094 103.547C251.932 103.344 251.729 103.188 251.484 103.078C251.24 102.964 250.951 102.906 250.617 102.906C250.279 102.906 249.984 102.979 249.734 103.125C249.484 103.271 249.279 103.471 249.117 103.727C248.961 103.982 248.844 104.279 248.766 104.617C248.688 104.956 248.648 105.318 248.648 105.703ZM265.57 101.547H267.281V109.766C267.281 110.526 267.12 111.172 266.797 111.703C266.474 112.234 266.023 112.638 265.445 112.914C264.867 113.195 264.198 113.336 263.438 113.336C263.115 113.336 262.755 113.289 262.359 113.195C261.969 113.102 261.589 112.951 261.219 112.742C260.854 112.539 260.549 112.271 260.305 111.938L261.188 110.828C261.49 111.188 261.823 111.451 262.188 111.617C262.552 111.784 262.935 111.867 263.336 111.867C263.768 111.867 264.135 111.786 264.438 111.625C264.745 111.469 264.982 111.237 265.148 110.93C265.315 110.622 265.398 110.247 265.398 109.805V103.461L265.57 101.547ZM259.828 105.867V105.703C259.828 105.062 259.906 104.479 260.062 103.953C260.219 103.422 260.443 102.966 260.734 102.586C261.026 102.201 261.38 101.906 261.797 101.703C262.214 101.495 262.685 101.391 263.211 101.391C263.758 101.391 264.224 101.49 264.609 101.688C265 101.885 265.326 102.169 265.586 102.539C265.846 102.904 266.049 103.341 266.195 103.852C266.346 104.357 266.458 104.919 266.531 105.539V106.062C266.464 106.667 266.349 107.219 266.188 107.719C266.026 108.219 265.812 108.651 265.547 109.016C265.281 109.38 264.953 109.661 264.562 109.859C264.177 110.057 263.721 110.156 263.195 110.156C262.68 110.156 262.214 110.049 261.797 109.836C261.385 109.622 261.031 109.323 260.734 108.938C260.443 108.552 260.219 108.099 260.062 107.578C259.906 107.052 259.828 106.482 259.828 105.867ZM261.711 105.703V105.867C261.711 106.253 261.747 106.612 261.82 106.945C261.898 107.279 262.016 107.573 262.172 107.828C262.333 108.078 262.536 108.276 262.781 108.422C263.031 108.562 263.326 108.633 263.664 108.633C264.107 108.633 264.469 108.539 264.75 108.352C265.036 108.164 265.255 107.911 265.406 107.594C265.562 107.271 265.672 106.911 265.734 106.516V105.102C265.703 104.794 265.638 104.508 265.539 104.242C265.445 103.977 265.318 103.745 265.156 103.547C264.995 103.344 264.792 103.188 264.547 103.078C264.302 102.964 264.013 102.906 263.68 102.906C263.341 102.906 263.047 102.979 262.797 103.125C262.547 103.271 262.341 103.471 262.18 103.727C262.023 103.982 261.906 104.279 261.828 104.617C261.75 104.956 261.711 105.318 261.711 105.703ZM271.125 103.156V110H269.242V101.547H271.039L271.125 103.156ZM273.711 101.492L273.695 103.242C273.581 103.221 273.456 103.206 273.32 103.195C273.19 103.185 273.06 103.18 272.93 103.18C272.607 103.18 272.323 103.227 272.078 103.32C271.833 103.409 271.628 103.539 271.461 103.711C271.299 103.878 271.174 104.081 271.086 104.32C270.997 104.56 270.945 104.828 270.93 105.125L270.5 105.156C270.5 104.625 270.552 104.133 270.656 103.68C270.76 103.227 270.917 102.828 271.125 102.484C271.339 102.141 271.604 101.872 271.922 101.68C272.245 101.487 272.617 101.391 273.039 101.391C273.154 101.391 273.276 101.401 273.406 101.422C273.542 101.443 273.643 101.466 273.711 101.492ZM274.328 105.867V105.688C274.328 105.078 274.417 104.513 274.594 103.992C274.771 103.466 275.026 103.01 275.359 102.625C275.698 102.234 276.109 101.932 276.594 101.719C277.083 101.5 277.635 101.391 278.25 101.391C278.87 101.391 279.422 101.5 279.906 101.719C280.396 101.932 280.81 102.234 281.148 102.625C281.487 103.01 281.745 103.466 281.922 103.992C282.099 104.513 282.188 105.078 282.188 105.688V105.867C282.188 106.477 282.099 107.042 281.922 107.562C281.745 108.083 281.487 108.539 281.148 108.93C280.81 109.315 280.398 109.617 279.914 109.836C279.43 110.049 278.88 110.156 278.266 110.156C277.646 110.156 277.091 110.049 276.602 109.836C276.117 109.617 275.706 109.315 275.367 108.93C275.029 108.539 274.771 108.083 274.594 107.562C274.417 107.042 274.328 106.477 274.328 105.867ZM276.211 105.688V105.867C276.211 106.247 276.25 106.607 276.328 106.945C276.406 107.284 276.529 107.581 276.695 107.836C276.862 108.091 277.076 108.292 277.336 108.438C277.596 108.583 277.906 108.656 278.266 108.656C278.615 108.656 278.917 108.583 279.172 108.438C279.432 108.292 279.646 108.091 279.812 107.836C279.979 107.581 280.102 107.284 280.18 106.945C280.263 106.607 280.305 106.247 280.305 105.867V105.688C280.305 105.312 280.263 104.958 280.18 104.625C280.102 104.286 279.977 103.987 279.805 103.727C279.638 103.466 279.424 103.263 279.164 103.117C278.909 102.966 278.604 102.891 278.25 102.891C277.896 102.891 277.589 102.966 277.328 103.117C277.073 103.263 276.862 103.466 276.695 103.727C276.529 103.987 276.406 104.286 276.328 104.625C276.25 104.958 276.211 105.312 276.211 105.688ZM288.852 108.008V101.547H290.742V110H288.961L288.852 108.008ZM289.117 106.25L289.75 106.234C289.75 106.802 289.688 107.326 289.562 107.805C289.438 108.279 289.245 108.693 288.984 109.047C288.724 109.396 288.391 109.669 287.984 109.867C287.578 110.06 287.091 110.156 286.523 110.156C286.112 110.156 285.734 110.096 285.391 109.977C285.047 109.857 284.75 109.672 284.5 109.422C284.255 109.172 284.065 108.846 283.93 108.445C283.794 108.044 283.727 107.565 283.727 107.008V101.547H285.609V107.023C285.609 107.331 285.646 107.589 285.719 107.797C285.792 108 285.891 108.164 286.016 108.289C286.141 108.414 286.286 108.503 286.453 108.555C286.62 108.607 286.797 108.633 286.984 108.633C287.521 108.633 287.943 108.529 288.25 108.32C288.562 108.107 288.784 107.82 288.914 107.461C289.049 107.102 289.117 106.698 289.117 106.25ZM294.562 103.172V113.25H292.68V101.547H294.414L294.562 103.172ZM300.07 105.695V105.859C300.07 106.474 299.997 107.044 299.852 107.57C299.711 108.091 299.5 108.547 299.219 108.938C298.943 109.323 298.602 109.622 298.195 109.836C297.789 110.049 297.32 110.156 296.789 110.156C296.263 110.156 295.802 110.06 295.406 109.867C295.016 109.669 294.685 109.391 294.414 109.031C294.143 108.672 293.924 108.25 293.758 107.766C293.596 107.276 293.482 106.74 293.414 106.156V105.523C293.482 104.904 293.596 104.341 293.758 103.836C293.924 103.331 294.143 102.896 294.414 102.531C294.685 102.167 295.016 101.885 295.406 101.688C295.797 101.49 296.253 101.391 296.773 101.391C297.305 101.391 297.776 101.495 298.188 101.703C298.599 101.906 298.945 102.198 299.227 102.578C299.508 102.953 299.719 103.406 299.859 103.938C300 104.464 300.07 105.049 300.07 105.695ZM298.188 105.859V105.695C298.188 105.305 298.151 104.943 298.078 104.609C298.005 104.271 297.891 103.974 297.734 103.719C297.578 103.464 297.378 103.266 297.133 103.125C296.893 102.979 296.604 102.906 296.266 102.906C295.932 102.906 295.646 102.964 295.406 103.078C295.167 103.188 294.966 103.341 294.805 103.539C294.643 103.737 294.518 103.969 294.43 104.234C294.341 104.495 294.279 104.779 294.242 105.086V106.602C294.305 106.977 294.411 107.32 294.562 107.633C294.714 107.945 294.927 108.195 295.203 108.383C295.484 108.565 295.844 108.656 296.281 108.656C296.62 108.656 296.909 108.583 297.148 108.438C297.388 108.292 297.583 108.091 297.734 107.836C297.891 107.576 298.005 107.276 298.078 106.938C298.151 106.599 298.188 106.24 298.188 105.859ZM308.078 110H306.188V101C306.188 100.318 306.323 99.7422 306.594 99.2734C306.87 98.8047 307.263 98.4479 307.773 98.2031C308.289 97.9583 308.901 97.8359 309.609 97.8359C310.026 97.8359 310.427 97.8802 310.812 97.9688C311.203 98.0573 311.607 98.1693 312.023 98.3047L311.734 99.8359C311.469 99.7474 311.174 99.6641 310.852 99.5859C310.529 99.5026 310.156 99.4609 309.734 99.4609C309.167 99.4609 308.747 99.5911 308.477 99.8516C308.211 100.107 308.078 100.49 308.078 101V110ZM309.773 101.547V102.922H304.891V101.547H309.773ZM312.914 101.547V110H311.031V101.547H312.914ZM318.891 101.547V102.922H314.125V101.547H318.891ZM315.5 99.4766H317.383V107.664C317.383 107.924 317.419 108.125 317.492 108.266C317.57 108.401 317.677 108.492 317.812 108.539C317.948 108.586 318.107 108.609 318.289 108.609C318.419 108.609 318.544 108.602 318.664 108.586C318.784 108.57 318.88 108.555 318.953 108.539L318.961 109.977C318.805 110.023 318.622 110.065 318.414 110.102C318.211 110.138 317.977 110.156 317.711 110.156C317.279 110.156 316.896 110.081 316.562 109.93C316.229 109.773 315.969 109.521 315.781 109.172C315.594 108.823 315.5 108.359 315.5 107.781V99.4766ZM322.211 103.352V110H320.328V101.547H322.102L322.211 103.352ZM321.875 105.461L321.266 105.453C321.271 104.854 321.354 104.305 321.516 103.805C321.682 103.305 321.911 102.875 322.203 102.516C322.5 102.156 322.854 101.88 323.266 101.688C323.677 101.49 324.135 101.391 324.641 101.391C325.047 101.391 325.414 101.448 325.742 101.562C326.076 101.672 326.359 101.852 326.594 102.102C326.833 102.352 327.016 102.677 327.141 103.078C327.266 103.474 327.328 103.961 327.328 104.539V110H325.438V104.531C325.438 104.125 325.378 103.805 325.258 103.57C325.143 103.331 324.974 103.161 324.75 103.062C324.531 102.958 324.258 102.906 323.93 102.906C323.607 102.906 323.318 102.974 323.062 103.109C322.807 103.245 322.591 103.43 322.414 103.664C322.242 103.898 322.109 104.169 322.016 104.477C321.922 104.784 321.875 105.112 321.875 105.461ZM332.977 110.156C332.352 110.156 331.786 110.055 331.281 109.852C330.781 109.643 330.354 109.354 330 108.984C329.651 108.615 329.383 108.18 329.195 107.68C329.008 107.18 328.914 106.641 328.914 106.062V105.75C328.914 105.089 329.01 104.49 329.203 103.953C329.396 103.417 329.664 102.958 330.008 102.578C330.352 102.193 330.758 101.898 331.227 101.695C331.695 101.492 332.203 101.391 332.75 101.391C333.354 101.391 333.883 101.492 334.336 101.695C334.789 101.898 335.164 102.185 335.461 102.555C335.763 102.919 335.987 103.354 336.133 103.859C336.284 104.365 336.359 104.922 336.359 105.531V106.336H329.828V104.984H334.5V104.836C334.49 104.497 334.422 104.18 334.297 103.883C334.177 103.586 333.992 103.346 333.742 103.164C333.492 102.982 333.159 102.891 332.742 102.891C332.43 102.891 332.151 102.958 331.906 103.094C331.667 103.224 331.466 103.414 331.305 103.664C331.143 103.914 331.018 104.216 330.93 104.57C330.846 104.919 330.805 105.312 330.805 105.75V106.062C330.805 106.432 330.854 106.776 330.953 107.094C331.057 107.406 331.208 107.68 331.406 107.914C331.604 108.148 331.844 108.333 332.125 108.469C332.406 108.599 332.727 108.664 333.086 108.664C333.539 108.664 333.943 108.573 334.297 108.391C334.651 108.208 334.958 107.951 335.219 107.617L336.211 108.578C336.029 108.844 335.792 109.099 335.5 109.344C335.208 109.583 334.852 109.779 334.43 109.93C334.013 110.081 333.529 110.156 332.977 110.156ZM342.57 107.711C342.57 107.523 342.523 107.354 342.43 107.203C342.336 107.047 342.156 106.906 341.891 106.781C341.63 106.656 341.245 106.542 340.734 106.438C340.286 106.339 339.875 106.221 339.5 106.086C339.13 105.945 338.812 105.776 338.547 105.578C338.281 105.38 338.076 105.146 337.93 104.875C337.784 104.604 337.711 104.292 337.711 103.938C337.711 103.594 337.786 103.268 337.938 102.961C338.089 102.654 338.305 102.383 338.586 102.148C338.867 101.914 339.208 101.729 339.609 101.594C340.016 101.458 340.469 101.391 340.969 101.391C341.677 101.391 342.284 101.51 342.789 101.75C343.299 101.984 343.69 102.305 343.961 102.711C344.232 103.112 344.367 103.565 344.367 104.07H342.484C342.484 103.846 342.427 103.638 342.312 103.445C342.203 103.247 342.036 103.089 341.812 102.969C341.589 102.844 341.307 102.781 340.969 102.781C340.646 102.781 340.378 102.833 340.164 102.938C339.956 103.036 339.799 103.167 339.695 103.328C339.596 103.49 339.547 103.667 339.547 103.859C339.547 104 339.573 104.128 339.625 104.242C339.682 104.352 339.776 104.453 339.906 104.547C340.036 104.635 340.214 104.719 340.438 104.797C340.667 104.875 340.953 104.951 341.297 105.023C341.943 105.159 342.497 105.333 342.961 105.547C343.43 105.755 343.789 106.026 344.039 106.359C344.289 106.688 344.414 107.104 344.414 107.609C344.414 107.984 344.333 108.328 344.172 108.641C344.016 108.948 343.786 109.216 343.484 109.445C343.182 109.669 342.82 109.844 342.398 109.969C341.982 110.094 341.513 110.156 340.992 110.156C340.227 110.156 339.578 110.021 339.047 109.75C338.516 109.474 338.112 109.122 337.836 108.695C337.565 108.263 337.43 107.815 337.43 107.352H339.25C339.271 107.701 339.367 107.979 339.539 108.188C339.716 108.391 339.935 108.539 340.195 108.633C340.461 108.721 340.734 108.766 341.016 108.766C341.354 108.766 341.638 108.721 341.867 108.633C342.096 108.539 342.271 108.414 342.391 108.258C342.51 108.096 342.57 107.914 342.57 107.711ZM350.805 107.711C350.805 107.523 350.758 107.354 350.664 107.203C350.57 107.047 350.391 106.906 350.125 106.781C349.865 106.656 349.479 106.542 348.969 106.438C348.521 106.339 348.109 106.221 347.734 106.086C347.365 105.945 347.047 105.776 346.781 105.578C346.516 105.38 346.31 105.146 346.164 104.875C346.018 104.604 345.945 104.292 345.945 103.938C345.945 103.594 346.021 103.268 346.172 102.961C346.323 102.654 346.539 102.383 346.82 102.148C347.102 101.914 347.443 101.729 347.844 101.594C348.25 101.458 348.703 101.391 349.203 101.391C349.911 101.391 350.518 101.51 351.023 101.75C351.534 101.984 351.924 102.305 352.195 102.711C352.466 103.112 352.602 103.565 352.602 104.07H350.719C350.719 103.846 350.661 103.638 350.547 103.445C350.438 103.247 350.271 103.089 350.047 102.969C349.823 102.844 349.542 102.781 349.203 102.781C348.88 102.781 348.612 102.833 348.398 102.938C348.19 103.036 348.034 103.167 347.93 103.328C347.831 103.49 347.781 103.667 347.781 103.859C347.781 104 347.807 104.128 347.859 104.242C347.917 104.352 348.01 104.453 348.141 104.547C348.271 104.635 348.448 104.719 348.672 104.797C348.901 104.875 349.188 104.951 349.531 105.023C350.177 105.159 350.732 105.333 351.195 105.547C351.664 105.755 352.023 106.026 352.273 106.359C352.523 106.688 352.648 107.104 352.648 107.609C352.648 107.984 352.568 108.328 352.406 108.641C352.25 108.948 352.021 109.216 351.719 109.445C351.417 109.669 351.055 109.844 350.633 109.969C350.216 110.094 349.747 110.156 349.227 110.156C348.461 110.156 347.812 110.021 347.281 109.75C346.75 109.474 346.346 109.122 346.07 108.695C345.799 108.263 345.664 107.815 345.664 107.352H347.484C347.505 107.701 347.602 107.979 347.773 108.188C347.951 108.391 348.169 108.539 348.43 108.633C348.695 108.721 348.969 108.766 349.25 108.766C349.589 108.766 349.872 108.721 350.102 108.633C350.331 108.539 350.505 108.414 350.625 108.258C350.745 108.096 350.805 107.914 350.805 107.711ZM361.734 108.656C362.042 108.656 362.318 108.596 362.562 108.477C362.812 108.352 363.013 108.18 363.164 107.961C363.32 107.742 363.406 107.49 363.422 107.203H365.195C365.185 107.75 365.023 108.247 364.711 108.695C364.398 109.143 363.984 109.5 363.469 109.766C362.953 110.026 362.383 110.156 361.758 110.156C361.112 110.156 360.549 110.047 360.07 109.828C359.591 109.604 359.193 109.297 358.875 108.906C358.557 108.516 358.318 108.065 358.156 107.555C358 107.044 357.922 106.497 357.922 105.914V105.641C357.922 105.057 358 104.51 358.156 104C358.318 103.484 358.557 103.031 358.875 102.641C359.193 102.25 359.591 101.945 360.07 101.727C360.549 101.503 361.109 101.391 361.75 101.391C362.427 101.391 363.021 101.526 363.531 101.797C364.042 102.062 364.443 102.435 364.734 102.914C365.031 103.388 365.185 103.94 365.195 104.57H363.422C363.406 104.258 363.328 103.977 363.188 103.727C363.052 103.471 362.859 103.268 362.609 103.117C362.365 102.966 362.07 102.891 361.727 102.891C361.346 102.891 361.031 102.969 360.781 103.125C360.531 103.276 360.336 103.484 360.195 103.75C360.055 104.01 359.953 104.305 359.891 104.633C359.833 104.956 359.805 105.292 359.805 105.641V105.914C359.805 106.263 359.833 106.602 359.891 106.93C359.948 107.258 360.047 107.552 360.188 107.812C360.333 108.068 360.531 108.273 360.781 108.43C361.031 108.581 361.349 108.656 361.734 108.656ZM366.281 105.867V105.688C366.281 105.078 366.37 104.513 366.547 103.992C366.724 103.466 366.979 103.01 367.312 102.625C367.651 102.234 368.062 101.932 368.547 101.719C369.036 101.5 369.589 101.391 370.203 101.391C370.823 101.391 371.375 101.5 371.859 101.719C372.349 101.932 372.763 102.234 373.102 102.625C373.44 103.01 373.698 103.466 373.875 103.992C374.052 104.513 374.141 105.078 374.141 105.688V105.867C374.141 106.477 374.052 107.042 373.875 107.562C373.698 108.083 373.44 108.539 373.102 108.93C372.763 109.315 372.352 109.617 371.867 109.836C371.383 110.049 370.833 110.156 370.219 110.156C369.599 110.156 369.044 110.049 368.555 109.836C368.07 109.617 367.659 109.315 367.32 108.93C366.982 108.539 366.724 108.083 366.547 107.562C366.37 107.042 366.281 106.477 366.281 105.867ZM368.164 105.688V105.867C368.164 106.247 368.203 106.607 368.281 106.945C368.359 107.284 368.482 107.581 368.648 107.836C368.815 108.091 369.029 108.292 369.289 108.438C369.549 108.583 369.859 108.656 370.219 108.656C370.568 108.656 370.87 108.583 371.125 108.438C371.385 108.292 371.599 108.091 371.766 107.836C371.932 107.581 372.055 107.284 372.133 106.945C372.216 106.607 372.258 106.247 372.258 105.867V105.688C372.258 105.312 372.216 104.958 372.133 104.625C372.055 104.286 371.93 103.987 371.758 103.727C371.591 103.466 371.378 103.263 371.117 103.117C370.862 102.966 370.557 102.891 370.203 102.891C369.849 102.891 369.542 102.966 369.281 103.117C369.026 103.263 368.815 103.466 368.648 103.727C368.482 103.987 368.359 104.286 368.281 104.625C368.203 104.958 368.164 105.312 368.164 105.688ZM377.602 103.266V110H375.719V101.547H377.492L377.602 103.266ZM377.297 105.461L376.656 105.453C376.656 104.87 376.729 104.331 376.875 103.836C377.021 103.341 377.234 102.911 377.516 102.547C377.797 102.177 378.146 101.893 378.562 101.695C378.984 101.492 379.471 101.391 380.023 101.391C380.409 101.391 380.76 101.448 381.078 101.562C381.401 101.672 381.68 101.846 381.914 102.086C382.154 102.326 382.336 102.633 382.461 103.008C382.591 103.383 382.656 103.836 382.656 104.367V110H380.773V104.531C380.773 104.12 380.711 103.797 380.586 103.562C380.466 103.328 380.292 103.161 380.062 103.062C379.839 102.958 379.57 102.906 379.258 102.906C378.904 102.906 378.602 102.974 378.352 103.109C378.107 103.245 377.906 103.43 377.75 103.664C377.594 103.898 377.479 104.169 377.406 104.477C377.333 104.784 377.297 105.112 377.297 105.461ZM382.539 104.961L381.656 105.156C381.656 104.646 381.727 104.164 381.867 103.711C382.013 103.253 382.224 102.852 382.5 102.508C382.781 102.159 383.128 101.885 383.539 101.688C383.951 101.49 384.422 101.391 384.953 101.391C385.385 101.391 385.771 101.451 386.109 101.57C386.453 101.685 386.745 101.867 386.984 102.117C387.224 102.367 387.406 102.693 387.531 103.094C387.656 103.49 387.719 103.969 387.719 104.531V110H385.828V104.523C385.828 104.096 385.766 103.766 385.641 103.531C385.521 103.297 385.349 103.135 385.125 103.047C384.901 102.953 384.633 102.906 384.32 102.906C384.029 102.906 383.771 102.961 383.547 103.07C383.328 103.174 383.143 103.323 382.992 103.516C382.841 103.703 382.727 103.919 382.648 104.164C382.576 104.409 382.539 104.674 382.539 104.961ZM391.539 103.266V110H389.656V101.547H391.43L391.539 103.266ZM391.234 105.461L390.594 105.453C390.594 104.87 390.667 104.331 390.812 103.836C390.958 103.341 391.172 102.911 391.453 102.547C391.734 102.177 392.083 101.893 392.5 101.695C392.922 101.492 393.409 101.391 393.961 101.391C394.346 101.391 394.698 101.448 395.016 101.562C395.339 101.672 395.617 101.846 395.852 102.086C396.091 102.326 396.273 102.633 396.398 103.008C396.529 103.383 396.594 103.836 396.594 104.367V110H394.711V104.531C394.711 104.12 394.648 103.797 394.523 103.562C394.404 103.328 394.229 103.161 394 103.062C393.776 102.958 393.508 102.906 393.195 102.906C392.841 102.906 392.539 102.974 392.289 103.109C392.044 103.245 391.844 103.43 391.688 103.664C391.531 103.898 391.417 104.169 391.344 104.477C391.271 104.784 391.234 105.112 391.234 105.461ZM396.477 104.961L395.594 105.156C395.594 104.646 395.664 104.164 395.805 103.711C395.951 103.253 396.161 102.852 396.438 102.508C396.719 102.159 397.065 101.885 397.477 101.688C397.888 101.49 398.359 101.391 398.891 101.391C399.323 101.391 399.708 101.451 400.047 101.57C400.391 101.685 400.682 101.867 400.922 102.117C401.161 102.367 401.344 102.693 401.469 103.094C401.594 103.49 401.656 103.969 401.656 104.531V110H399.766V104.523C399.766 104.096 399.703 103.766 399.578 103.531C399.458 103.297 399.286 103.135 399.062 103.047C398.839 102.953 398.57 102.906 398.258 102.906C397.966 102.906 397.708 102.961 397.484 103.07C397.266 103.174 397.081 103.323 396.93 103.516C396.779 103.703 396.664 103.919 396.586 104.164C396.513 104.409 396.477 104.674 396.477 104.961ZM408.68 108.008V101.547H410.57V110H408.789L408.68 108.008ZM408.945 106.25L409.578 106.234C409.578 106.802 409.516 107.326 409.391 107.805C409.266 108.279 409.073 108.693 408.812 109.047C408.552 109.396 408.219 109.669 407.812 109.867C407.406 110.06 406.919 110.156 406.352 110.156C405.94 110.156 405.562 110.096 405.219 109.977C404.875 109.857 404.578 109.672 404.328 109.422C404.083 109.172 403.893 108.846 403.758 108.445C403.622 108.044 403.555 107.565 403.555 107.008V101.547H405.438V107.023C405.438 107.331 405.474 107.589 405.547 107.797C405.62 108 405.719 108.164 405.844 108.289C405.969 108.414 406.115 108.503 406.281 108.555C406.448 108.607 406.625 108.633 406.812 108.633C407.349 108.633 407.771 108.529 408.078 108.32C408.391 108.107 408.612 107.82 408.742 107.461C408.878 107.102 408.945 106.698 408.945 106.25ZM414.367 103.352V110H412.484V101.547H414.258L414.367 103.352ZM414.031 105.461L413.422 105.453C413.427 104.854 413.51 104.305 413.672 103.805C413.839 103.305 414.068 102.875 414.359 102.516C414.656 102.156 415.01 101.88 415.422 101.688C415.833 101.49 416.292 101.391 416.797 101.391C417.203 101.391 417.57 101.448 417.898 101.562C418.232 101.672 418.516 101.852 418.75 102.102C418.99 102.352 419.172 102.677 419.297 103.078C419.422 103.474 419.484 103.961 419.484 104.539V110H417.594V104.531C417.594 104.125 417.534 103.805 417.414 103.57C417.299 103.331 417.13 103.161 416.906 103.062C416.688 102.958 416.414 102.906 416.086 102.906C415.763 102.906 415.474 102.974 415.219 103.109C414.964 103.245 414.747 103.43 414.57 103.664C414.398 103.898 414.266 104.169 414.172 104.477C414.078 104.784 414.031 105.112 414.031 105.461ZM423.422 101.547V110H421.531V101.547H423.422ZM421.406 99.3281C421.406 99.0417 421.5 98.8047 421.688 98.6172C421.88 98.4245 422.146 98.3281 422.484 98.3281C422.818 98.3281 423.081 98.4245 423.273 98.6172C423.466 98.8047 423.562 99.0417 423.562 99.3281C423.562 99.6094 423.466 99.8438 423.273 100.031C423.081 100.219 422.818 100.312 422.484 100.312C422.146 100.312 421.88 100.219 421.688 100.031C421.5 99.8438 421.406 99.6094 421.406 99.3281ZM429.359 101.547V102.922H424.594V101.547H429.359ZM425.969 99.4766H427.852V107.664C427.852 107.924 427.888 108.125 427.961 108.266C428.039 108.401 428.146 108.492 428.281 108.539C428.417 108.586 428.576 108.609 428.758 108.609C428.888 108.609 429.013 108.602 429.133 108.586C429.253 108.57 429.349 108.555 429.422 108.539L429.43 109.977C429.273 110.023 429.091 110.065 428.883 110.102C428.68 110.138 428.445 110.156 428.18 110.156C427.747 110.156 427.365 110.081 427.031 109.93C426.698 109.773 426.438 109.521 426.25 109.172C426.062 108.823 425.969 108.359 425.969 107.781V99.4766ZM433.266 109.078L435.562 101.547H437.578L434.188 111.289C434.109 111.497 434.008 111.724 433.883 111.969C433.758 112.214 433.594 112.445 433.391 112.664C433.193 112.888 432.945 113.068 432.648 113.203C432.352 113.344 431.992 113.414 431.57 113.414C431.404 113.414 431.242 113.398 431.086 113.367C430.935 113.341 430.792 113.312 430.656 113.281L430.648 111.844C430.701 111.849 430.763 111.854 430.836 111.859C430.914 111.865 430.977 111.867 431.023 111.867C431.336 111.867 431.596 111.828 431.805 111.75C432.013 111.677 432.182 111.557 432.312 111.391C432.448 111.224 432.562 111 432.656 110.719L433.266 109.078ZM431.969 101.547L433.977 107.875L434.312 109.859L433.008 110.195L429.938 101.547H431.969ZM437.719 109.062C437.719 108.771 437.818 108.526 438.016 108.328C438.214 108.125 438.482 108.023 438.82 108.023C439.164 108.023 439.432 108.125 439.625 108.328C439.823 108.526 439.922 108.771 439.922 109.062C439.922 109.354 439.823 109.599 439.625 109.797C439.432 109.995 439.164 110.094 438.82 110.094C438.482 110.094 438.214 109.995 438.016 109.797C437.818 109.599 437.719 109.354 437.719 109.062Z" fill="#1F1F1F"/>
</svg>
