<svg width="191" height="22" viewBox="0 0 191 22" fill="none" xmlns="http://www.w3.org/2000/svg">
<path d="M9.77539 3.74609L3.82812 21H0.232422L7.72461 1.09375H10.0215L9.77539 3.74609ZM14.752 21L8.79102 3.74609L8.53125 1.09375H10.8418L18.3613 21H14.752ZM14.4648 13.6172V16.3379H3.63672V13.6172H14.4648ZM33.0586 18.2793V21H23.0645V18.2793H33.0586ZM24.0215 1.09375V21H20.5898V1.09375H24.0215ZM37.1055 1.09375H40.168L45.9238 16.4473L51.666 1.09375H54.7285L47.127 21H44.6934L37.1055 1.09375ZM35.7109 1.09375H38.623L39.1289 14.3828V21H35.7109V1.09375ZM53.2109 1.09375H56.1367V21H52.7051V14.3828L53.2109 1.09375ZM76.084 10.5V11.5938C76.084 13.0977 75.888 14.4466 75.4961 15.6406C75.1042 16.8346 74.5436 17.8509 73.8145 18.6895C73.0944 19.528 72.2285 20.1706 71.2168 20.6172C70.2051 21.0547 69.084 21.2734 67.8535 21.2734C66.6322 21.2734 65.5156 21.0547 64.5039 20.6172C63.5013 20.1706 62.6309 19.528 61.8926 18.6895C61.1543 17.8509 60.5801 16.8346 60.1699 15.6406C59.7689 14.4466 59.5684 13.0977 59.5684 11.5938V10.5C59.5684 8.99609 59.7689 7.65169 60.1699 6.4668C60.571 5.27279 61.1361 4.25651 61.8652 3.41797C62.6035 2.57031 63.474 1.92773 64.4766 1.49023C65.4883 1.04362 66.6048 0.820312 67.8262 0.820312C69.0566 0.820312 70.1777 1.04362 71.1895 1.49023C72.2012 1.92773 73.0716 2.57031 73.8008 3.41797C74.5299 4.25651 75.0905 5.27279 75.4824 6.4668C75.8835 7.65169 76.084 8.99609 76.084 10.5ZM72.6523 11.5938V10.4727C72.6523 9.36068 72.543 8.38086 72.3242 7.5332C72.1146 6.67643 71.8001 5.96094 71.3809 5.38672C70.9707 4.80339 70.4648 4.36589 69.8633 4.07422C69.2617 3.77344 68.5827 3.62305 67.8262 3.62305C67.0697 3.62305 66.3952 3.77344 65.8027 4.07422C65.2103 4.36589 64.7044 4.80339 64.2852 5.38672C63.875 5.96094 63.5605 6.67643 63.3418 7.5332C63.123 8.38086 63.0137 9.36068 63.0137 10.4727V11.5938C63.0137 12.7057 63.123 13.6901 63.3418 14.5469C63.5605 15.4036 63.8796 16.1283 64.2988 16.7207C64.7272 17.304 65.2376 17.7461 65.8301 18.0469C66.4225 18.3385 67.097 18.4844 67.8535 18.4844C68.6191 18.4844 69.2982 18.3385 69.8906 18.0469C70.4831 17.7461 70.9844 17.304 71.3945 16.7207C71.8047 16.1283 72.1146 15.4036 72.3242 14.5469C72.543 13.6901 72.6523 12.7057 72.6523 11.5938ZM89.9883 15.873C89.9883 15.4629 89.9245 15.0983 89.7969 14.7793C89.6784 14.4603 89.4642 14.1686 89.1543 13.9043C88.8444 13.64 88.4069 13.3848 87.8418 13.1387C87.2858 12.8835 86.5749 12.6237 85.709 12.3594C84.7611 12.0677 83.8861 11.7441 83.084 11.3887C82.291 11.0241 81.5983 10.6048 81.0059 10.1309C80.4134 9.64779 79.9531 9.09635 79.625 8.47656C79.2969 7.84766 79.1328 7.12305 79.1328 6.30273C79.1328 5.49154 79.3014 4.75326 79.6387 4.08789C79.985 3.42253 80.4727 2.84831 81.1016 2.36523C81.7396 1.87305 82.4915 1.49479 83.3574 1.23047C84.2233 0.957031 85.1803 0.820312 86.2285 0.820312C87.7051 0.820312 88.9766 1.09375 90.043 1.64062C91.1185 2.1875 91.9434 2.92122 92.5176 3.8418C93.1009 4.76237 93.3926 5.77865 93.3926 6.89062H89.9883C89.9883 6.23438 89.847 5.6556 89.5645 5.1543C89.291 4.64388 88.8717 4.24284 88.3066 3.95117C87.7507 3.65951 87.0443 3.51367 86.1875 3.51367C85.3763 3.51367 84.7018 3.63672 84.1641 3.88281C83.6263 4.12891 83.2253 4.46159 82.9609 4.88086C82.6966 5.30013 82.5645 5.77409 82.5645 6.30273C82.5645 6.67643 82.651 7.01823 82.8242 7.32812C82.9974 7.62891 83.2617 7.91146 83.6172 8.17578C83.9727 8.43099 84.4193 8.67253 84.957 8.90039C85.4948 9.12826 86.1283 9.34701 86.8574 9.55664C87.9603 9.88477 88.9219 10.2493 89.7422 10.6504C90.5625 11.0423 91.2461 11.4889 91.793 11.9902C92.3398 12.4915 92.75 13.0612 93.0234 13.6992C93.2969 14.3281 93.4336 15.0436 93.4336 15.8457C93.4336 16.6842 93.265 17.4408 92.9277 18.1152C92.5905 18.7806 92.1074 19.3503 91.4785 19.8242C90.8587 20.2891 90.1113 20.6491 89.2363 20.9043C88.3704 21.1504 87.4043 21.2734 86.3379 21.2734C85.3809 21.2734 84.4375 21.1458 83.5078 20.8906C82.5872 20.6354 81.7487 20.248 80.9922 19.7285C80.2357 19.1999 79.6341 18.5436 79.1875 17.7598C78.7409 16.9668 78.5176 16.0417 78.5176 14.9844H81.9492C81.9492 15.6315 82.0586 16.1829 82.2773 16.6387C82.5052 17.0944 82.8197 17.4681 83.2207 17.7598C83.6217 18.0423 84.0866 18.252 84.6152 18.3887C85.153 18.5254 85.7272 18.5938 86.3379 18.5938C87.14 18.5938 87.8099 18.4798 88.3477 18.252C88.8945 18.0241 89.3047 17.7051 89.5781 17.2949C89.8516 16.8848 89.9883 16.4108 89.9883 15.873ZM104.658 1.09375V21H101.254V1.09375H104.658ZM110.906 1.09375V3.82812H95.0605V1.09375H110.906ZM125.631 21H121.379L121.406 18.2793H125.631C126.861 18.2793 127.891 18.0104 128.721 17.4727C129.559 16.9349 130.188 16.1647 130.607 15.1621C131.036 14.1595 131.25 12.9655 131.25 11.5801V10.5C131.25 9.42448 131.127 8.47201 130.881 7.64258C130.644 6.81315 130.288 6.11589 129.814 5.55078C129.35 4.98568 128.775 4.55729 128.092 4.26562C127.417 3.97396 126.638 3.82812 125.754 3.82812H121.297V1.09375H125.754C127.076 1.09375 128.283 1.31706 129.377 1.76367C130.471 2.20117 131.414 2.83464 132.207 3.66406C133.009 4.49349 133.624 5.48698 134.053 6.64453C134.481 7.80208 134.695 9.09635 134.695 10.5273V11.5801C134.695 13.0111 134.481 14.3053 134.053 15.4629C133.624 16.6204 133.009 17.6139 132.207 18.4434C131.405 19.2637 130.448 19.8971 129.336 20.3438C128.233 20.7812 126.998 21 125.631 21ZM123.279 1.09375V21H119.848V1.09375H123.279ZM154.014 10.5V11.5938C154.014 13.0977 153.818 14.4466 153.426 15.6406C153.034 16.8346 152.473 17.8509 151.744 18.6895C151.024 19.528 150.158 20.1706 149.146 20.6172C148.135 21.0547 147.014 21.2734 145.783 21.2734C144.562 21.2734 143.445 21.0547 142.434 20.6172C141.431 20.1706 140.561 19.528 139.822 18.6895C139.084 17.8509 138.51 16.8346 138.1 15.6406C137.699 14.4466 137.498 13.0977 137.498 11.5938V10.5C137.498 8.99609 137.699 7.65169 138.1 6.4668C138.501 5.27279 139.066 4.25651 139.795 3.41797C140.533 2.57031 141.404 1.92773 142.406 1.49023C143.418 1.04362 144.535 0.820312 145.756 0.820312C146.986 0.820312 148.107 1.04362 149.119 1.49023C150.131 1.92773 151.001 2.57031 151.73 3.41797C152.46 4.25651 153.02 5.27279 153.412 6.4668C153.813 7.65169 154.014 8.99609 154.014 10.5ZM150.582 11.5938V10.4727C150.582 9.36068 150.473 8.38086 150.254 7.5332C150.044 6.67643 149.73 5.96094 149.311 5.38672C148.9 4.80339 148.395 4.36589 147.793 4.07422C147.191 3.77344 146.512 3.62305 145.756 3.62305C144.999 3.62305 144.325 3.77344 143.732 4.07422C143.14 4.36589 142.634 4.80339 142.215 5.38672C141.805 5.96094 141.49 6.67643 141.271 7.5332C141.053 8.38086 140.943 9.36068 140.943 10.4727V11.5938C140.943 12.7057 141.053 13.6901 141.271 14.5469C141.49 15.4036 141.809 16.1283 142.229 16.7207C142.657 17.304 143.167 17.7461 143.76 18.0469C144.352 18.3385 145.027 18.4844 145.783 18.4844C146.549 18.4844 147.228 18.3385 147.82 18.0469C148.413 17.7461 148.914 17.304 149.324 16.7207C149.734 16.1283 150.044 15.4036 150.254 14.5469C150.473 13.6901 150.582 12.7057 150.582 11.5938ZM173.236 1.09375V21H169.805L160.877 6.74023V21H157.445V1.09375H160.877L169.832 15.3809V1.09375H173.236ZM190.354 18.2793V21H179.785V18.2793H190.354ZM180.756 1.09375V21H177.324V1.09375H180.756ZM188.973 9.40625V12.0859H179.785V9.40625H188.973ZM190.285 1.09375V3.82812H179.785V1.09375H190.285Z" fill="#FF5E0E"/>
</svg>
